<svg width="24" height="24" viewBox="0 0 24 24" fill="none" xmlns="http://www.w3.org/2000/svg">
<g id="volume">
<path id="Vector (Stroke)" d="M10.3819 2.7119C10.8603 2.67423 11.3278 2.86825 11.6397 3.23339C11.9187 3.56013 11.9645 3.95252 11.9815 4.14354C12.0013 4.36733 12 4.64851 12 4.93163V19.0683C12 19.3513 12.0012 19.6318 11.9815 19.8555C11.9645 20.0463 11.92 20.4406 11.6406 20.7676L11.6397 20.7666C11.3278 21.1316 10.8609 21.3255 10.3828 21.2881H10.3819C9.95347 21.2542 9.64399 21.0077 9.49708 20.8848C9.32485 20.7405 9.12694 20.541 8.92677 20.3408L5.76173 17.1758C5.6691 17.0831 5.62201 17.0369 5.58693 17.0049C5.58566 17.0037 5.58416 17.003 5.58302 17.0019H5.58107C5.53365 16.9998 5.46795 17 5.33693 17H3.59962C3.33624 17 3.07816 17.0011 2.86134 16.9834C2.63283 16.9647 2.36308 16.9204 2.09181 16.7822C1.71541 16.5905 1.40946 16.2843 1.21779 15.9082C1.07949 15.6368 1.03529 15.3663 1.01662 15.1377C0.998934 14.9209 1.00001 14.6628 1.00001 14.3994V9.5996C1.00001 9.33618 0.9989 9.07815 1.01662 8.86132C1.03531 8.6328 1.07956 8.36307 1.21779 8.09179C1.40951 7.71552 1.71554 7.40951 2.09181 7.21776C2.36307 7.07955 2.63284 7.03529 2.86134 7.01659C3.07815 6.99888 3.33623 6.99999 3.59962 6.99999H5.33693C5.46788 6.99999 5.53358 6.99923 5.58107 6.99706L5.58693 6.99511C5.62204 6.96306 5.6691 6.91684 5.76173 6.82421L8.92677 3.65819C9.12689 3.45808 9.32486 3.25943 9.49708 3.11522C9.64398 2.99225 9.95349 2.74579 10.3819 2.7119ZM21 12C21 9.7538 20.3283 7.66673 19.1738 5.92675L18.9365 5.58397L18.8809 5.49804C18.6278 5.05878 18.7437 4.49089 19.1641 4.18847C19.5844 3.88607 20.1601 3.95637 20.4961 4.33593L20.5596 4.416L20.8399 4.82225C22.2045 6.8794 23 9.34806 23 12C23 14.8288 22.0952 17.4493 20.5596 19.584C20.237 20.0322 19.6124 20.134 19.1641 19.8115C18.7157 19.489 18.614 18.8643 18.9365 18.416C20.2355 16.6103 21 14.3958 21 12ZM16 12C16 10.8037 15.6508 9.69159 15.0488 8.75682L14.9248 8.57225L14.8711 8.48534C14.6245 8.0425 14.7483 7.47598 15.1729 7.17968C15.6258 6.86373 16.2495 6.97482 16.5654 7.42772C17.4696 8.72394 18 10.3017 18 12C18 13.6984 17.4696 15.2761 16.5654 16.5723C16.2494 17.0251 15.6258 17.1362 15.1729 16.8203C14.72 16.5043 14.609 15.8806 14.9248 15.4277C15.6024 14.4563 16 13.2761 16 12ZM3.00001 14.3994C3.00001 14.696 3.00123 14.859 3.01076 14.9756C3.01109 14.9797 3.01139 14.9836 3.01173 14.9873C3.01576 14.9877 3.01994 14.9889 3.02443 14.9892C3.14096 14.9988 3.30334 15 3.59962 15H5.33693C5.53381 15 5.79645 14.9937 6.05372 15.0557H6.05275C6.20562 15.0924 6.35345 15.1466 6.49318 15.2178L6.63087 15.2949L6.79103 15.4062C6.94355 15.5244 7.07134 15.6572 7.1758 15.7617L10 18.5849V5.41405L7.1758 8.23827C7.03654 8.37753 6.85614 8.567 6.63087 8.70507C6.45194 8.81472 6.25675 8.89533 6.05275 8.94432C5.7958 9.00601 5.53392 8.99999 5.33693 8.99999H3.59962C3.30335 8.99999 3.14096 9.00023 3.02443 9.00975C3.01997 9.01012 3.01573 9.01036 3.01173 9.01073C3.01133 9.01502 3.01115 9.01958 3.01076 9.0244C3.00123 9.14095 3.00001 9.30327 3.00001 9.5996V14.3994Z" fill="#040308"/>
</g>
</svg>
