<svg width="24" height="24" viewBox="0 0 24 24" fill="none" xmlns="http://www.w3.org/2000/svg">
<g id="Frame">
<path id="Vector" d="M7.26953 7.32642C7.26953 6.67898 7.26953 6.35526 7.40452 6.17681C7.52212 6.02135 7.70188 5.92515 7.89646 5.91353C8.11982 5.90019 8.38917 6.07977 8.92788 6.4389L15.9383 11.1125C16.3834 11.4092 16.6059 11.5576 16.6835 11.7446C16.7513 11.9081 16.7513 12.0919 16.6835 12.2554C16.6059 12.4424 16.3834 12.5907 15.9383 12.8875L8.92788 17.5611C8.38917 17.9202 8.11982 18.0998 7.89646 18.0865C7.70188 18.0749 7.52212 17.9787 7.40452 17.8232C7.26953 17.6447 7.26953 17.321 7.26953 16.6736V7.32642Z" stroke="black" stroke-width="2" stroke-linecap="round" stroke-linejoin="round"/>
</g>
</svg>
