<svg width="52" height="57" viewBox="0 0 52 57" fill="none" xmlns="http://www.w3.org/2000/svg">
<g filter="url(#filter0_i_40003151_1284)">
<rect width="52" height="52" rx="8" fill="#2450BE"/>
</g>
<g filter="url(#filter1_d_40003151_1284)">
<path d="M33.4801 26.5158C33.3328 26.4445 33.1555 26.5062 33.0842 26.6534C33.0129 26.8008 33.0746 26.9783 33.2219 27.0496C34.5596 27.697 36.3188 28.951 37.2798 30.594C37.7572 31.4102 38.0332 32.3144 37.9735 33.287C37.9223 34.1215 37.622 35.0259 36.9601 35.9873L36.809 35.4402C36.7654 35.2824 36.6021 35.1898 36.4443 35.2334C36.2866 35.277 36.194 35.4403 36.2375 35.598L36.6232 36.9947L37.8516 36.7565C38.0123 36.7253 38.1174 36.5697 38.0862 36.409C38.055 36.2483 37.8995 36.1435 37.7388 36.1746L37.5215 36.2167C38.1864 35.2174 38.5086 34.2475 38.5653 33.3233C38.6336 32.2102 38.3154 31.1902 37.7914 30.2946C36.7496 28.5136 34.8778 27.1922 33.4801 26.5158Z" fill="#DFE6F5"/>
<path d="M33.5447 26.3824C33.3238 26.2755 33.0578 26.3678 32.9508 26.5887C32.8439 26.8097 32.9363 27.0759 33.1572 27.1829C34.4799 27.823 36.211 29.0604 37.1518 30.6689C37.6176 31.4652 37.8831 32.3403 37.8256 33.2778C37.781 34.0041 37.5399 34.7912 37.0157 35.6311L36.9519 35.4007C36.8865 35.1639 36.6415 35.025 36.4048 35.0904C36.1683 35.1558 36.0292 35.4008 36.0945 35.6374L36.5168 37.1663L37.8799 36.902C38.1209 36.8552 38.2786 36.6219 38.2319 36.3808C38.1922 36.1768 38.0186 36.0328 37.8202 36.0218C38.3798 35.0999 38.6602 34.1992 38.7134 33.3324C38.7839 32.1842 38.4549 31.1353 37.9194 30.2198C36.8575 28.4044 34.9574 27.066 33.5447 26.3824ZM33.2175 26.718C33.2531 26.6444 33.3418 26.6137 33.4155 26.6493L33.4157 26.649C34.7984 27.3181 36.6418 28.623 37.6634 30.3695C38.1757 31.2452 38.4836 32.2361 38.4174 33.3141C38.3625 34.2091 38.0504 35.1543 37.3983 36.1345L37.2019 36.4295L37.7669 36.3203C37.8473 36.3048 37.9252 36.357 37.9408 36.4372C37.9563 36.5175 37.9038 36.5953 37.8235 36.611L36.7299 36.8228L36.3804 35.5586C36.3587 35.4797 36.4049 35.3981 36.4837 35.3763C36.5626 35.3545 36.6442 35.4007 36.666 35.4795L36.902 36.3331L37.0821 36.0712C37.7572 35.0907 38.0685 34.1609 38.1216 33.2961C38.1834 32.2884 37.8968 31.3553 37.4078 30.5193C36.4266 28.8418 34.6392 27.5708 33.2866 26.9162C33.2221 26.885 33.1903 26.8131 33.2072 26.7462L33.2175 26.718Z" fill="#DFE6F5"/>
<path d="M18.1726 18.8505C18.3145 18.769 18.4957 18.818 18.5773 18.9598C18.6588 19.1018 18.6098 19.2832 18.4679 19.3648C17.1794 20.1052 15.5134 21.4805 14.671 23.1874C14.2525 24.0354 14.0412 24.9568 14.1696 25.9227C14.2797 26.7515 14.6432 27.6324 15.3715 28.5445L15.4835 27.9881C15.5158 27.8276 15.6722 27.7237 15.8327 27.756C15.9931 27.7884 16.097 27.9447 16.0647 28.1051L15.7788 29.5255L14.5367 29.3749C14.3742 29.3551 14.2583 29.2074 14.278 29.0449C14.2978 28.8824 14.4455 28.7668 14.608 28.7865L14.8277 28.813C14.0938 27.8633 13.7038 26.9187 13.5818 26.0008C13.4349 24.8953 13.6802 23.8554 14.1395 22.9249C15.0526 21.0747 16.8263 19.6241 18.1726 18.8505Z" fill="#DFE6F5"/>
<path d="M18.0987 18.722C18.3115 18.5999 18.5834 18.6731 18.7057 18.8859C18.8281 19.0987 18.7547 19.3708 18.5419 19.4932C17.2678 20.2252 15.6287 21.5821 14.8039 23.2531C14.3957 24.0803 14.1927 24.972 14.3164 25.9031C14.4123 26.6245 14.7085 27.3925 15.2908 28.1932L15.3382 27.9588C15.3866 27.718 15.6212 27.5622 15.8619 27.6106C16.1025 27.6591 16.2585 27.8937 16.2101 28.1343L15.897 29.6893L14.5187 29.5221C14.275 29.4925 14.1012 29.2708 14.1307 29.0271C14.1559 28.8207 14.3188 28.6648 14.516 28.6398C13.8926 27.7599 13.5491 26.8813 13.4347 26.0203C13.2832 24.88 13.5371 23.8105 14.0065 22.8594C14.9373 20.9734 16.7379 19.504 18.0987 18.722ZM18.4489 19.0337C18.4081 18.9628 18.3175 18.9385 18.2465 18.9792C16.9146 19.7445 15.1679 21.1762 14.2724 22.9906C13.8234 23.9004 13.5864 24.9106 13.7286 25.9812C13.8468 26.87 14.2249 27.7908 14.9448 28.7224L15.1616 29.0028L14.5903 28.9338C14.509 28.924 14.4349 28.9816 14.4251 29.0628C14.4152 29.1439 14.4732 29.2178 14.5544 29.2278L15.6603 29.3617L15.9194 28.0759C15.9355 27.9957 15.8836 27.9176 15.8035 27.9014C15.7232 27.8852 15.6451 27.9371 15.6289 28.0172L15.4539 28.8854L15.2557 28.6369C14.5129 27.7066 14.1366 26.8011 14.0225 25.9423C13.8895 24.9415 14.1094 23.9905 14.538 23.1219C15.3981 21.3792 17.0911 19.985 18.394 19.2363C18.4561 19.2006 18.4828 19.1266 18.4611 19.0611L18.4489 19.0337Z" fill="#DFE6F5"/>
<path d="M22.9653 11.9488C23.6582 11.4891 24.4936 11.3131 25.2973 11.4615C26.101 11.6099 26.818 12.0729 27.3012 12.7495C27.6736 13.2709 27.8768 13.8864 27.9194 14.5152C28.3858 15.5487 28.7849 16.5959 29.1157 17.6568C31.2004 17.5087 33.3064 17.5457 35.433 17.773C35.7013 17.8016 35.9698 17.8331 36.2387 17.8677C36.5983 17.9149 36.9542 18.0492 37.2319 18.2915C37.5095 18.5337 37.6868 18.86 37.726 19.2115C37.7651 19.5627 37.6639 19.9191 37.4467 20.2163C37.2294 20.5139 36.9129 20.7238 36.5727 20.8492C36.3177 20.9423 36.0617 21.0325 35.8061 21.1197C33.3743 21.9489 30.9116 22.5078 28.4194 22.7954C28.2671 22.8126 28.1134 22.8199 27.9584 22.8169C27.6247 22.8153 27.298 22.7569 26.9858 22.6568C26.8375 23.5965 26.679 24.5342 26.5063 25.4693C26.4816 25.6032 26.4543 25.737 26.4282 25.8706C28.098 27.2581 29.7168 28.7216 31.353 30.1587C33.2841 31.5759 33.7144 34.4055 32.478 36.2349C32.1961 36.6264 31.9178 37.0208 31.645 37.4175C29.6786 40.2768 27.7919 43.1832 25.8842 46.0767C25.5304 46.6133 25.1756 47.1497 24.8198 47.6851C24.6117 47.9975 24.2778 48.2194 23.9018 48.3072C23.525 48.3945 23.1372 48.3406 22.8129 48.1519C22.4888 47.9631 22.2511 47.6524 22.1411 47.2818C22.0318 46.9117 22.0582 46.5114 22.227 46.1763C22.5168 45.6024 22.8091 45.0283 23.101 44.4556C24.6749 41.368 26.2705 38.2922 27.7856 35.1704C27.8923 34.9505 27.9967 34.7288 28.101 34.5074C27.9578 34.4341 27.8147 34.3607 27.6713 34.2876C27.4439 34.7694 27.2131 35.2499 26.975 35.7261C26.1287 37.4186 25.0176 38.9789 24.058 40.6148C23.2828 41.9365 22.5208 43.2652 21.7563 44.5923C21.5746 44.9077 21.3926 45.2235 21.2104 45.5386C21.0224 45.8631 20.702 46.1042 20.3325 46.2154C19.9623 46.3261 19.5728 46.2978 19.2377 46.1304C18.9025 45.9628 18.6457 45.668 18.5121 45.3052C18.3793 44.9428 18.38 44.542 18.5268 44.1968C18.6695 43.862 18.8132 43.5274 18.9565 43.1929C19.5596 41.7849 20.165 40.3778 20.7573 38.9644C21.4903 37.2151 22.0721 35.3895 22.9184 33.6968C23.1638 33.2061 23.4146 32.718 23.6713 32.2329C22.9185 31.8347 22.1708 31.429 21.434 31.0074C19.598 29.8617 18.5553 27.5339 18.9575 25.354C19.0206 24.9396 19.0894 24.5258 19.1655 24.1138C19.6828 21.3124 20.3099 18.5302 21.0453 15.7691C21.211 15.1471 21.3823 14.5257 21.559 13.9058C21.7848 13.1164 22.2719 12.4084 22.9653 11.9488Z" fill="black"/>
<path d="M22.9653 11.9488C23.6582 11.4891 24.4936 11.3131 25.2973 11.4615C26.101 11.6099 26.818 12.0729 27.3012 12.7495C27.6736 13.2709 27.8768 13.8864 27.9194 14.5152C28.3858 15.5487 28.7849 16.5959 29.1157 17.6568C31.2004 17.5087 33.3064 17.5457 35.433 17.773C35.7013 17.8016 35.9698 17.8331 36.2387 17.8677C36.5983 17.9149 36.9542 18.0492 37.2319 18.2915C37.5095 18.5337 37.6868 18.86 37.726 19.2115C37.7651 19.5627 37.6639 19.9191 37.4467 20.2163C37.2294 20.5139 36.9129 20.7238 36.5727 20.8492C36.3177 20.9423 36.0617 21.0325 35.8061 21.1197C33.3743 21.9489 30.9116 22.5078 28.4194 22.7954C28.2671 22.8126 28.1134 22.8199 27.9584 22.8169C27.6247 22.8153 27.298 22.7569 26.9858 22.6568C26.8375 23.5965 26.679 24.5342 26.5063 25.4693C26.4816 25.6032 26.4543 25.737 26.4282 25.8706C28.098 27.2581 29.7168 28.7216 31.353 30.1587C33.2841 31.5759 33.7144 34.4055 32.478 36.2349C32.1961 36.6264 31.9178 37.0208 31.645 37.4175C29.6786 40.2768 27.7919 43.1832 25.8842 46.0767C25.5304 46.6133 25.1756 47.1497 24.8198 47.6851C24.6117 47.9975 24.2778 48.2194 23.9018 48.3072C23.525 48.3945 23.1372 48.3406 22.8129 48.1519C22.4888 47.9631 22.2511 47.6524 22.1411 47.2818C22.0318 46.9117 22.0582 46.5114 22.227 46.1763C22.5168 45.6024 22.8091 45.0283 23.101 44.4556C24.6749 41.368 26.2705 38.2922 27.7856 35.1704C27.8923 34.9505 27.9967 34.7288 28.101 34.5074C27.9578 34.4341 27.8147 34.3607 27.6713 34.2876C27.4439 34.7694 27.2131 35.2499 26.975 35.7261C26.1287 37.4186 25.0176 38.9789 24.058 40.6148C23.2828 41.9365 22.5208 43.2652 21.7563 44.5923C21.5746 44.9077 21.3926 45.2235 21.2104 45.5386C21.0224 45.8631 20.702 46.1042 20.3325 46.2154C19.9623 46.3261 19.5728 46.2978 19.2377 46.1304C18.9025 45.9628 18.6457 45.668 18.5121 45.3052C18.3793 44.9428 18.38 44.542 18.5268 44.1968C18.6695 43.862 18.8132 43.5274 18.9565 43.1929C19.5596 41.7849 20.165 40.3778 20.7573 38.9644C21.4903 37.2151 22.0721 35.3895 22.9184 33.6968C23.1638 33.2061 23.4146 32.718 23.6713 32.2329C22.9185 31.8347 22.1708 31.429 21.434 31.0074C19.598 29.8617 18.5553 27.5339 18.9575 25.354C19.0206 24.9396 19.0894 24.5258 19.1655 24.1138C19.6828 21.3124 20.3099 18.5302 21.0453 15.7691C21.211 15.1471 21.3823 14.5257 21.559 13.9058C21.7848 13.1164 22.2719 12.4084 22.9653 11.9488Z" fill="url(#paint0_linear_40003151_1284)"/>
<path d="M25.303 3.72284C30.0545 3.0746 30.6049 10.0096 26.2997 10.5049C21.5849 11.0492 21.114 4.2977 25.303 3.72284Z" fill="url(#paint1_linear_40003151_1284)"/>
</g>
<defs>
<filter id="filter0_i_40003151_1284" x="0" y="0" width="52" height="64" filterUnits="userSpaceOnUse" color-interpolation-filters="sRGB">
<feFlood flood-opacity="0" result="BackgroundImageFix"/>
<feBlend mode="normal" in="SourceGraphic" in2="BackgroundImageFix" result="shape"/>
<feColorMatrix in="SourceAlpha" type="matrix" values="0 0 0 0 0 0 0 0 0 0 0 0 0 0 0 0 0 0 127 0" result="hardAlpha"/>
<feOffset dy="12"/>
<feGaussianBlur stdDeviation="12"/>
<feComposite in2="hardAlpha" operator="arithmetic" k2="-1" k3="1"/>
<feColorMatrix type="matrix" values="0 0 0 0 1 0 0 0 0 1 0 0 0 0 1 0 0 0 0.46 0"/>
<feBlend mode="normal" in2="shape" result="effect1_innerShadow_40003151_1284"/>
</filter>
<filter id="filter1_d_40003151_1284" x="9.39093" y="3.68011" width="33.3319" height="52.6678" filterUnits="userSpaceOnUse" color-interpolation-filters="sRGB">
<feFlood flood-opacity="0" result="BackgroundImageFix"/>
<feColorMatrix in="SourceAlpha" type="matrix" values="0 0 0 0 0 0 0 0 0 0 0 0 0 0 0 0 0 0 127 0" result="hardAlpha"/>
<feOffset dy="4"/>
<feGaussianBlur stdDeviation="2"/>
<feComposite in2="hardAlpha" operator="out"/>
<feColorMatrix type="matrix" values="0 0 0 0 0 0 0 0 0 0 0 0 0 0 0 0 0 0 0.25 0"/>
<feBlend mode="normal" in2="BackgroundImageFix" result="effect1_dropShadow_40003151_1284"/>
<feBlend mode="normal" in="SourceGraphic" in2="effect1_dropShadow_40003151_1284" result="shape"/>
</filter>
<linearGradient id="paint0_linear_40003151_1284" x1="25.8979" y1="9.9963" x2="6.72223" y2="37.2067" gradientUnits="userSpaceOnUse">
<stop stop-color="white"/>
<stop offset="1" stop-color="#92A8DE"/>
</linearGradient>
<linearGradient id="paint1_linear_40003151_1284" x1="25.067" y1="3.41759" x2="22.594" y2="10.0549" gradientUnits="userSpaceOnUse">
<stop stop-color="white"/>
<stop offset="1" stop-color="#E9ECF3"/>
</linearGradient>
</defs>
</svg>
