<svg width="53" height="56" viewBox="0 0 53 56" fill="none" xmlns="http://www.w3.org/2000/svg">
<g filter="url(#filter0_i_40002059_81423)">
<rect x="0.0976562" width="52" height="52" rx="8" fill="#DC3545"/>
</g>
<g filter="url(#filter1_d_40002059_81423)">
<path d="M13.3441 7.19988C13.4963 7.11111 13.6918 7.16245 13.7807 7.31458C13.8695 7.46682 13.8181 7.66253 13.6659 7.7514C12.284 8.55807 10.5003 10.0512 9.60585 11.8952C9.16152 12.8113 8.9408 13.805 9.08612 14.8441C9.21082 15.7357 9.60869 16.6815 10.3996 17.6581L10.5161 17.0582C10.5497 16.8852 10.7173 16.7722 10.8903 16.8058C11.0633 16.8394 11.1763 17.0069 11.1427 17.1799L10.8453 18.7114L9.50684 18.5583C9.33171 18.5383 9.20589 18.38 9.22593 18.2049C9.24602 18.0298 9.40419 17.9043 9.57928 17.9243L9.816 17.9513C9.01886 16.9341 8.59194 15.9199 8.45384 14.9325C8.28754 13.7433 8.544 12.6218 9.03161 11.6165C10.0012 9.61763 11.9002 8.04275 13.3441 7.19988Z" fill="#F8D7DA"/>
<path d="M13.2632 7.06206C13.4915 6.92893 13.7847 7.0058 13.9181 7.23397C14.0513 7.46225 13.9743 7.75573 13.7461 7.88908C12.3797 8.6867 10.6248 10.1597 9.74911 11.965C9.31565 12.8587 9.10368 13.8202 9.2437 14.8218C9.35225 15.5978 9.67685 16.4226 10.3097 17.2804L10.359 17.0277C10.4094 16.7681 10.6608 16.5986 10.9203 16.6489C11.1798 16.6994 11.3494 16.9508 11.2991 17.2103L10.9735 18.8868L9.48817 18.717C9.22561 18.6869 9.0368 18.4495 9.06681 18.1868C9.09239 17.9645 9.26665 17.7954 9.47874 17.767C8.80102 16.8242 8.42479 15.8807 8.29525 14.9546C8.12371 13.7279 8.38918 12.5745 8.88757 11.547C9.87593 9.50938 11.8038 7.91399 13.2632 7.06206ZM13.6426 7.39506C13.5981 7.31903 13.5004 7.29348 13.4243 7.33786L13.424 7.33748C11.9956 8.1713 10.1257 9.72608 9.17488 11.6862C8.6981 12.6692 8.45042 13.7586 8.61143 14.9102C8.74516 15.8664 9.15912 16.855 9.94107 17.8528L10.1765 18.1531L9.56091 18.083C9.47333 18.0731 9.394 18.1357 9.38397 18.2231C9.374 18.3105 9.43691 18.3897 9.52443 18.3998L10.7161 18.5358L10.9856 17.1495C11.0024 17.0631 10.946 16.9793 10.8596 16.9624C10.773 16.9456 10.6893 17.0021 10.6725 17.0885L10.4904 18.0246L10.2752 17.7584C9.46857 16.7623 9.05675 15.7901 8.92753 14.8662C8.77698 13.7896 9.00669 12.7641 9.4618 11.8257C10.375 9.943 12.1876 8.42931 13.585 7.61358C13.6515 7.57472 13.6797 7.49482 13.656 7.42447L13.6426 7.39506Z" fill="#F8D7DA"/>
<path d="M41.9194 18.6689C41.832 18.8219 41.6371 18.8752 41.4841 18.7879C41.331 18.7004 41.2776 18.5052 41.3651 18.3522C42.1584 16.9626 42.9566 14.7777 42.8092 12.7335C42.736 11.718 42.4303 10.7471 41.7849 9.91983C41.2311 9.21007 40.4136 8.58991 39.2404 8.13952L39.4394 8.71736C39.4969 8.88401 39.4082 9.06564 39.2416 9.12307C39.075 9.18042 38.8933 9.09184 38.8359 8.92523L38.3277 7.45021L39.5634 6.91356C39.7251 6.84335 39.9132 6.91749 39.9834 7.07918C40.0535 7.24084 39.9793 7.42866 39.8177 7.49887L39.5992 7.59387C40.7981 8.0762 41.675 8.7411 42.2883 9.52713C43.0269 10.4739 43.3655 11.5733 43.4459 12.6878C43.6056 14.9036 42.7485 17.217 41.9194 18.6689Z" fill="#F8D7DA"/>
<path d="M42.0579 18.748C41.9268 18.9774 41.6344 19.0575 41.4048 18.9266C41.1753 18.7955 41.0952 18.5028 41.2262 18.2732C42.0107 16.8993 42.7941 14.7462 42.6498 12.7449C42.5783 11.7542 42.2811 10.8155 41.659 10.0181C41.177 9.40032 40.4835 8.84833 39.5066 8.42189L39.5902 8.66537C39.6763 8.9154 39.5434 9.18796 39.2935 9.27409C39.0436 9.36009 38.7709 9.22723 38.6848 8.97736L38.1285 7.3626L39.4997 6.76704C39.7422 6.66184 40.0244 6.77299 40.1297 7.01547C40.2187 7.22082 40.1524 7.45437 39.9829 7.58499C41.0412 8.06269 41.8388 8.69161 42.414 9.4289C43.1759 10.4055 43.5227 11.5371 43.6049 12.6762C43.7677 14.9349 42.8958 17.2805 42.0579 18.748ZM41.5629 18.6493C41.6394 18.6929 41.7368 18.6662 41.7805 18.5897L41.7809 18.5899C42.601 17.1536 43.4431 14.8721 43.2864 12.6992C43.2079 11.6096 42.8776 10.5422 42.1624 9.62541C41.5685 8.86422 40.7157 8.215 39.5396 7.74185L39.1855 7.59954L39.7537 7.35243C39.8345 7.31725 39.8719 7.22336 39.8369 7.14265C39.8018 7.06194 39.7078 7.02483 39.6269 7.05984L38.5269 7.53789L38.9866 8.87324C39.0153 8.95649 39.1061 9.00078 39.1893 8.9722C39.2727 8.94348 39.3169 8.85273 39.2883 8.76949L38.978 7.86781L39.2974 7.99066C40.494 8.45003 41.3368 9.08608 41.9107 9.82161C42.5793 10.6787 42.8932 11.6817 42.9682 12.7219C43.1187 14.8089 42.3058 17.0261 41.5035 18.4313C41.4653 18.4982 41.4808 18.5815 41.5366 18.6305L41.5629 18.6493Z" fill="#F8D7DA"/>
<path d="M17.6465 11.4222C18.5026 11.304 20.5979 10.9771 21.3418 11.1234C21.5388 11.1628 21.7025 11.2075 21.8545 11.2582C22.1643 11.3596 22.3002 11.4384 22.627 11.6469C23.1393 11.9791 23.499 12.7223 23.2012 13.308C25.0976 13.0721 27.0108 13.0558 28.9072 13.309C28.6651 12.5937 29.1329 11.7717 29.8086 11.4955C31.2901 10.8871 32.9017 11.208 34.4678 11.4164C35.5832 11.5685 37.2958 11.7936 38.3379 12.1146C39.7797 12.5541 40.0669 14.1594 38.7998 14.9594C36.4902 15.9001 33.9381 16.4354 31.6172 17.2972C31.4933 17.3423 31.2398 17.4271 31.1553 17.5004C30.9132 17.7091 30.6931 19.1442 30.6367 19.5502C29.8762 24.8341 31.2002 33.2796 31.2002 36.101C31.2002 38.9223 31.5382 42.805 31.2002 45.8187C30.9519 48.0209 27.8431 48.0878 27.5107 45.7953C27.4262 40.8665 27.2452 35.9378 26.4229 31.0765C26.4003 30.9582 26.3557 30.5524 26.2881 30.5355L25.877 30.5521C25.6178 32.6194 25.2069 34.6982 25.0098 36.7767C24.7675 39.3511 24.8458 41.9201 24.7275 44.4945C24.7106 44.9112 24.6658 45.8908 24.5645 46.2347C24.0462 48.0317 21.1954 47.8743 21.0039 45.9252C20.6885 42.7142 20.9138 38.0518 21.0039 35.7289C21.0938 33.4139 21.7715 25.4166 21.7764 25.3588C21.782 22.7506 21.7927 20.0633 21.1055 17.5453L20.9141 17.4496C18.6608 16.4976 15.6751 16.0864 13.5176 15.0443C12.4698 14.5373 12.2446 13.1738 13.1572 12.4584C13.7657 11.9796 16.7335 11.5519 17.6465 11.4222ZM25.5996 4.53259C27.2726 4.33544 29.109 5.30407 29.25 7.12341C29.2725 7.41071 29.2507 7.69871 29.2676 7.89587C29.2846 8.05854 29.3852 7.94099 29.4189 8.18298C29.5372 9.08408 29.1377 9.27559 28.8223 9.90076C28.704 10.1317 28.6703 10.746 28.5576 10.9545C27.3353 13.1625 24.8851 13.1398 23.6514 10.9545C23.5105 10.701 23.4765 10.0922 23.3525 9.84998C23.0146 9.19099 22.5643 9.0954 22.8008 8.10974C22.9078 7.66472 22.9188 8.27839 22.9639 7.22498C23.0259 5.81109 24.1977 4.70159 25.5947 4.53259H25.5996Z" fill="url(#paint0_linear_40002059_81423)"/>
</g>
<defs>
<filter id="filter0_i_40002059_81423" x="0.0976562" y="0" width="52" height="76" filterUnits="userSpaceOnUse" color-interpolation-filters="sRGB">
<feFlood flood-opacity="0" result="BackgroundImageFix"/>
<feBlend mode="normal" in="SourceGraphic" in2="BackgroundImageFix" result="shape"/>
<feColorMatrix in="SourceAlpha" type="matrix" values="0 0 0 0 0 0 0 0 0 0 0 0 0 0 0 0 0 0 127 0" result="hardAlpha"/>
<feOffset dy="24"/>
<feGaussianBlur stdDeviation="12"/>
<feComposite in2="hardAlpha" operator="arithmetic" k2="-1" k3="1"/>
<feColorMatrix type="matrix" values="0 0 0 0 1 0 0 0 0 1 0 0 0 0 1 0 0 0 0.46 0"/>
<feBlend mode="normal" in2="shape" result="effect1_innerShadow_40002059_81423"/>
</filter>
<filter id="filter1_d_40002059_81423" x="4.24219" y="4.50739" width="43.3828" height="50.9852" filterUnits="userSpaceOnUse" color-interpolation-filters="sRGB">
<feFlood flood-opacity="0" result="BackgroundImageFix"/>
<feColorMatrix in="SourceAlpha" type="matrix" values="0 0 0 0 0 0 0 0 0 0 0 0 0 0 0 0 0 0 127 0" result="hardAlpha"/>
<feOffset dy="4"/>
<feGaussianBlur stdDeviation="2"/>
<feComposite in2="hardAlpha" operator="out"/>
<feColorMatrix type="matrix" values="0 0 0 0 0 0 0 0 0 0 0 0 0 0 0 0 0 0 0.25 0"/>
<feBlend mode="normal" in2="BackgroundImageFix" result="effect1_dropShadow_40002059_81423"/>
<feBlend mode="normal" in="SourceGraphic" in2="effect1_dropShadow_40002059_81423" result="shape"/>
</filter>
<linearGradient id="paint0_linear_40002059_81423" x1="26.0949" y1="4.5072" x2="26.0949" y2="47.4924" gradientUnits="userSpaceOnUse">
<stop stop-color="white"/>
<stop offset="1" stop-color="#F1AEB5"/>
</linearGradient>
</defs>
</svg>
