<svg width="53" height="56" viewBox="0 0 53 56" fill="none" xmlns="http://www.w3.org/2000/svg">
<g filter="url(#filter0_i_40002059_81424)">
<rect x="0.0976562" width="52" height="52" rx="8" fill="#9D42C1"/>
</g>
<path d="M33.1586 23.1948C33.3028 23.3828 33.2674 23.6521 33.0796 23.7964C32.8916 23.9407 32.6219 23.9052 32.4776 23.7172C31.168 22.011 28.8748 19.8852 26.2643 19.0046C24.9675 18.5671 23.6051 18.441 22.244 18.8107C21.0762 19.1279 19.8822 19.8186 18.7137 21.0385L19.5335 21.0924C19.7699 21.1079 19.9489 21.3122 19.9334 21.5487C19.9179 21.785 19.7136 21.9641 19.4772 21.9486L17.3845 21.8113L17.3621 20.0005C17.3592 19.7635 17.5489 19.569 17.7859 19.566C18.0227 19.5632 18.2169 19.7529 18.2199 19.9897L18.224 20.31C19.4455 19.0748 20.7257 18.3338 22.019 17.9825C23.5768 17.5594 25.1157 17.7115 26.5389 18.1916C29.3686 19.1462 31.7902 21.412 33.1586 23.1948Z" fill="#ECD9F3"/>
<path d="M33.3294 23.0641C33.5456 23.346 33.4927 23.75 33.211 23.9665C32.9292 24.1828 32.5248 24.1298 32.3083 23.848C31.0133 22.1609 28.752 20.07 26.1963 19.2079C24.9312 18.7811 23.613 18.6613 22.3011 19.0175C21.2846 19.2937 20.2396 19.8662 19.2029 20.8553L19.5482 20.8782C19.9029 20.9015 20.1716 21.2081 20.1484 21.5627C20.125 21.9172 19.8185 22.186 19.4639 22.1628L17.1731 22.0124L17.1481 20.0029C17.1438 19.6477 17.4284 19.3557 17.7838 19.3513C18.0846 19.3478 18.3396 19.5515 18.4133 19.8295C19.5559 18.7662 20.7504 18.1047 21.9635 17.7752C23.5703 17.3388 25.1533 17.4976 26.6079 17.9882C29.4924 18.9613 31.9463 21.2622 33.3294 23.0641ZM32.9496 23.6263C33.0434 23.5542 33.061 23.4195 32.9889 23.3255L32.9894 23.3252C31.6356 21.5615 29.2457 19.3311 26.4709 18.3949C25.0794 17.9256 23.5846 17.7797 22.0761 18.1893C20.8237 18.5295 19.5754 19.2489 18.3771 20.4606L18.0166 20.8254L18.0058 19.9926C18.0043 19.8741 17.9074 19.7789 17.7891 19.7804C17.6708 19.7819 17.5759 19.8792 17.5772 19.9976L17.5976 21.6098L19.4919 21.7345C19.61 21.7422 19.7121 21.6528 19.72 21.5347C19.7278 21.4165 19.6383 21.3144 19.5202 21.3066L18.2411 21.2222L18.5596 20.8902C19.7514 19.6459 20.9782 18.9321 22.1884 18.6034C23.5986 18.2204 25.005 18.3531 26.3334 18.8012C28.9987 19.7003 31.324 21.8612 32.6484 23.5865C32.7115 23.6687 32.8228 23.6928 32.9126 23.6492L32.9496 23.6263Z" fill="#B068CD"/>
<g filter="url(#filter1_d_40002059_81424)">
<path d="M10.5712 9.94187C19.4124 10.1486 36.836 14.857 44.914 18.4682L44.911 18.478C46.3161 19.1054 45.5229 21.1304 43.9687 20.8833C41.1829 20.4424 34.5469 17.989 32.1405 18.7651C31.768 18.8891 30.8996 19.4581 30.7997 19.8344L29.164 27.2075L29.1708 27.2094C29.2552 31.8184 29.3949 41.5267 29.1581 45.4526C29.0317 47.5935 25.4174 47.6198 25.2382 45.4106C24.9341 41.6257 25.1216 30.2453 25.123 30.1645H24.6493C24.6337 30.4424 24.7173 45.0023 24.6386 45.2837C24.2019 47.7036 20.8037 47.5883 20.5878 45.0581C20.3353 38.3662 20.8548 32.1448 20.7128 25.4214L20.7245 25.4233L22.5653 17.9575C22.6722 17.5287 22.2876 16.6579 21.998 16.3198C20.9372 15.0735 17.5494 14.3084 15.9403 13.8686C14.1947 13.3894 12.0712 13.0762 10.411 12.4936C9.02049 12.0052 9.12712 9.90679 10.5712 9.94187Z" fill="url(#paint0_linear_40002059_81424)"/>
</g>
<g filter="url(#filter2_d_40002059_81424)">
<path d="M29.5575 12.3862C34.0872 12.0284 33.5453 4.80516 28.6106 5.57325C24.6649 6.18878 25.1647 12.7334 29.5575 12.3862Z" fill="#ECD9F3"/>
</g>
<path d="M17.2906 23.026C17.1465 22.8381 17.1818 22.5687 17.3697 22.4245C17.5576 22.2802 17.8273 22.3156 17.9716 22.5036C19.2813 24.2098 21.5744 26.3357 24.1849 27.2163C25.4817 27.6537 26.8441 27.7799 28.2053 27.4102C29.3731 27.0929 30.567 26.4023 31.7355 25.1823L30.9157 25.1284C30.6793 25.1129 30.5003 24.9086 30.5158 24.6722C30.5314 24.4358 30.7356 24.2567 30.972 24.2722L33.0647 24.4095L33.0871 26.2204C33.09 26.4573 32.9003 26.6519 32.6634 26.6548C32.4265 26.6576 32.2323 26.468 32.2293 26.2311L32.2252 25.9108C31.0037 27.146 29.7235 27.8871 28.4302 28.2384C26.8725 28.6614 25.3335 28.5093 23.9104 28.0292C21.0807 27.0746 18.659 24.8088 17.2906 23.026Z" fill="#ECD9F3"/>
<path d="M17.1198 23.1567C16.9036 22.8749 16.9565 22.4708 17.2382 22.2544C17.5201 22.038 17.9245 22.091 18.1409 22.3728C19.4359 24.0599 21.6972 26.1508 24.2529 27.0129C25.518 27.4397 26.8362 27.5596 28.1481 27.2033C29.1646 26.9272 30.2096 26.3547 31.2463 25.3656L30.901 25.3426C30.5463 25.3193 30.2776 25.0127 30.3009 24.6581C30.3242 24.3037 30.6307 24.0348 30.9853 24.058L33.2762 24.2084L33.3011 26.2179C33.3054 26.5731 33.0208 26.8651 32.6655 26.8695C32.3646 26.8731 32.1097 26.6693 32.0359 26.3913C30.8933 27.4547 29.6989 28.1161 28.4858 28.4456C26.879 28.882 25.2959 28.7233 23.8413 28.2326C20.9568 27.2595 18.5029 24.9586 17.1198 23.1567ZM17.4997 22.5945C17.4058 22.6666 17.3883 22.8013 17.4603 22.8953L17.4599 22.8956C18.8136 24.6593 21.2035 26.8898 23.9784 27.8259C25.3699 28.2953 26.8646 28.4411 28.3731 28.0315C29.6255 27.6913 30.8738 26.9719 32.0721 25.7602L32.4326 25.3954L32.4434 26.2282C32.4449 26.3467 32.5419 26.4419 32.6601 26.4405C32.7784 26.439 32.8733 26.3417 32.872 26.2232L32.8517 24.611L30.9573 24.4863C30.8392 24.4786 30.7371 24.568 30.7292 24.6861C30.7215 24.8044 30.8109 24.9064 30.929 24.9142L32.2081 24.9986L31.8896 25.3307C30.6978 26.5749 29.471 27.2887 28.2608 27.6174C26.8507 28.0004 25.4442 27.8677 24.1158 27.4196C21.4506 26.5205 19.1252 24.3596 17.8008 22.6343C17.7377 22.5521 17.6264 22.528 17.5366 22.5716L17.4997 22.5945Z" fill="#B068CD"/>
<defs>
<filter id="filter0_i_40002059_81424" x="0.0976562" y="0" width="52" height="76" filterUnits="userSpaceOnUse" color-interpolation-filters="sRGB">
<feFlood flood-opacity="0" result="BackgroundImageFix"/>
<feBlend mode="normal" in="SourceGraphic" in2="BackgroundImageFix" result="shape"/>
<feColorMatrix in="SourceAlpha" type="matrix" values="0 0 0 0 0 0 0 0 0 0 0 0 0 0 0 0 0 0 127 0" result="hardAlpha"/>
<feOffset dy="24"/>
<feGaussianBlur stdDeviation="12"/>
<feComposite in2="hardAlpha" operator="arithmetic" k2="-1" k3="1"/>
<feColorMatrix type="matrix" values="0 0 0 0 1 0 0 0 0 1 0 0 0 0 1 0 0 0 0.46 0"/>
<feBlend mode="normal" in2="shape" result="effect1_innerShadow_40002059_81424"/>
</filter>
<filter id="filter1_d_40002059_81424" x="5.42578" y="9.94144" width="44.2148" height="45.1215" filterUnits="userSpaceOnUse" color-interpolation-filters="sRGB">
<feFlood flood-opacity="0" result="BackgroundImageFix"/>
<feColorMatrix in="SourceAlpha" type="matrix" values="0 0 0 0 0 0 0 0 0 0 0 0 0 0 0 0 0 0 127 0" result="hardAlpha"/>
<feOffset dy="4"/>
<feGaussianBlur stdDeviation="2"/>
<feComposite in2="hardAlpha" operator="out"/>
<feColorMatrix type="matrix" values="0 0 0 0 0 0 0 0 0 0 0 0 0 0 0 0 0 0 0.25 0"/>
<feBlend mode="normal" in2="BackgroundImageFix" result="effect1_dropShadow_40002059_81424"/>
<feBlend mode="normal" in="SourceGraphic" in2="effect1_dropShadow_40002059_81424" result="shape"/>
</filter>
<filter id="filter2_d_40002059_81424" x="21.9336" y="5.51611" width="14.7227" height="14.8834" filterUnits="userSpaceOnUse" color-interpolation-filters="sRGB">
<feFlood flood-opacity="0" result="BackgroundImageFix"/>
<feColorMatrix in="SourceAlpha" type="matrix" values="0 0 0 0 0 0 0 0 0 0 0 0 0 0 0 0 0 0 127 0" result="hardAlpha"/>
<feOffset dy="4"/>
<feGaussianBlur stdDeviation="2"/>
<feComposite in2="hardAlpha" operator="out"/>
<feColorMatrix type="matrix" values="0 0 0 0 0 0 0 0 0 0 0 0 0 0 0 0 0 0 0.18 0"/>
<feBlend mode="normal" in2="BackgroundImageFix" result="effect1_dropShadow_40002059_81424"/>
<feBlend mode="normal" in="SourceGraphic" in2="effect1_dropShadow_40002059_81424" result="shape"/>
</filter>
<linearGradient id="paint0_linear_40002059_81424" x1="27.5333" y1="2.71457" x2="27.5333" y2="47.0629" gradientUnits="userSpaceOnUse">
<stop stop-color="white"/>
<stop offset="1" stop-color="#D8B3E6"/>
</linearGradient>
</defs>
</svg>
