<svg width="52" height="54" viewBox="0 0 52 54" fill="none" xmlns="http://www.w3.org/2000/svg">
<g filter="url(#filter0_i_40003151_1150)">
<rect width="52" height="52" rx="8" fill="#D6337C"/>
</g>
<g filter="url(#filter1_d_40003151_1150)">
<path d="M41.8244 17.8507C41.8253 18.0619 41.6549 18.234 41.4437 18.2351C41.2323 18.2361 41.06 18.0654 41.059 17.8541C41.0498 15.936 40.5687 13.1892 39.1904 11.1553C38.5057 10.1449 37.6064 9.32016 36.4405 8.84817C35.4402 8.44324 34.2198 8.28938 32.7318 8.52503L33.2848 9.00564C33.4443 9.14424 33.4611 9.38591 33.3225 9.54542C33.1839 9.70483 32.9422 9.72177 32.7828 9.58321L31.3711 8.35647L32.3323 7.05865C32.4581 6.88885 32.6978 6.85308 32.8676 6.97886C33.0373 7.10465 33.0728 7.34412 32.9471 7.51389L32.7772 7.74349C34.311 7.5256 35.6199 7.69031 36.7277 8.13876C38.062 8.67892 39.0726 9.61739 39.824 10.7262C41.3181 12.9309 41.8148 15.8464 41.8244 17.8507Z" fill="#F7D6E5"/>
<path d="M42.0156 17.8497C42.017 18.1664 41.7615 18.4248 41.4447 18.4264C41.1278 18.428 40.8693 18.1721 40.8676 17.8552C40.8585 15.9586 40.3812 13.2538 39.0319 11.2626C38.3639 10.2769 37.4926 9.48045 36.3689 9.02548C35.4982 8.67302 34.4473 8.51564 33.1775 8.65849L33.4102 8.86114C33.6495 9.06909 33.6749 9.43175 33.467 9.67096C33.2591 9.91004 32.8964 9.93553 32.6572 9.72776L31.1118 8.38477L32.1785 6.94454C32.3671 6.69001 32.7267 6.63626 32.9814 6.82486C33.1969 6.98469 33.268 7.26695 33.1703 7.50415C34.5554 7.3657 35.7604 7.5406 36.7995 7.96124C38.1759 8.51842 39.2142 9.48537 39.9823 10.6187C41.5052 12.8661 42.0059 15.8239 42.0156 17.8497ZM41.4426 18.0439C41.5481 18.0433 41.6332 17.9571 41.6328 17.8515L41.6333 17.8515C41.6238 15.8688 41.1305 12.9955 39.6655 10.8335C38.9308 9.74935 37.9482 8.8392 36.6561 8.31607C35.5832 7.8818 34.3087 7.71897 32.8041 7.9327L32.3513 7.99717L32.793 7.40005C32.8558 7.31509 32.8384 7.1952 32.7537 7.1324C32.6689 7.06963 32.5489 7.08749 32.486 7.1723L31.6305 8.32796L32.9082 9.43871C32.9879 9.50794 33.1087 9.49954 33.178 9.41995C33.2473 9.34018 33.2388 9.21946 33.1592 9.15019L32.2966 8.40009L32.7019 8.33615C34.2195 8.09582 35.4757 8.25101 36.5123 8.67065C37.7203 9.15965 38.6473 10.0128 39.3487 11.0478C40.7559 13.1243 41.2409 15.9134 41.2502 17.8531C41.2507 17.9455 41.3167 18.0227 41.404 18.0402L41.4426 18.0439Z" fill="#F7D6E5"/>
<path d="M10.3726 17.9413C10.5442 17.7616 10.8779 17.6711 11.118 17.7392C11.3581 17.8074 11.4138 18.0088 11.2423 18.1886C9.68491 19.8209 7.98463 22.3113 7.88322 24.4895C7.83287 25.5715 8.17725 26.5661 9.11192 27.3481C9.91386 28.0191 11.1703 28.5488 13.0481 28.8351L12.8146 28.2461C12.7473 28.0762 12.9257 27.8654 13.213 27.7753C13.5003 27.6852 13.7878 27.7498 13.8552 27.9197L14.4513 29.4232L12.302 30.2113C12.0208 30.3144 11.72 30.2664 11.6305 30.104C11.5411 29.9417 11.6966 29.7267 11.9778 29.6236L12.3578 29.4841C10.4427 29.1677 9.09495 28.5999 8.20683 27.8568C7.13717 26.9618 6.75968 25.8342 6.81496 24.6468C6.92493 22.2856 8.74531 19.6468 10.3726 17.9413Z" fill="#F7D6E5"/>
<path d="M10.1551 17.8796C10.4124 17.6101 10.913 17.4742 11.2731 17.5763C11.6332 17.6786 11.7169 17.9805 11.4597 18.2502C9.91988 19.8641 8.24969 22.3177 8.15041 24.4501C8.10131 25.5058 8.43707 26.4671 9.33789 27.2209C10.0359 27.805 11.0974 28.2822 12.6523 28.576L12.5543 28.3278C12.4533 28.0729 12.721 27.7566 13.1519 27.6214C13.5827 27.4863 14.0143 27.5832 14.1155 27.8379L14.768 29.4838L12.3828 30.3585C11.9612 30.513 11.51 30.4411 11.3757 30.1976C11.2622 29.9914 11.4124 29.7284 11.7169 29.5589C10.0351 29.2236 8.81336 28.6811 7.9803 27.9841C6.87696 27.0608 6.49134 25.9001 6.54782 24.6863C6.65991 22.2795 8.51032 19.6034 10.1551 17.8796ZM10.9628 17.902C10.8428 17.8679 10.676 17.9133 10.5902 18.0032L10.5896 18.003C8.97977 19.6902 7.18999 22.2921 7.08216 24.6074C7.02811 25.7685 7.39702 26.8628 8.4328 27.7296C9.29287 28.4492 10.6032 29.0042 12.4819 29.3146L13.0475 29.4079L12.0591 29.7706C11.9186 29.8223 11.8403 29.9298 11.885 30.0108C11.9297 30.0919 12.0801 30.1159 12.2207 30.0645L14.1342 29.3625L13.5949 28.0013C13.5613 27.9165 13.4177 27.8841 13.2741 27.9291C13.1304 27.9742 13.0413 28.0795 13.0748 28.1643L13.4388 29.0835L12.9275 29.0053C11.0123 28.7133 9.71645 28.1708 8.88539 27.4754C7.91707 26.6652 7.56453 25.6374 7.61607 24.529C7.71961 22.3051 9.44992 19.7775 11.0247 18.1269C11.0998 18.0483 11.088 17.9611 11.0035 17.9177L10.9628 17.902Z" fill="#F7D6E5"/>
<path d="M25.861 11.7294C27.0145 11.5519 30.0296 11.7577 30.2594 12.1152C31.2676 12.1991 32.2225 12.6485 32.8991 13.5585C33.1344 13.8765 33.3217 14.2256 33.4879 14.4345C33.6248 14.61 33.658 14.3945 33.8747 14.6562C34.6743 15.6105 34.346 16.1244 34.4391 17.0761C34.4747 17.4272 34.8806 18.1633 34.8971 18.4843C35.1008 21.931 32.2548 23.6997 29.2233 22.078C28.8753 21.8907 28.3892 21.204 28.071 21.0234C27.1933 20.5092 26.6027 20.7302 26.1598 19.414C25.9608 18.8181 26.4257 19.5257 25.7047 18.2665C24.9207 16.8968 25.141 15.2147 26.0563 13.9843C25.7468 14.2111 25.4947 14.3932 25.2008 14.4765C24.3178 14.7268 23.8 14.7667 23.1139 15.4062C22.4276 16.0459 19.3236 20.485 18.6061 21.0849C18.0588 21.5425 17.766 21.8187 17.5426 22.1454C17.4012 22.3523 17.3139 22.637 17.5016 22.8027C18.2733 23.4811 21.7515 23.5698 23.8893 23.6015C26.3355 23.6377 35.2743 22.8414 38.3747 23.8163C41.475 24.7914 43.3976 28.6182 43.5749 34.4677C43.7521 40.3169 43.1911 43.8884 41.4137 44.6249C39.6361 45.3611 38.0378 44.6249 38.0378 44.6249C38.0433 44.6082 39.5914 39.9784 40.0885 37.7988C40.5865 35.6152 40.4343 35.514 40.0885 34.2099C39.7426 32.9053 38.598 28.1601 38.6676 29.6396C38.7375 31.1199 39.3207 33.6593 39.4782 35.5644C39.6351 37.4666 38.0437 44.5985 38.0378 44.6249C37.9751 44.6308 25.1739 45.8205 23.404 44.6249C21.63 43.4262 26.0764 31.2125 23.8893 29.8925C21.7017 28.5733 21.7818 29.1696 19.3288 28.457C16.8755 27.7442 15.245 26.4409 13.5348 24.9208C11.8246 23.4008 13.4694 21.2147 15.0299 19.6542C16.5904 18.0937 19.9088 14.8615 21.5202 13.873C23.1316 12.8845 24.3269 11.9657 25.861 11.7294Z" fill="url(#paint0_linear_40003151_1150)"/>
</g>
<defs>
<filter id="filter0_i_40003151_1150" x="0" y="0" width="52" height="76" filterUnits="userSpaceOnUse" color-interpolation-filters="sRGB">
<feFlood flood-opacity="0" result="BackgroundImageFix"/>
<feBlend mode="normal" in="SourceGraphic" in2="BackgroundImageFix" result="shape"/>
<feColorMatrix in="SourceAlpha" type="matrix" values="0 0 0 0 0 0 0 0 0 0 0 0 0 0 0 0 0 0 127 0" result="hardAlpha"/>
<feOffset dy="24"/>
<feGaussianBlur stdDeviation="12"/>
<feComposite in2="hardAlpha" operator="arithmetic" k2="-1" k3="1"/>
<feColorMatrix type="matrix" values="0 0 0 0 1 0 0 0 0 1 0 0 0 0 1 0 0 0 0.46 0"/>
<feBlend mode="normal" in2="shape" result="effect1_innerShadow_40003151_1150"/>
</filter>
<filter id="filter1_d_40003151_1150" x="2.54248" y="6.7122" width="45.0635" height="46.4454" filterUnits="userSpaceOnUse" color-interpolation-filters="sRGB">
<feFlood flood-opacity="0" result="BackgroundImageFix"/>
<feColorMatrix in="SourceAlpha" type="matrix" values="0 0 0 0 0 0 0 0 0 0 0 0 0 0 0 0 0 0 127 0" result="hardAlpha"/>
<feOffset dy="4"/>
<feGaussianBlur stdDeviation="2"/>
<feComposite in2="hardAlpha" operator="out"/>
<feColorMatrix type="matrix" values="0 0 0 0 0 0 0 0 0 0 0 0 0 0 0 0 0 0 0.25 0"/>
<feBlend mode="normal" in2="BackgroundImageFix" result="effect1_dropShadow_40003151_1150"/>
<feBlend mode="normal" in="SourceGraphic" in2="effect1_dropShadow_40003151_1150" result="shape"/>
</filter>
<linearGradient id="paint0_linear_40003151_1150" x1="28.2073" y1="11.5058" x2="28.2073" y2="45.157" gradientUnits="userSpaceOnUse">
<stop stop-color="white"/>
<stop offset="1" stop-color="#EFADCB"/>
</linearGradient>
</defs>
</svg>
