<svg width="24" height="24" viewBox="0 0 24 24" fill="none" xmlns="http://www.w3.org/2000/svg">
<g id="Icons/Close">
<path id="Vector (Stroke)" d="M17.2929 5.29295C17.6834 4.90243 18.3164 4.90243 18.707 5.29295C19.0975 5.68348 19.0975 6.31649 18.707 6.70702L13.414 12L18.707 17.293L18.7753 17.3691C19.0957 17.7619 19.0731 18.3409 18.707 18.707C18.3408 19.0731 17.7618 19.0957 17.3691 18.7754L17.2929 18.707L11.9999 13.414L6.70696 18.707C6.31643 19.0975 5.68342 19.0975 5.29289 18.707C4.90237 18.3165 4.90237 17.6835 5.29289 17.293L10.5859 12L5.29289 6.70702L5.22453 6.63084C4.90418 6.23807 4.92678 5.65907 5.29289 5.29295C5.65901 4.92684 6.23801 4.90424 6.63078 5.22459L6.70696 5.29295L11.9999 10.5859L17.2929 5.29295Z" fill="#040308"/>
</g>
</svg>
