<svg width="52" height="53" viewBox="0 0 52 53" fill="none" xmlns="http://www.w3.org/2000/svg">
<g filter="url(#filter0_i_40003151_1182)">
<rect width="52" height="52" rx="8" fill="#00B3BD"/>
</g>
<path d="M35.7704 41.2418C35.7087 41.5935 35.3735 41.8288 35.0218 41.7673C34.6699 41.7057 34.4343 41.3701 34.4959 41.0182C35.0553 37.824 35.0779 33.1097 33.3941 29.3128C32.5576 27.4265 31.3084 25.7849 29.51 24.6503C27.9669 23.6769 25.9825 23.0552 23.4362 23.0015L24.2122 23.9668C24.4361 24.2452 24.3918 24.6523 24.1134 24.8762C23.835 25.0999 23.4278 25.0557 23.204 24.7773L21.2227 22.3133L23.2108 20.442C23.471 20.1972 23.8805 20.2095 24.1254 20.4696C24.3701 20.7298 24.3574 21.1388 24.0974 21.3836L23.7459 21.7148C26.3632 21.8118 28.4915 22.478 30.2004 23.556C32.2586 24.8545 33.6588 26.7187 34.5768 28.7887C36.402 32.9045 36.355 37.9042 35.7704 41.2418Z" fill="#EBF7F7"/>
<path d="M36.0891 41.2974C35.9965 41.8249 35.4939 42.1782 34.9663 42.086C34.4386 41.9936 34.0851 41.4905 34.1773 40.9627C34.7305 37.8044 34.7467 33.1611 33.0982 29.4439C32.2821 27.6037 31.0712 26.0176 29.3378 24.9239C27.9947 24.0766 26.2934 23.4999 24.1378 23.3571L24.4644 23.764C24.8003 24.1817 24.7338 24.7927 24.3163 25.1284C23.8988 25.4639 23.2877 25.3977 22.9519 24.9803L20.7831 22.2828L22.9892 20.2061C23.3794 19.8392 23.9938 19.8575 24.361 20.2476C24.6717 20.5781 24.7054 21.069 24.4718 21.4344C26.8178 21.619 28.7703 22.271 30.3732 23.2822C32.4962 24.6217 33.9341 26.5416 34.8724 28.6573C36.7329 32.8528 36.6799 37.9241 36.0891 41.2974ZM35.0774 41.4488C35.2532 41.4796 35.4206 41.3617 35.4515 41.1858L35.4524 41.186C36.0307 37.8843 36.0708 32.9559 34.281 28.9198C33.3834 26.8958 32.0213 25.0872 30.0282 23.8296C28.3733 22.7857 26.3016 22.1329 23.7342 22.0377L22.9614 22.0093L23.8753 21.1481C24.0052 21.0256 24.0121 20.8209 23.89 20.691C23.7677 20.5612 23.5628 20.555 23.4327 20.6772L21.663 22.3437L23.4561 24.5746C23.568 24.7137 23.7714 24.7359 23.9106 24.6242C24.0498 24.5122 24.0719 24.3089 23.9602 24.1698L22.7496 22.6633L23.4431 22.6783C26.0402 22.7332 28.0837 23.3677 29.6828 24.3765C31.546 25.552 32.8328 27.2493 33.6897 29.1814C35.4088 33.058 35.3802 37.8438 34.8145 41.0738C34.7876 41.2277 34.8743 41.3759 35.0143 41.4311L35.0774 41.4488Z" fill="#00B3BD"/>
<g filter="url(#filter1_d_40003151_1182)">
<path d="M39.5991 12.8953C32.4783 18.7713 28.9916 28.3101 28.0548 30.3411C27.9827 30.4976 28.1058 30.7782 28.2743 30.8142L33.0929 31.8455C33.2046 31.8694 33.3131 31.7987 33.3323 31.6861C33.5659 30.3148 34.9624 22.3748 36.5063 19.1983C37.4059 17.3473 38.9471 15.1633 40.1937 13.5232C40.5383 13.0699 40.0383 12.5329 39.5991 12.8953Z" fill="url(#paint0_linear_40003151_1182)"/>
<path d="M39.4835 9.59458C38.0064 9.78471 31.582 21.1265 29.0618 25.3625C28.9393 25.5684 29.1703 25.7364 29.3333 25.5607L35.2685 19.1646L35.2704 19.1625C35.2781 19.1543 35.282 19.1501 35.2883 19.1397C35.5058 18.7841 41.2479 9.36748 39.4835 9.59458Z" fill="black"/>
<path d="M39.4835 9.59458C38.0064 9.78471 31.582 21.1265 29.0618 25.3625C28.9393 25.5684 29.1703 25.7364 29.3333 25.5607L35.2685 19.1646L35.2704 19.1625C35.2781 19.1543 35.282 19.1501 35.2883 19.1397C35.5058 18.7841 41.2479 9.36748 39.4835 9.59458Z" fill="url(#paint1_linear_40003151_1182)"/>
<path d="M39.1617 6.07166C38.3413 4.87566 30.6345 22.1289 30.2016 22.5182L33.8671 24.8985C33.8671 24.8985 34.9103 17.5655 36.3319 14.1253C37.7535 10.685 39.9821 7.26766 39.1617 6.07166Z" fill="black"/>
<path d="M39.1617 6.07166C38.3413 4.87566 30.6345 22.1289 30.2016 22.5182L33.8671 24.8985C33.8671 24.8985 34.9103 17.5655 36.3319 14.1253C37.7535 10.685 39.9821 7.26766 39.1617 6.07166Z" fill="url(#paint2_linear_40003151_1182)"/>
<path d="M36.7912 6.20807C37.1627 5.87812 37.5857 6.26476 37.3713 6.71295C36.4581 8.62151 35.0899 12.0575 35.3098 15.1329C35.6354 19.6889 34.8454 19.4078 35.0832 22.2608C35.245 24.2013 35.8923 26.1964 36.2863 28.3751C36.6798 28.9292 37.1008 29.4593 37.4348 29.7227C38.31 30.4129 38.9942 29.9614 40.4484 29.7227C41.9031 29.4841 42.7907 29.7245 43.4562 29.8731C44.1217 30.0217 44.537 30.0936 45.0881 30.4952C45.6391 30.8966 45.9106 30.825 46.4514 31.4825C46.9919 32.1398 46.8918 32.1531 46.632 32.8497C46.3718 33.5457 44.8894 32.8569 43.5842 32.8497C42.2789 32.8424 41.3276 32.6705 40.1447 33.334C38.9939 33.9797 36.0763 35.0355 35.1525 35.9532C33.8047 37.6826 29.5169 35.8795 26.0812 36.3419C22.5016 36.8236 20.2452 38.0814 14.0588 39.0596C10.1013 39.6854 7.56441 40.018 6.25018 40.1768C5.66415 40.2476 5.15759 39.7895 5.15741 39.1993V28.2462C5.15741 27.4574 5.40222 27.2249 6.16718 27.4171C6.83938 27.5859 7.86786 27.7458 9.42303 27.8682C15.2389 28.3259 13.8092 28.6251 18.3146 28.6251C22.8196 28.625 23.024 28.4332 25.1545 27.502C27.2848 26.5709 28.0455 25.8879 29.592 21.9883C31.1386 18.0881 31.0276 19.2736 32.7326 13.1631C33.7724 9.43687 35.5568 7.30461 36.7912 6.20807Z" fill="url(#paint3_linear_40003151_1182)"/>
<path d="M17.9961 23.6137C18.0579 23.2621 18.3931 23.0267 18.7448 23.0882C19.0967 23.1498 19.3323 23.4855 19.2707 23.8374C18.7113 27.0315 18.6887 31.7458 20.3725 35.5428C21.209 37.429 22.4581 39.0706 24.2566 40.2052C25.7996 41.1787 27.784 41.8003 30.3304 41.8541L29.5543 40.8887C29.3305 40.6104 29.3748 40.2032 29.6532 39.9793C29.9316 39.7556 30.3388 39.7999 30.5626 40.0782L32.5438 42.5422L30.5557 44.4135C30.2956 44.6584 29.886 44.646 29.6412 44.3859C29.3965 44.1258 29.4091 43.7167 29.6692 43.4719L30.0206 43.1408C27.4034 43.0438 25.275 42.3776 23.5662 41.2995C21.508 40.001 20.1077 38.1368 19.1898 36.0668C17.3646 31.951 17.4116 26.9513 17.9961 23.6137Z" fill="#EBF7F7"/>
<path d="M17.6775 23.5581C17.7701 23.0307 18.2727 22.6774 18.8003 22.7695C19.328 22.8619 19.6814 23.3651 19.5892 23.8928C19.0361 27.0511 19.0199 31.6945 20.6683 35.4117C21.4844 37.2518 22.6954 38.8379 24.4288 39.9316C25.7719 40.7789 27.4731 41.3556 29.6287 41.4984L29.3022 41.0915C28.9663 40.6738 29.0328 40.0628 29.4503 39.7271C29.8678 39.3916 30.4789 39.4579 30.8147 39.8752L32.9835 42.5727L30.7773 44.6494C30.3872 45.0164 29.7728 44.9981 29.4055 44.608C29.0949 44.2774 29.0612 43.7865 29.2947 43.4211C26.9487 43.2365 24.9963 42.5845 23.3934 41.5733C21.2703 40.2339 19.8325 38.314 18.8942 36.1982C17.0336 32.0027 17.0867 26.9315 17.6775 23.5581ZM18.6892 23.4067C18.5134 23.376 18.3459 23.4938 18.315 23.6697L18.3142 23.6696C17.7359 26.9713 17.6958 31.8997 19.4856 35.9358C20.3832 37.9597 21.7453 39.7684 23.7384 41.0259C25.3932 42.0699 27.465 42.7226 30.0324 42.8178L30.8052 42.8463L29.8913 43.7074C29.7613 43.8299 29.7544 44.0346 29.8766 44.1645C29.9989 44.2943 30.2037 44.3005 30.3339 44.1783L32.1035 42.5118L30.3104 40.2809C30.1986 40.1419 29.9952 40.1197 29.856 40.2313C29.7168 40.3433 29.6947 40.5467 29.8064 40.6858L31.0169 42.1923L30.3234 42.1772C27.7264 42.1224 25.6828 41.4878 24.0838 40.479C22.2205 39.3035 20.9338 37.6062 20.0769 35.6742C18.3577 31.7975 18.3864 27.0117 18.9521 23.7817C18.979 23.6278 18.8922 23.4797 18.7523 23.4244L18.6892 23.4067Z" fill="#00B3BD"/>
</g>
<defs>
<filter id="filter0_i_40003151_1182" x="0" y="0" width="52" height="76" filterUnits="userSpaceOnUse" color-interpolation-filters="sRGB">
<feFlood flood-opacity="0" result="BackgroundImageFix"/>
<feBlend mode="normal" in="SourceGraphic" in2="BackgroundImageFix" result="shape"/>
<feColorMatrix in="SourceAlpha" type="matrix" values="0 0 0 0 0 0 0 0 0 0 0 0 0 0 0 0 0 0 127 0" result="hardAlpha"/>
<feOffset dy="24"/>
<feGaussianBlur stdDeviation="12"/>
<feComposite in2="hardAlpha" operator="arithmetic" k2="-1" k3="1"/>
<feColorMatrix type="matrix" values="0 0 0 0 1 0 0 0 0 1 0 0 0 0 1 0 0 0 0.46 0"/>
<feBlend mode="normal" in2="shape" result="effect1_innerShadow_40003151_1182"/>
</filter>
<filter id="filter1_d_40003151_1182" x="1.15741" y="6.01224" width="49.6852" height="46.9008" filterUnits="userSpaceOnUse" color-interpolation-filters="sRGB">
<feFlood flood-opacity="0" result="BackgroundImageFix"/>
<feColorMatrix in="SourceAlpha" type="matrix" values="0 0 0 0 0 0 0 0 0 0 0 0 0 0 0 0 0 0 127 0" result="hardAlpha"/>
<feOffset dy="4"/>
<feGaussianBlur stdDeviation="2"/>
<feComposite in2="hardAlpha" operator="out"/>
<feColorMatrix type="matrix" values="0 0 0 0 0 0 0 0 0 0 0 0 0 0 0 0 0 0 0.25 0"/>
<feBlend mode="normal" in2="BackgroundImageFix" result="effect1_dropShadow_40003151_1182"/>
<feBlend mode="normal" in="SourceGraphic" in2="effect1_dropShadow_40003151_1182" result="shape"/>
</filter>
<linearGradient id="paint0_linear_40003151_1182" x1="39.8233" y1="9.19195" x2="23.0409" y2="16.64" gradientUnits="userSpaceOnUse">
<stop stop-color="white"/>
<stop offset="0.299195" stop-color="#95D5DA"/>
</linearGradient>
<linearGradient id="paint1_linear_40003151_1182" x1="40.5249" y1="6.12418" x2="23.884" y2="12.5598" gradientUnits="userSpaceOnUse">
<stop stop-color="white"/>
<stop offset="0.584047" stop-color="#99D6DB"/>
<stop offset="1" stop-color="#95D5DA"/>
</linearGradient>
<linearGradient id="paint2_linear_40003151_1182" x1="42.4039" y1="-6.14124" x2="22.4923" y2="2.90895" gradientUnits="userSpaceOnUse">
<stop offset="0.391948" stop-color="white"/>
<stop offset="1" stop-color="#95D5DA"/>
</linearGradient>
<linearGradient id="paint3_linear_40003151_1182" x1="43.5748" y1="22.3048" x2="-2.8752" y2="43.7289" gradientUnits="userSpaceOnUse">
<stop stop-color="white"/>
<stop offset="1" stop-color="#95D5DA"/>
</linearGradient>
</defs>
</svg>
