<svg width="53" height="52" viewBox="0 0 53 52" fill="none" xmlns="http://www.w3.org/2000/svg">
<g filter="url(#filter0_i_40002059_81441)">
<rect x="0.0976562" width="52" height="52" rx="8" fill="#2450BE"/>
</g>
<g filter="url(#filter1_d_40002059_81441)">
<path d="M32.2674 32.2824C32.2217 32.3665 32.1164 32.3977 32.0322 32.352C31.9481 32.3063 31.9169 32.2009 31.9626 32.1167C32.3775 31.3527 32.7859 30.1565 32.6822 29.0477C32.6307 28.4969 32.4534 27.973 32.0933 27.531C31.7843 27.1518 31.333 26.8244 30.6905 26.5933L30.8053 26.9049C30.8384 26.9947 30.7924 27.0944 30.7025 27.1276C30.6126 27.1606 30.5129 27.1146 30.4798 27.0248L30.1867 26.2293L30.8518 25.9235C30.9388 25.8835 31.0419 25.9216 31.0819 26.0086C31.1218 26.0957 31.0837 26.1985 30.9967 26.2386L30.8791 26.2927C31.536 26.5409 32.02 26.8919 32.3622 27.3119C32.7744 27.8177 32.971 28.411 33.0275 29.0155C33.1399 30.2174 32.701 31.4841 32.2674 32.2824Z" fill="#DFE6F5"/>
<path d="M32.3455 32.3238C32.2769 32.4499 32.119 32.4968 31.9928 32.4283C31.8666 32.3598 31.8197 32.2017 31.8882 32.0755C32.2985 31.32 32.6992 30.1413 32.5977 29.0558C32.5474 28.5184 32.3751 28.0119 32.028 27.5859C31.759 27.2558 31.3759 26.964 30.8403 26.7436L30.8885 26.8749C30.9382 27.0097 30.8692 27.1593 30.7344 27.209C30.5996 27.2586 30.45 27.1896 30.4003 27.0548L30.0795 26.184L30.8175 25.8447C30.948 25.7847 31.1026 25.8418 31.1626 25.9724C31.2133 26.0829 31.1799 26.2105 31.0894 26.2834C31.6698 26.5307 32.1103 26.8632 32.4313 27.2571C32.8565 27.7788 33.058 28.3896 33.1157 29.0074C33.2303 30.2326 32.7837 31.5169 32.3455 32.3238ZM32.0754 32.2759C32.1175 32.2987 32.1701 32.283 32.193 32.241L32.1932 32.2411C32.6221 31.4514 33.0532 30.2022 32.943 29.0236C32.8878 28.4326 32.696 27.8565 32.2969 27.3667C31.9655 26.9601 31.4947 26.6172 30.8504 26.3738L30.6564 26.3006L30.9622 26.1598C31.0057 26.1397 31.0249 26.0883 31.005 26.0448C30.985 26.0014 30.9335 25.9823 30.89 26.0023L30.2979 26.2747L30.5631 26.9948C30.5796 27.0397 30.6294 27.0627 30.6743 27.0462C30.7193 27.0296 30.7423 26.9798 30.7258 26.9349L30.5468 26.4487L30.7217 26.5117C31.3771 26.7475 31.8422 27.0833 32.1624 27.4762C32.5356 27.9341 32.7176 28.4754 32.7704 29.0396C32.8763 30.1716 32.4603 31.3855 32.0407 32.1581C32.0207 32.1949 32.0301 32.24 32.0609 32.266L32.0754 32.2759Z" fill="#2450BE"/>
<path d="M20.4106 28.3835C20.3746 28.2948 20.4173 28.1937 20.506 28.1576C20.5947 28.1215 20.696 28.1643 20.7321 28.253C21.0593 29.0586 21.7247 30.1332 22.6474 30.7566C23.1058 31.0663 23.6232 31.2617 24.1933 31.2638C24.6824 31.2655 25.2218 31.1245 25.8082 30.7745L25.4945 30.6655C25.404 30.6341 25.3562 30.5353 25.3876 30.4448C25.4191 30.3544 25.5179 30.3065 25.6084 30.3379L26.4091 30.6161L26.2234 31.3242C26.1991 31.4168 26.1043 31.4723 26.0117 31.448C25.9191 31.4237 25.8637 31.3289 25.888 31.2363L25.9208 31.111C25.3122 31.4613 24.7338 31.6126 24.1921 31.6107C23.5396 31.6083 22.9562 31.3838 22.4532 31.044C21.4529 30.3682 20.7525 29.2252 20.4106 28.3835Z" fill="#DFE6F5"/>
<path d="M20.3269 28.4162C20.2729 28.2831 20.3369 28.1313 20.4699 28.0772C20.603 28.0232 20.7549 28.0872 20.809 28.2203C21.1325 29.0168 21.7893 30.0744 22.6927 30.6847C23.1399 30.9868 23.6407 31.1751 24.1902 31.1771C24.6159 31.1786 25.0846 31.0676 25.5948 30.7935L25.4627 30.7474C25.3269 30.7003 25.2552 30.552 25.3023 30.4163C25.3494 30.2807 25.4977 30.2088 25.6334 30.2559L26.51 30.5604L26.304 31.3462C26.2675 31.4851 26.1253 31.5683 25.9864 31.5319C25.8687 31.501 25.7913 31.3942 25.7924 31.278C25.2329 31.5697 24.6965 31.6993 24.1884 31.6974C23.5154 31.695 22.9155 31.4632 22.4013 31.1158C21.3817 30.427 20.6725 29.2669 20.3269 28.4162ZM20.5353 28.2378C20.491 28.2559 20.4697 28.3065 20.4877 28.3508L20.4875 28.3509C20.8257 29.1836 21.5176 30.3094 22.4984 30.972C22.9903 31.3044 23.5571 31.5217 24.1889 31.524C24.7135 31.5258 25.2772 31.3795 25.8742 31.0359L26.0539 30.9325L25.9687 31.2582C25.9565 31.3045 25.9841 31.352 26.0303 31.3641C26.0766 31.3763 26.124 31.3485 26.1362 31.3022L26.3014 30.6718L25.5765 30.4198C25.5313 30.4041 25.482 30.428 25.4662 30.4732C25.4505 30.5184 25.4744 30.5678 25.5196 30.5835L26.009 30.7537L25.8492 30.8489C25.2512 31.2059 24.6965 31.3523 24.1896 31.3505C23.599 31.3484 23.0651 31.1457 22.5956 30.8285C21.6535 30.192 20.9793 29.1002 20.6484 28.2857C20.6326 28.2469 20.5918 28.2255 20.5521 28.2329L20.5353 28.2378Z" fill="#2450BE"/>
<path d="M24.3504 14.7926C32.8136 14.2004 40.4574 18.7042 45.2363 25.409C45.5772 25.8875 45.5712 26.5454 45.2243 27.0179C39.9371 34.237 31.414 38.9382 22.2331 37.2694C16.0726 36.151 10.3487 32.0181 6.73614 26.9521C6.38923 26.4616 6.41316 25.8037 6.76604 25.3193C10.8272 19.709 17.3346 15.283 24.3504 14.7926ZM24.8528 17.1132C21.4556 17.4601 18.4291 20.0739 17.3645 23.2737C14.4936 31.9403 24.8049 39.0398 31.7908 33.1545C38.7229 27.3169 33.8723 16.1981 24.8468 17.1132H24.8528Z" fill="url(#paint0_linear_40002059_81441)"/>
<path d="M24.852 17.1133C33.8774 16.1982 38.7281 27.317 31.796 33.1546C24.8041 39.0399 14.4928 31.9404 17.3696 23.2738C18.4283 20.074 21.4607 17.4602 24.8579 17.1133H24.852ZM24.852 18.5308C24.4572 18.5727 22.328 19.1469 22.2562 19.4759L22.7945 20.5345C23.7215 20.6661 24.4333 20.7678 24.8938 21.6709C26.2515 24.3444 22.2323 25.7739 21.2872 23.3576C21.1138 22.909 21.2334 22.1135 21.1915 22.0477C21.1557 21.9879 20.097 21.2463 20.0193 21.2821C15.3241 27.2213 20.8686 35.7563 28.2612 33.5732C36.838 31.0373 34.649 17.4303 24.852 18.5368V18.5308Z" fill="#2450BE"/>
<g filter="url(#filter2_d_40002059_81441)">
<path d="M24.8513 18.5308C34.6483 17.4243 36.8374 31.0312 28.2605 33.5672C20.8679 35.7503 15.3235 27.2213 20.0186 21.2761C20.0904 21.2402 21.149 21.9819 21.1909 22.0417C21.2328 22.1075 21.1132 22.9089 21.2866 23.3515C22.2316 25.7679 26.2509 24.3384 24.8932 21.6649C24.4327 20.7617 23.7209 20.666 22.7938 20.5285L22.2555 19.4698C22.3333 19.1409 24.4626 18.5727 24.8513 18.5248V18.5308Z" fill="url(#paint1_linear_40002059_81441)"/>
</g>
</g>
<defs>
<filter id="filter0_i_40002059_81441" x="0.0976562" y="0" width="52" height="76" filterUnits="userSpaceOnUse" color-interpolation-filters="sRGB">
<feFlood flood-opacity="0" result="BackgroundImageFix"/>
<feBlend mode="normal" in="SourceGraphic" in2="BackgroundImageFix" result="shape"/>
<feColorMatrix in="SourceAlpha" type="matrix" values="0 0 0 0 0 0 0 0 0 0 0 0 0 0 0 0 0 0 127 0" result="hardAlpha"/>
<feOffset dy="24"/>
<feGaussianBlur stdDeviation="12"/>
<feComposite in2="hardAlpha" operator="arithmetic" k2="-1" k3="1"/>
<feColorMatrix type="matrix" values="0 0 0 0 1 0 0 0 0 1 0 0 0 0 1 0 0 0 0.46 0"/>
<feBlend mode="normal" in2="shape" result="effect1_innerShadow_40002059_81441"/>
</filter>
<filter id="filter1_d_40002059_81441" x="2.48828" y="14.7404" width="47" height="30.8661" filterUnits="userSpaceOnUse" color-interpolation-filters="sRGB">
<feFlood flood-opacity="0" result="BackgroundImageFix"/>
<feColorMatrix in="SourceAlpha" type="matrix" values="0 0 0 0 0 0 0 0 0 0 0 0 0 0 0 0 0 0 127 0" result="hardAlpha"/>
<feOffset dy="4"/>
<feGaussianBlur stdDeviation="2"/>
<feComposite in2="hardAlpha" operator="out"/>
<feColorMatrix type="matrix" values="0 0 0 0 0 0 0 0 0 0 0 0 0 0 0 0 0 0 0.25 0"/>
<feBlend mode="normal" in2="BackgroundImageFix" result="effect1_dropShadow_40002059_81441"/>
<feBlend mode="normal" in="SourceGraphic" in2="effect1_dropShadow_40002059_81441" result="shape"/>
</filter>
<filter id="filter2_d_40002059_81441" x="14.2852" y="18.4669" width="23.3203" height="23.4496" filterUnits="userSpaceOnUse" color-interpolation-filters="sRGB">
<feFlood flood-opacity="0" result="BackgroundImageFix"/>
<feColorMatrix in="SourceAlpha" type="matrix" values="0 0 0 0 0 0 0 0 0 0 0 0 0 0 0 0 0 0 127 0" result="hardAlpha"/>
<feOffset dy="4"/>
<feGaussianBlur stdDeviation="2"/>
<feComposite in2="hardAlpha" operator="out"/>
<feColorMatrix type="matrix" values="0 0 0 0 0 0 0 0 0 0 0 0 0 0 0 0 0 0 0.25 0"/>
<feBlend mode="normal" in2="BackgroundImageFix" result="effect1_dropShadow_40002059_81441"/>
<feBlend mode="normal" in="SourceGraphic" in2="effect1_dropShadow_40002059_81441" result="shape"/>
</filter>
<linearGradient id="paint0_linear_40002059_81441" x1="25.9883" y1="5.62824" x2="25.9883" y2="37.6065" gradientUnits="userSpaceOnUse">
<stop stop-color="white"/>
<stop offset="1" stop-color="#B6C5E9"/>
</linearGradient>
<linearGradient id="paint1_linear_40002059_81441" x1="25.9449" y1="18.4669" x2="25.9449" y2="33.9165" gradientUnits="userSpaceOnUse">
<stop stop-color="white"/>
<stop offset="1" stop-color="#DFE6F5"/>
</linearGradient>
</defs>
</svg>
