<svg width="6" height="12" viewBox="0 0 6 12" fill="none" xmlns="http://www.w3.org/2000/svg">
<path id="Vector (Stroke)" d="M5.13208 0.0452128C5.29013 -0.0469728 5.49311 0.00634551 5.5854 0.164335C5.67769 0.322431 5.62429 0.525682 5.4662 0.617971C4.03113 1.4557 2.17873 3.00637 1.24984 4.92137C0.788408 5.87272 0.55919 6.90462 0.710102 7.98377C0.839602 8.90965 1.25279 9.89187 2.07411 10.9062L2.19515 10.2831C2.23004 10.1034 2.40405 9.98607 2.58375 10.021C2.76338 10.0559 2.88078 10.2299 2.8459 10.4096L2.53703 12L1.14702 11.841C0.96515 11.8202 0.834485 11.6559 0.8553 11.474C0.876159 11.2922 1.04042 11.1618 1.22225 11.1826L1.46809 11.2106C0.640254 10.1542 0.196896 9.10095 0.0534796 8.07558C-0.119226 6.84056 0.147106 5.67588 0.6535 4.63189C1.66042 2.55606 3.63258 0.920539 5.13208 0.0452128Z" fill="#F8D7DA"/>
</svg>
