<svg width="6" height="12" viewBox="0 0 6 12" fill="none" xmlns="http://www.w3.org/2000/svg">
<path id="Vector (Stroke) (Stroke)" d="M5.06748 0.0658967C5.29782 -0.068458 5.59377 0.00911512 5.72834 0.239393C5.86283 0.469786 5.78512 0.76598 5.55477 0.900565C4.17578 1.70556 2.40462 3.19215 1.52085 5.01412C1.08338 5.91608 0.869456 6.88655 1.01078 7.89739C1.12032 8.68059 1.44793 9.51302 2.08661 10.3787L2.13638 10.1237C2.18726 9.8617 2.44101 9.69057 2.7029 9.74141C2.96472 9.79234 3.13598 10.046 3.0852 10.3079L2.75655 12L1.2575 11.8286C0.992519 11.7982 0.801958 11.5586 0.832242 11.2935C0.858064 11.0691 1.03394 10.8985 1.24799 10.8698C0.564001 9.91825 0.184286 8.96608 0.0535514 8.03138C-0.119569 6.79335 0.148352 5.62928 0.651347 4.59225C1.64884 2.53585 3.59458 0.925704 5.06748 0.0658967ZM5.4503 0.401979C5.40547 0.325242 5.3068 0.299453 5.22998 0.344248L5.22976 0.343863C3.78816 1.1854 1.9009 2.75454 0.941312 4.7328C0.460131 5.72483 0.210159 6.82434 0.372653 7.98662C0.507626 8.95161 0.925405 9.9494 1.71459 10.9564L1.95223 11.2595L1.33091 11.1887C1.24253 11.1787 1.16246 11.2419 1.15234 11.3301C1.14227 11.4184 1.20577 11.4983 1.29409 11.5085L2.49681 11.6457L2.7688 10.2466C2.78573 10.1593 2.72878 10.0749 2.64157 10.0578C2.55423 10.0409 2.46978 10.0978 2.45278 10.185L2.26902 11.1297L2.05179 10.8612C1.23772 9.85582 0.822095 8.87462 0.691674 7.94216C0.539739 6.85563 0.771569 5.82061 1.23089 4.87357C2.15255 2.97347 3.98189 1.44579 5.39218 0.622518C5.45936 0.5833 5.48782 0.502661 5.46384 0.431661L5.4503 0.401979Z" fill="#F8D7DA"/>
</svg>
