<svg width="31" height="13" viewBox="0 0 31 13" fill="none" xmlns="http://www.w3.org/2000/svg">
<path id="Vector (Stroke)" d="M30.3252 10.6011C30.6005 10.9522 30.5393 11.4603 30.1884 11.7358C29.8372 12.0114 29.3285 11.9501 29.0529 11.5989C26.5514 8.41132 22.1889 4.45302 17.2537 2.84688C14.802 2.04901 12.233 1.83891 9.6765 2.56279C7.48308 3.1839 5.24801 4.50906 3.0714 6.83076L4.61672 6.91567C5.06241 6.94013 5.4038 7.32138 5.37937 7.76708C5.35478 8.21263 4.97357 8.55415 4.52796 8.52972L0.583239 8.3132L0.504441 4.90259C0.494159 4.45632 0.847641 4.08597 1.29391 4.07569C1.74004 4.06554 2.10969 4.41891 2.12002 4.86506L2.13423 5.46823C4.41025 3.11678 6.80695 1.69509 9.23608 1.00723C12.1619 0.17881 15.0639 0.434347 17.7544 1.30996C23.104 3.05106 27.7115 7.2704 30.3252 10.6011Z" fill="#FFFBEB" stroke="#F59E0B" stroke-linecap="round"/>
</svg>
