<svg width="6" height="12" viewBox="0 0 6 12" fill="none" xmlns="http://www.w3.org/2000/svg">
<path id="Vector (Stroke) (Stroke)" d="M5.06749 0.0658969C5.29784 -0.0684582 5.59378 0.00911515 5.72836 0.239394C5.86285 0.469787 5.78514 0.765982 5.55478 0.900567C4.17579 1.70556 2.40462 3.19216 1.52086 5.01414C1.08339 5.91609 0.869459 6.88657 1.01078 7.89741C1.12032 8.68062 1.44793 9.51304 2.08662 10.3788L2.13639 10.1237C2.18727 9.86173 2.44101 9.69059 2.70291 9.74143C2.96473 9.79236 3.13599 10.0461 3.08521 10.308L2.75656 12L1.2575 11.8286C0.992522 11.7982 0.80196 11.5586 0.832245 11.2935C0.858066 11.0691 1.03394 10.8985 1.24799 10.8699C0.564002 9.91827 0.184286 8.9661 0.0535515 8.0314C-0.119569 6.79337 0.148352 5.6293 0.651349 4.59226C1.64885 2.53585 3.59459 0.925707 5.06749 0.0658969ZM5.45031 0.40198C5.40548 0.325243 5.30681 0.299454 5.22999 0.344249L5.22977 0.343863C3.78817 1.1854 1.90091 2.75455 0.941314 4.73281C0.460132 5.72484 0.210159 6.82436 0.372654 7.98664C0.507627 8.95164 0.925407 9.94943 1.7146 10.9565L1.95223 11.2595L1.33091 11.1888C1.24253 11.1787 1.16247 11.2419 1.15234 11.3301C1.14228 11.4184 1.20577 11.4983 1.2941 11.5085L2.49682 11.6458L2.76881 10.2466C2.78574 10.1594 2.72878 10.0749 2.64158 10.0578C2.55423 10.0409 2.46978 10.0979 2.45279 10.1851L2.26902 11.1298L2.0518 10.8612C1.23773 9.85584 0.822098 8.87464 0.691676 7.94218C0.53974 6.85565 0.771571 5.82062 1.23089 4.87359C2.15255 2.97348 3.9819 1.4458 5.39219 0.622519C5.45938 0.583302 5.48783 0.502662 5.46385 0.431662L5.45031 0.40198Z" fill="#F8D7DA"/>
</svg>
