<svg width="6" height="12" viewBox="0 0 6 12" fill="none" xmlns="http://www.w3.org/2000/svg">
<path id="Vector (Stroke)" d="M5.13208 0.045197C5.29013 -0.0469887 5.49312 0.00632967 5.58541 0.164319C5.6777 0.322415 5.6243 0.525667 5.4662 0.617956C4.03113 1.45569 2.17873 3.00636 1.24985 4.92136C0.788409 5.87271 0.559191 6.90461 0.710103 7.98376C0.839604 8.90964 1.25279 9.89187 2.07411 10.9062L2.19515 10.2831C2.23004 10.1034 2.40405 9.98607 2.58375 10.021C2.76338 10.0559 2.88078 10.2299 2.8459 10.4096L2.53703 12L1.14703 11.841C0.965151 11.8202 0.834487 11.6559 0.855301 11.474C0.87616 11.2922 1.04042 11.1618 1.22225 11.1826L1.46809 11.2106C0.640255 10.1542 0.196897 9.10095 0.0534797 8.07557C-0.119226 6.84056 0.147106 5.67588 0.653501 4.63188C1.66042 2.55605 3.63259 0.920525 5.13208 0.045197Z" fill="#F8D7DA"/>
</svg>
