<svg width="6" height="13" viewBox="0 0 6 13" fill="none" xmlns="http://www.w3.org/2000/svg">
<g id="Group 1">
<path id="Vector (Stroke)" d="M4.01864 12.6602C3.92597 12.8223 3.7193 12.8788 3.55706 12.7862C3.39477 12.6936 3.33823 12.4866 3.43089 12.3243C4.27203 10.8512 5.11822 8.53472 4.96196 6.36753C4.88432 5.2909 4.56025 4.26161 3.87599 3.38456C3.2889 2.63209 2.42223 1.97461 1.17838 1.49711L1.3894 2.10973C1.45027 2.28641 1.35633 2.47897 1.17965 2.53985C1.003 2.60065 0.810396 2.50675 0.749524 2.3301L0.210774 0.766327L1.52083 0.197377C1.69225 0.122945 1.89166 0.201546 1.96609 0.372965C2.04045 0.544353 1.96178 0.743475 1.79041 0.817906L1.55877 0.918632C2.82985 1.42998 3.75947 2.13489 4.40965 2.96822C5.19273 3.97195 5.55176 5.13758 5.63695 6.31906C5.80631 8.66827 4.89755 11.1209 4.01864 12.6602Z" fill="#F8D7DA"/>
<path id="Vector (Stroke) (Stroke)" d="M4.16542 12.7441C4.02643 12.9873 3.71646 13.0721 3.47308 12.9333C3.22972 12.7944 3.14485 12.4841 3.28372 12.2407C4.11542 10.7841 4.9459 8.50138 4.79292 6.37969C4.71716 5.32938 4.40205 4.33415 3.74256 3.48879C3.23154 2.83382 2.49629 2.24861 1.46056 1.7965L1.54923 2.05464C1.64056 2.31972 1.4996 2.60868 1.23465 2.69999C0.969709 2.79117 0.68065 2.65031 0.589301 2.38541L-0.000436405 0.673474L1.45333 0.0420702C1.71035 -0.0694613 2.00953 0.0483775 2.12122 0.305452C2.21559 0.523162 2.14522 0.770767 1.96553 0.909249C3.08759 1.41569 3.93314 2.08246 4.543 2.86412C5.35075 3.89947 5.71842 5.09918 5.80552 6.30679C5.97816 8.70148 5.05376 11.1882 4.16542 12.7441ZM3.64064 12.6394C3.72172 12.6856 3.82503 12.6573 3.87139 12.5762L3.87179 12.5764C4.74125 11.0537 5.63398 8.63492 5.46791 6.33123C5.38461 5.17602 5.03451 4.04446 4.27622 3.07245C3.64658 2.26545 2.74244 1.57717 1.49556 1.07554L1.12022 0.924671L1.7226 0.662685C1.80827 0.62539 1.84792 0.525857 1.8108 0.440288C1.7736 0.354718 1.67387 0.315375 1.58817 0.352494L0.421911 0.859307L0.909355 2.27502C0.939776 2.36328 1.03597 2.41023 1.12426 2.37993C1.21262 2.34948 1.25951 2.25328 1.22917 2.16503L0.900161 1.20908L1.23885 1.33933C2.50747 1.82635 3.40094 2.50067 4.00935 3.28046C4.71825 4.1891 5.05097 5.25246 5.13053 6.35526C5.29007 8.56793 4.42824 10.9185 3.57767 12.4082C3.53715 12.4792 3.55362 12.5675 3.61273 12.6195L3.64064 12.6394Z" fill="#F8D7DA"/>
</g>
</svg>
