<svg width="30" height="45" viewBox="0 0 30 45" fill="none" xmlns="http://www.w3.org/2000/svg">
<path id="Union" d="M21.4624 7.13378C22.0864 7.13394 23.675 7.65279 24.3623 7.84916C25.6334 8.21316 29.0641 9.26539 29.7572 10.3628C30.2189 11.102 29.6707 11.8009 29.0586 12.1937C27.8398 12.9792 26.0429 13.3948 24.6392 13.7299C23.6804 13.9551 22.0631 14.0996 21.2485 14.4403C20.5901 14.7176 20.6009 15.2722 20.4681 15.9075C20.0522 17.8657 19.7981 20.731 20.0464 22.7066C20.2948 24.6821 21.4101 24.4631 22.8774 25.2429C25.6267 26.7043 25.8229 27.9806 25.7074 31.0014C25.6323 33.0117 25.3608 35.3342 25.124 37.3502C25.0662 37.8299 24.708 40.8337 24.5348 40.9665C24.4716 41.0177 24.3353 41.0064 24.2431 41.0118C24.1873 41.1069 24.5776 41.876 24.6569 42.012C24.9982 42.6014 26.6083 44.0919 25.7074 44.6636C25.1749 44.9983 22.7731 45.0096 22.2014 44.7671C21.5431 44.4841 21.7678 44.0916 21.5599 43.6526C21.2942 43.0981 20.9367 43.479 21.0406 42.3411C21.0753 41.9658 21.4505 41.0595 21.422 40.8798C21.4104 40.8163 21.2423 40.8277 21.2249 40.7527C21.1787 40.5736 21.1388 39.684 21.1214 39.4067C20.977 36.5589 21.2717 33.6126 21.081 30.759L15.7778 29.2288L14.4436 29.211L9.15804 30.759L9.0191 40.6778L8.72448 40.9665C9.00175 41.498 9.36004 42.5202 9.19253 43.0979C9.11163 43.3689 8.69084 43.5074 8.64959 43.5768C8.55717 43.7385 8.6498 44.3571 8.40719 44.6055C8.34359 44.669 7.87118 44.8531 7.75487 44.8824C7.02703 45.0383 5.9116 45.0276 5.17221 44.9178C2.83867 44.577 5.95752 42.1502 5.99796 41.07L5.60578 40.8453C5.41515 39.7478 5.26454 38.6437 5.1259 37.5404C4.81973 35.0333 4.22515 30.9035 4.55439 28.5006C4.94142 25.6528 7.60453 25.5195 9.38369 24.2487C9.64917 24.0581 9.77583 23.7633 9.85667 23.4515C10.3014 21.7299 9.892 17.0975 9.38369 15.3242C9.16421 14.5676 9.02476 14.5558 8.30274 14.3536C6.52303 13.8568 1.15193 13.1866 0.193133 11.6271C-0.765349 10.0676 2.09368 9.02844 3.21428 8.601C4.33476 8.1736 7.37236 7.15139 8.38945 7.13378C9.11729 7.11645 10.897 8.21975 11.3475 8.76851C11.6246 9.1035 11.7634 9.51959 12.0117 9.8603C13.658 9.76788 15.3278 9.72738 16.9799 9.77359C17.2397 9.77949 17.5571 9.90599 17.7534 9.88297C18.0249 9.85408 18.0139 9.51322 18.1525 9.29371C18.3372 8.99932 18.5216 8.69894 18.7871 8.46797C19.2146 8.0925 20.9252 7.13956 21.4624 7.13378ZM6.09058 10.1539C7.12457 10.2695 8.18219 10.4547 9.21618 10.2525C9.22761 9.9927 8.95587 9.98109 8.78261 9.75585C8.60933 9.53058 8.43036 9.24719 8.32639 8.98726L6.09058 10.1539ZM21.7511 8.98726C21.4796 8.98726 21.3875 9.37505 21.2604 9.56568L20.6307 10.2525C21.6761 10.4199 22.7099 10.281 23.7553 10.1539C23.512 9.89948 21.977 8.98201 21.7511 8.98726ZM14.4593 0.0282678C16.302 -0.191239 18.3295 0.877463 18.4797 2.8819C18.5028 3.19961 18.4802 3.51756 18.5033 3.73129C18.5207 3.90991 18.6362 3.77739 18.6708 4.04858C18.8037 5.04214 18.3582 5.25014 18.0116 5.93754C17.8845 6.19176 17.844 6.86812 17.717 7.09338C16.371 9.52471 13.6734 9.50184 12.3102 7.09338C12.1543 6.81611 12.1198 6.13935 11.9811 5.8794C11.6057 5.15199 11.1095 5.04761 11.3751 3.96187C11.4964 3.47148 11.5074 4.15229 11.5594 2.98635C11.6287 1.43256 12.9228 0.207304 14.4534 0.0223556L14.4593 0.0282678Z" fill="url(#paint0_linear_0_511)"/>
<defs>
<linearGradient id="paint0_linear_0_511" x1="14.9647" y1="-0.000307929" x2="14.9647" y2="45" gradientUnits="userSpaceOnUse">
<stop stop-color="white"/>
<stop offset="1" stop-color="#A6E9CB"/>
</linearGradient>
</defs>
</svg>
