<svg width="11" height="4" viewBox="0 0 11 4" fill="none" xmlns="http://www.w3.org/2000/svg">
<g id="Group 6">
<path id="Vector (Stroke)" d="M10.7741 2.93499C10.8853 3.04519 10.8862 3.22474 10.776 3.336C10.6658 3.44727 10.486 3.44815 10.3748 3.33794C9.36468 2.33749 7.67301 1.15003 5.88476 0.806447C4.99638 0.635775 4.09286 0.674846 3.23446 1.03852C2.49799 1.35056 1.77776 1.90952 1.12142 2.81286L1.66311 2.77492C1.81934 2.76397 1.95485 2.88178 1.96581 3.03801C1.97671 3.1942 1.85892 3.32975 1.70272 3.34071L0.319965 3.43763L0.143555 2.25372C0.120484 2.09881 0.227366 1.95444 0.382276 1.93137C0.537147 1.90835 0.681273 2.01522 0.704355 2.17009L0.735649 2.37945C1.4253 1.46142 2.19757 0.861789 3.01319 0.516216C3.99557 0.100016 5.01704 0.0622134 5.99193 0.249525C7.93038 0.621987 9.71869 1.88963 10.7741 2.93499Z" fill="#D2F4E5"/>
<path id="Vector (Stroke) (Stroke)" d="M10.874 2.83421C11.0407 2.99948 11.0422 3.26881 10.8771 3.43572C10.7118 3.60258 10.4422 3.60399 10.2753 3.43877C9.27653 2.44955 7.60882 1.28214 5.85811 0.945771C4.99144 0.779277 4.11744 0.818487 3.29006 1.16898C2.64901 1.44059 2.0158 1.90885 1.42516 2.64922L1.65336 2.63343C1.88775 2.617 2.09109 2.79378 2.10754 3.02807C2.12388 3.26232 1.94716 3.46576 1.7129 3.48225L0.199156 3.58831L0.0033602 2.27452C-0.0311755 2.04227 0.129111 1.82564 0.361442 1.79099C0.55815 1.76181 0.743324 1.87249 0.81645 2.04798C1.4698 1.24952 2.19297 0.709672 2.95801 0.385525C3.97134 -0.0437794 5.02227 -0.0811879 6.01873 0.110249C7.99471 0.489923 9.80726 1.77763 10.874 2.83421ZM10.6754 3.23633C10.7305 3.18072 10.7299 3.09094 10.6743 3.03582L10.6746 3.03555C9.63053 2.00141 7.86617 0.754094 5.96528 0.388849C5.01206 0.205708 4.02012 0.243669 3.06879 0.646678C2.27894 0.981332 1.52566 1.56394 0.849129 2.4645L0.64558 2.73562L0.56416 2.19116C0.552554 2.11372 0.480581 2.06003 0.403259 2.07152C0.325922 2.08307 0.27244 2.15527 0.283899 2.2327L0.4412 3.28673L1.69296 3.19922C1.77101 3.19373 1.82988 3.12605 1.82451 3.04801C1.81902 2.96987 1.75132 2.91104 1.6733 2.91646L0.828082 2.97545L1.00698 2.72953C1.6764 1.80821 2.41607 1.2312 3.17929 0.907831C4.06861 0.531062 5.00158 0.492367 5.91156 0.667171C7.73734 1.01797 9.45324 2.22549 10.4747 3.23716C10.5233 3.28535 10.5984 3.29117 10.6533 3.2546L10.6754 3.23633Z" fill="#D2F4E5"/>
</g>
</svg>
