<svg width="28" height="43" viewBox="0 0 28 43" fill="none" xmlns="http://www.w3.org/2000/svg">
<path id="Union" d="M5.06229 6.91724C5.91871 6.79892 8.01475 6.47196 8.75888 6.61831C8.95596 6.65773 9.1197 6.70245 9.27175 6.75312C9.58169 6.85456 9.71764 6.93343 10.0445 7.14193C10.557 7.4743 10.9168 8.21776 10.6189 8.80363C12.516 8.56765 14.4299 8.55133 16.3269 8.80461C16.0847 8.08911 16.5526 7.26679 17.2286 6.99051C18.7106 6.38191 20.3228 6.70288 21.8894 6.91138C23.0052 7.06353 24.7184 7.28868 25.7608 7.60986C27.2031 8.04948 27.4905 9.65537 26.2229 10.4556C23.9125 11.3966 21.3595 11.9321 19.0378 12.7943C18.9138 12.8394 18.6603 12.9242 18.5757 12.9975C18.3336 13.2063 18.1134 14.6419 18.057 15.048C17.2963 20.3338 18.6207 28.7821 18.6207 31.6045C18.6207 34.4268 18.9588 38.3108 18.6207 41.3256C18.3723 43.5285 15.2624 43.5955 14.93 41.3021C14.8454 36.3716 14.6644 31.4412 13.8417 26.5783C13.8191 26.46 13.7745 26.054 13.7069 26.0371L13.2956 26.0537C13.0364 28.1217 12.6254 30.2012 12.4281 32.2805C12.1858 34.8558 12.2641 37.4256 12.1458 40.0009C12.1289 40.4178 12.084 41.3977 11.9826 41.7418C11.4642 43.5394 8.61247 43.3818 8.42087 41.4321C8.10533 38.22 8.33071 33.556 8.42087 31.2323C8.51075 28.9165 9.1887 20.9164 9.1936 20.8586C9.19924 18.2495 9.20993 15.5613 8.52247 13.0424L8.331 12.9467C6.07696 11.9943 3.09022 11.583 0.931962 10.5406C-0.116179 10.0334 -0.341411 8.6694 0.571486 7.95373C1.18015 7.47482 4.14903 7.0469 5.06229 6.91724ZM13.0182 0.0252162C14.6917 -0.172004 16.5288 0.796962 16.6698 2.61693C16.6924 2.90432 16.6705 3.19243 16.6874 3.38966C16.7044 3.55238 16.805 3.43479 16.8388 3.67687C16.9571 4.57828 16.5575 4.76985 16.2419 5.39523C16.1236 5.62627 16.0899 6.24081 15.9772 6.44931C14.7544 8.65809 12.3034 8.63539 11.0692 6.44931C10.9284 6.19572 10.8943 5.58675 10.7703 5.34443C10.4322 4.68522 9.98177 4.58959 10.2184 3.6036C10.3254 3.15842 10.3364 3.7723 10.3815 2.71853C10.4436 1.30415 11.6158 0.194267 13.0133 0.0252162H13.0182Z" fill="url(#paint0_linear_0_802)"/>
<defs>
<linearGradient id="paint0_linear_0_802" x1="13.5136" y1="-0.000183169" x2="13.5136" y2="42.9998" gradientUnits="userSpaceOnUse">
<stop stop-color="white"/>
<stop offset="1" stop-color="#F1AEB5"/>
</linearGradient>
</defs>
</svg>
