<svg width="23" height="39" viewBox="0 0 23 39" fill="none" xmlns="http://www.w3.org/2000/svg">
<path id="Union" d="M7.49997 8.20359C9.54435 7.08728 11.4198 7.01827 12.9813 8.93103C14.1413 10.3546 15.0692 12.2611 16.2794 13.6908C16.5427 13.7535 19.5911 10.3981 20.3499 10.0281C21.6604 9.38872 22.8766 10.8307 21.8862 12.1977C20.538 14.0476 18.5941 15.735 17.2333 17.6163C15.4084 19.2029 14.5489 16.9207 13.3637 15.9173H13.3578L12.097 21.8369L19.0705 25.0918C20.3749 26.1579 20.2871 27.3564 19.7352 28.8114C18.5249 31.9782 16.4933 35.1764 15.145 38.3182C13.8783 39.748 11.727 38.77 11.9902 36.8574L15.0441 28.579C14.9876 28.4599 14.8813 28.4598 14.7872 28.4221C11.8774 27.2808 5.35539 26.9861 4.32057 23.631C3.706 21.643 5.23022 17.8609 5.67547 15.7036C5.7446 15.3704 6.13285 13.3897 6.04508 13.2644L3.5245 14.7134C3.17967 16.7199 3.0856 18.8268 2.74705 20.8271C2.6718 21.2723 2.63409 21.7871 2.38332 22.1633C1.71232 23.1856 0 22.7214 0 21.4859C0.244556 18.852 0.044274 16.0359 0.326469 13.4271C0.395513 12.7813 0.746409 12.3863 1.24803 12.0163C2.82825 10.8436 5.7315 9.1694 7.49997 8.20359ZM11.8529 0.0438111C16.7255 -0.620954 17.2903 6.49169 12.8754 6.99967C8.04061 7.55773 7.55754 0.633603 11.8529 0.0438111Z" fill="url(#paint0_linear_0_848)"/>
<defs>
<linearGradient id="paint0_linear_0_848" x1="11.1243" y1="-4.19408" x2="11.1243" y2="38.9998" gradientUnits="userSpaceOnUse">
<stop stop-color="white"/>
<stop offset="1" stop-color="#EFADCB"/>
</linearGradient>
</defs>
</svg>
