<svg width="4" height="7" viewBox="0 0 4 7" fill="none" xmlns="http://www.w3.org/2000/svg">
<g id="Group 9">
<path id="Vector (Stroke)" d="M2.30831 6.81296C2.2601 6.90164 2.1491 6.93453 2.06038 6.88638C1.97164 6.83818 1.93872 6.72701 1.98692 6.63827C2.42443 5.8327 2.85499 4.57144 2.74568 3.40235C2.69137 2.82157 2.50448 2.26918 2.12473 1.80319C1.79891 1.40339 1.32314 1.05812 0.645659 0.814424L0.766697 1.14298C0.801613 1.23774 0.753071 1.34286 0.658319 1.37778C0.56358 1.41266 0.458448 1.36413 0.423533 1.2694L0.114514 0.430709L0.815743 0.108274C0.907499 0.0660909 1.01613 0.106268 1.05831 0.198027C1.10046 0.289771 1.06024 0.398254 0.968514 0.440436L0.844525 0.497516C1.5371 0.759191 2.04743 1.12936 2.40826 1.57213C2.84285 2.10542 3.0502 2.73107 3.10979 3.36842C3.22827 4.6357 2.76547 5.97123 2.30831 6.81296Z" fill="#DFE6F5"/>
<path id="Vector (Stroke) (Stroke)" d="M2.39065 6.85656C2.31836 6.98956 2.15187 7.03897 2.01879 6.96677C1.88571 6.89449 1.8363 6.72783 1.90853 6.59472C2.34113 5.79819 2.76359 4.55538 2.65658 3.41083C2.60359 2.84424 2.42192 2.31016 2.05592 1.861C1.77232 1.51301 1.36838 1.20527 0.803627 0.972906L0.854495 1.11135C0.906879 1.25352 0.834045 1.41126 0.691951 1.46363C0.549864 1.51594 0.392081 1.44316 0.339688 1.30108L0.00142121 0.382936L0.779575 0.0251073C0.917152 -0.0381021 1.08014 0.0221278 1.14343 0.159737C1.19692 0.276277 1.16174 0.410861 1.06625 0.487743C1.67826 0.748476 2.14273 1.09901 2.48119 1.51432C2.92947 2.06442 3.14188 2.70837 3.2028 3.35982C3.32357 4.65163 2.85271 6.00579 2.39065 6.85656ZM2.10593 6.80604C2.15027 6.8301 2.20576 6.81359 2.22987 6.76924L2.23009 6.76936C2.68234 5.93667 3.13686 4.61962 3.02069 3.3769C2.96242 2.75372 2.76028 2.14639 2.33945 1.62994C1.99002 1.20117 1.49365 0.839684 0.814259 0.582986L0.609743 0.505783L0.932174 0.357319C0.978032 0.336186 0.998311 0.281955 0.97727 0.236151C0.956194 0.190347 0.901862 0.170235 0.855985 0.191274L0.23173 0.478487L0.511331 1.23777C0.528779 1.2851 0.581288 1.30937 0.628637 1.29198C0.676027 1.27452 0.700256 1.222 0.682852 1.17467L0.494123 0.661971L0.678598 0.728452C1.36957 0.977007 1.86001 1.33107 2.19766 1.74538C2.59108 2.22816 2.78305 2.79885 2.83869 3.39375C2.95029 4.58738 2.51168 5.86726 2.06926 6.68187C2.04819 6.72068 2.0581 6.7682 2.09063 6.79561L2.10593 6.80604Z" fill="#2450BE"/>
</g>
</svg>
