<svg width="30" height="45" viewBox="0 0 30 45" fill="none" xmlns="http://www.w3.org/2000/svg">
<path id="Union" d="M21.4624 7.13379C22.0865 7.13395 23.675 7.6528 24.3623 7.84917C25.6334 8.21316 29.0641 9.2654 29.7572 10.3628C30.2189 11.102 29.6707 11.8009 29.0586 12.1937C27.8398 12.9793 26.0429 13.3948 24.6392 13.7299C23.6804 13.9551 22.0631 14.0996 21.2486 14.4403C20.5901 14.7176 20.601 15.2722 20.4681 15.9075C20.0523 17.8657 19.7981 20.7311 20.0464 22.7066C20.2948 24.6822 21.4102 24.4631 22.8774 25.243C25.6267 26.7043 25.8229 27.9807 25.7074 31.0015C25.6323 33.0117 25.3609 35.3342 25.124 37.3502C25.0662 37.8299 24.7081 40.8337 24.5348 40.9665C24.4716 41.0177 24.3353 41.0065 24.2431 41.0119C24.1874 41.1069 24.5777 41.8761 24.657 42.012C24.9982 42.6015 26.6083 44.0919 25.7074 44.6636C25.1749 44.9984 22.7731 45.0096 22.2014 44.7671C21.5431 44.4841 21.7678 44.0916 21.5599 43.6527C21.2942 43.0981 20.9367 43.4791 21.0406 42.3411C21.0753 41.9658 21.4505 41.0595 21.422 40.8798C21.4104 40.8163 21.2423 40.8277 21.2249 40.7527C21.1787 40.5737 21.1388 39.6841 21.1214 39.4067C20.977 36.5589 21.2717 33.6127 21.081 30.7591L15.7778 29.2288L14.4436 29.211L9.15805 30.7591L9.01911 40.6778L8.72448 40.9665C9.00175 41.498 9.36005 42.5203 9.19254 43.0979C9.11163 43.369 8.69085 43.5074 8.6496 43.5768C8.55717 43.7385 8.64981 44.3571 8.40719 44.6055C8.3436 44.669 7.87118 44.8531 7.75488 44.8824C7.02704 45.0384 5.91161 45.0276 5.17222 44.9179C2.83867 44.577 5.95752 42.1502 5.99796 41.07L5.60578 40.8453C5.41516 39.7478 5.26454 38.6437 5.12591 37.5404C4.81974 35.0334 4.22515 30.9035 4.55439 28.5006C4.94142 25.6528 7.60454 25.5195 9.3837 24.2487C9.64918 24.0581 9.77584 23.7633 9.85668 23.4515C10.3014 21.7299 9.892 17.0975 9.3837 15.3242C9.16421 14.5676 9.02477 14.5558 8.30274 14.3536C6.52303 13.8568 1.15193 13.1866 0.193133 11.6271C-0.76535 10.0676 2.09368 9.02845 3.21428 8.601C4.33476 8.1736 7.37236 7.1514 8.38946 7.13379C9.1173 7.11646 10.897 8.21975 11.3475 8.76852C11.6246 9.1035 11.7634 9.5196 12.0117 9.86031C13.658 9.76789 15.3279 9.72738 16.9799 9.7736C17.2397 9.77949 17.5571 9.90599 17.7534 9.88297C18.0249 9.85409 18.0139 9.51323 18.1525 9.29372C18.3372 8.99933 18.5217 8.69894 18.7871 8.46798C19.2146 8.09251 20.9252 7.13956 21.4624 7.13379ZM6.09058 10.154C7.12458 10.2695 8.18219 10.4547 9.21618 10.2525C9.22761 9.99271 8.95588 9.9811 8.78262 9.75586C8.60933 9.53058 8.43037 9.2472 8.32639 8.98727L6.09058 10.154ZM21.7511 8.98727C21.4796 8.98727 21.3875 9.37506 21.2604 9.56568L20.6307 10.2525C21.6761 10.4199 22.7099 10.281 23.7553 10.154C23.512 9.89948 21.977 8.98201 21.7511 8.98727ZM14.4593 0.0282679C16.3021 -0.191239 18.3295 0.877464 18.4797 2.88191C18.5028 3.19961 18.4802 3.51757 18.5033 3.7313C18.5207 3.90991 18.6362 3.77739 18.6708 4.04859C18.8037 5.04214 18.3582 5.25014 18.0116 5.93754C17.8846 6.19177 17.8441 6.86812 17.717 7.09339C16.371 9.52472 13.6734 9.50185 12.3103 7.09339C12.1543 6.81611 12.1198 6.13935 11.9811 5.87941C11.6057 5.152 11.1095 5.04762 11.3751 3.96187C11.4964 3.47148 11.5074 4.15229 11.5594 2.98635C11.6287 1.43256 12.9228 0.207304 14.4534 0.0223556L14.4593 0.0282679Z" fill="url(#paint0_linear_0_662)"/>
<defs>
<linearGradient id="paint0_linear_0_662" x1="14.9647" y1="-0.000307929" x2="14.9647" y2="45.0001" gradientUnits="userSpaceOnUse">
<stop stop-color="white"/>
<stop offset="1" stop-color="#A6E9CB"/>
</linearGradient>
</defs>
</svg>
