<svg width="40" height="39" viewBox="0 0 40 39" fill="none" xmlns="http://www.w3.org/2000/svg">
<g id="Layer 9">
<path id="Vector" d="M21.7233 0V12.9145C21.7233 13.4004 22.907 15.0964 23.5165 15.2289C23.4812 13.0559 22.854 10.079 24.4175 8.29464C27.0234 5.31776 31.5903 9.67266 33.3658 11.7309C36.6165 15.4939 38.9486 21.165 39.6199 26.0764C39.9556 28.5675 40.3443 34.8834 39.4609 37.0741C37.9504 40.8018 33.1362 37.8515 30.7246 36.9151C27.5181 35.6696 24.0288 35.3693 23.6667 31.1292C23.596 30.2988 23.808 29.6187 23.8168 28.8943C23.8522 25.7496 23.702 22.6402 23.4812 19.5132L20.0008 16.5716L16.5204 19.522C16.5999 21.112 16.2377 22.6932 16.1847 24.2656C16.0964 26.7743 16.7677 30.9083 15.8579 33.0461C14.8067 35.5106 12.2008 35.7756 10.0366 36.6236C8.39357 37.2685 5.02801 38.9557 3.42032 38.9822C0.611273 39.0263 0.178432 35.9788 0.0635972 33.8322C-0.342743 26.5711 1.16778 19.1687 5.46969 13.2502C7.13922 10.9535 11.7061 5.8566 14.8685 7.67629C17.3419 9.09848 16.4585 12.9057 16.4939 15.2378C16.7854 15.5734 18.2871 13.3121 18.2871 12.9234V0H21.7233Z" fill="url(#paint0_linear_0_912)"/>
</g>
<defs>
<linearGradient id="paint0_linear_0_912" x1="20.0007" y1="0" x2="20.0007" y2="38.9826" gradientUnits="userSpaceOnUse">
<stop stop-color="white"/>
<stop offset="1" stop-color="#FFE69C"/>
</linearGradient>
</defs>
</svg>
