<svg width="6" height="13" viewBox="0 0 6 13" fill="none" xmlns="http://www.w3.org/2000/svg">
<g id="Group 1">
<path id="Vector (Stroke)" d="M4.01863 12.6602C3.92595 12.8224 3.71928 12.8788 3.55704 12.7863C3.39475 12.6936 3.33821 12.4866 3.43088 12.3244C4.27201 10.8512 5.1182 8.53475 4.96194 6.36757C4.8843 5.29095 4.56023 4.26165 3.87598 3.38461C3.28889 2.63215 2.42222 1.97467 1.17837 1.49717L1.38939 2.10979C1.45026 2.28647 1.35632 2.47903 1.17964 2.53991C1.00299 2.60071 0.810392 2.5068 0.74952 2.33016L0.210772 0.766389L1.52082 0.197441C1.69224 0.123009 1.89165 0.201611 1.96608 0.373029C2.04044 0.544416 1.96177 0.743537 1.79041 0.817968L1.55876 0.918694C2.82984 1.43004 3.75945 2.13495 4.40963 2.96828C5.19271 3.972 5.55174 5.13763 5.63693 6.3191C5.80629 8.66831 4.89753 11.1209 4.01863 12.6602Z" fill="#F8D7DA"/>
<path id="Vector (Stroke) (Stroke)" d="M4.16541 12.744C4.02642 12.9872 3.71645 13.0721 3.47307 12.9333C3.22971 12.7943 3.14484 12.4841 3.28371 12.2406C4.1154 10.784 4.94588 8.50136 4.7929 6.37969C4.71714 5.32938 4.40204 4.33415 3.74255 3.48879C3.23153 2.83382 2.49628 2.24862 1.46056 1.79651L1.54922 2.05465C1.64055 2.31973 1.4996 2.60869 1.23464 2.69999C0.969705 2.79118 0.680647 2.65032 0.589299 2.38541L-0.000436403 0.673488L1.45333 0.0420862C1.71035 -0.0694449 2.00953 0.0483935 2.12121 0.305467C2.21559 0.523177 2.14521 0.77078 1.96553 0.909262C3.08758 1.4157 3.93312 2.08247 4.54299 2.86413C5.35073 3.89947 5.7184 5.09918 5.8055 6.30678C5.97813 8.70147 5.05374 11.1882 4.16541 12.744ZM3.64062 12.6393C3.72171 12.6856 3.82501 12.6572 3.87137 12.5762L3.87178 12.5764C4.74124 11.0536 5.63396 8.6349 5.46789 6.33122C5.38458 5.17601 5.03449 4.04446 4.2762 3.07246C3.64657 2.26546 2.74243 1.57718 1.49556 1.07556L1.12021 0.924684L1.72259 0.662699C1.80827 0.625404 1.84792 0.525871 1.81079 0.440303C1.7736 0.354733 1.67387 0.31539 1.58816 0.352509L0.42191 0.85932L0.909351 2.27502C0.939773 2.36328 1.03597 2.41024 1.12425 2.37994C1.21262 2.34949 1.25951 2.25329 1.22917 2.16504L0.900157 1.20909L1.23885 1.33934C2.50746 1.82636 3.40093 2.50068 4.00933 3.28046C4.71823 4.1891 5.05095 5.25246 5.13051 6.35525C5.29005 8.56791 4.42822 10.9185 3.57766 12.4082C3.53714 12.4792 3.55361 12.5675 3.61271 12.6195L3.64062 12.6393Z" fill="#F8D7DA"/>
</g>
</svg>
