<svg width="6" height="12" viewBox="0 0 6 12" fill="none" xmlns="http://www.w3.org/2000/svg">
<path id="Vector (Stroke) (Stroke)" d="M5.06748 0.0659122C5.29783 -0.0684427 5.59378 0.00913053 5.72835 0.239409C5.86284 0.469802 5.78513 0.765996 5.55477 0.900582C4.17579 1.70557 2.40462 3.19217 1.52086 5.01415C1.08339 5.9161 0.869458 6.88658 1.01078 7.89742C1.12032 8.68062 1.44793 9.51305 2.08662 10.3788L2.13638 10.1237C2.18726 9.86173 2.44101 9.6906 2.7029 9.74143C2.96473 9.79236 3.13599 10.0461 3.08521 10.308L2.75655 12L1.2575 11.8286C0.99252 11.7982 0.801959 11.5586 0.832243 11.2935C0.858065 11.0691 1.03394 10.8985 1.24799 10.8699C0.564002 9.91827 0.184286 8.96611 0.0535515 8.03141C-0.119569 6.79338 0.148352 5.62931 0.651348 4.59227C1.64885 2.53587 3.59459 0.925721 5.06748 0.0659122ZM5.4503 0.401995C5.40548 0.325258 5.30681 0.299469 5.22999 0.344264L5.22976 0.343878C3.78817 1.18541 1.9009 2.75456 0.941313 4.73282C0.460132 5.72485 0.210159 6.82436 0.372654 7.98664C0.507626 8.95164 0.925406 9.94943 1.7146 10.9565L1.95223 11.2595L1.33091 11.1888C1.24253 11.1787 1.16246 11.2419 1.15234 11.3301C1.14228 11.4184 1.20577 11.4983 1.2941 11.5085L2.49681 11.6458L2.7688 10.2466C2.78573 10.1594 2.72878 10.0749 2.64157 10.0578C2.55423 10.0409 2.46978 10.0979 2.45279 10.1851L2.26902 11.1298L2.05179 10.8612C1.23773 9.85584 0.822096 8.87464 0.691675 7.94218C0.539739 6.85566 0.77157 5.82063 1.23089 4.8736C2.15255 2.97349 3.9819 1.44581 5.39219 0.622534C5.45937 0.583316 5.48783 0.502677 5.46384 0.431677L5.4503 0.401995Z" fill="#F8D7DA"/>
</svg>
