<svg width="17" height="7" viewBox="0 0 17 7" fill="none" xmlns="http://www.w3.org/2000/svg">
<g id="Group 4">
<path id="Vector (Stroke)" d="M16.6849 5.91368C16.8352 6.10952 16.7983 6.39021 16.6025 6.54056C16.4067 6.69091 16.1256 6.65398 15.9752 6.4581C14.6104 4.67998 12.2206 2.46451 9.50011 1.54678C8.14861 1.09089 6.72878 0.959448 5.31028 1.34472C4.09326 1.67531 2.84903 2.3951 1.63122 3.6665L2.48555 3.72263C2.73195 3.7388 2.91854 3.95172 2.90238 4.19813C2.88614 4.44445 2.67324 4.63111 2.42689 4.61496L0.246058 4.4718L0.222681 2.58468C0.219641 2.33775 0.417371 2.13498 0.664293 2.13194C0.91114 2.12897 1.11353 2.32663 1.1166 2.57349L1.12089 2.90723C2.39386 1.61997 3.72807 0.84773 5.07587 0.48162C6.69925 0.040702 8.30308 0.199258 9.78618 0.69957C12.7351 1.69441 15.2588 4.05574 16.6849 5.91368Z" fill="#ECD9F3"/>
<path id="Vector (Stroke) (Stroke)" d="M16.8629 5.77745C17.0882 6.07116 17.0331 6.49224 16.7396 6.7178C16.4458 6.94327 16.0244 6.88803 15.7988 6.59436C14.4492 4.8362 12.0926 2.65715 9.42923 1.7587C8.11076 1.31396 6.73702 1.18902 5.36979 1.56032C4.31046 1.84807 3.22148 2.44469 2.14104 3.47549L2.5009 3.49945C2.87057 3.52371 3.15058 3.8432 3.12636 4.21272C3.10199 4.58215 2.78257 4.86233 2.41308 4.83818L0.0256681 4.6814L-0.000322949 2.58723C-0.00479684 2.21704 0.291756 1.91276 0.662093 1.90812C0.975614 1.90445 1.24132 2.11681 1.31817 2.40655C2.50896 1.29835 3.75373 0.609042 5.01796 0.265632C6.69247 -0.189165 8.34224 -0.0237193 9.85816 0.487634C12.8642 1.50173 15.4215 3.89957 16.8629 5.77745ZM16.4671 6.36335C16.5649 6.28821 16.5832 6.14783 16.5081 6.04988L16.5085 6.04951C15.0978 4.21152 12.6071 1.88704 9.71531 0.911485C8.26517 0.422304 6.70744 0.270288 5.13538 0.697213C3.83017 1.05175 2.52924 1.80145 1.28049 3.0642L0.904742 3.4444L0.893535 2.57648C0.891901 2.45302 0.790901 2.35381 0.667658 2.3553C0.544379 2.35686 0.445447 2.45826 0.446852 2.58167L0.468046 4.26181L2.44223 4.39177C2.56532 4.39983 2.67172 4.30664 2.67995 4.18357C2.68803 4.06034 2.59479 3.95401 2.47175 3.94585L1.13876 3.85794L1.47064 3.51187C2.7127 2.21516 3.99116 1.47132 5.25237 1.12873C6.72196 0.729592 8.18772 0.867899 9.57209 1.33484C12.3496 2.27183 14.773 4.52381 16.1532 6.32187C16.219 6.40753 16.335 6.43262 16.4286 6.38718L16.4671 6.36335Z" fill="#B068CD"/>
</g>
</svg>
