<svg width="7" height="4" viewBox="0 0 7 4" fill="none" xmlns="http://www.w3.org/2000/svg">
<g id="Group 10">
<path id="Vector (Stroke)" d="M0.107813 0.357726C0.0682503 0.260229 0.11518 0.149042 0.212647 0.109411C0.310175 0.0697925 0.421506 0.116792 0.461123 0.214324C0.820743 1.09964 1.55208 2.28076 2.56624 2.96594C3.07006 3.30632 3.6387 3.52109 4.26529 3.52334C4.80288 3.52526 5.39572 3.37029 6.04015 2.98563L5.69539 2.86583C5.59596 2.83129 5.54338 2.72266 5.57792 2.62322C5.61248 2.52382 5.72111 2.47121 5.82052 2.50573L6.70059 2.81148L6.49655 3.58972C6.46985 3.69155 6.36563 3.7525 6.26381 3.7258C6.16202 3.69907 6.10122 3.59492 6.12791 3.49311L6.16393 3.35546C5.49503 3.7404 4.85928 3.90673 4.26391 3.90461C3.54682 3.90203 2.90564 3.65529 2.35275 3.28175C1.25342 2.53901 0.483569 1.28279 0.107813 0.357726Z" fill="#DFE6F5"/>
<path id="Vector (Stroke) (Stroke)" d="M0.0201311 0.393601C-0.0392004 0.247386 0.03111 0.0805607 0.177297 0.0210925C0.323545 -0.0383175 0.490496 0.0320988 0.549962 0.178339C0.905545 1.05372 1.62738 2.21611 2.62025 2.88691C3.11176 3.21896 3.6622 3.42584 4.26613 3.42803C4.73407 3.4297 5.24916 3.30778 5.8099 3.00645L5.66471 2.95586C5.51553 2.90404 5.43663 2.74103 5.48841 2.5919C5.54025 2.44282 5.70325 2.36384 5.85236 2.41559L6.81579 2.75032L6.58939 3.61396C6.54932 3.76661 6.39299 3.85809 6.24027 3.81807C6.111 3.78409 6.02584 3.66673 6.02706 3.53894C5.41221 3.85959 4.8226 4.00197 4.26415 3.99997C3.52448 3.99731 2.86519 3.74254 2.30007 3.36074C1.17946 2.60362 0.399927 1.3286 0.0201311 0.393601ZM0.249154 0.19762C0.200441 0.217427 0.177043 0.273053 0.196823 0.321815L0.196578 0.321912C0.568302 1.23704 1.32874 2.47437 2.40676 3.20272C2.94736 3.56795 3.57034 3.80679 4.26476 3.8093C4.84131 3.81136 5.46083 3.65052 6.117 3.27292L6.31447 3.1592L6.22081 3.51718C6.20751 3.56811 6.23779 3.62031 6.2886 3.63366C6.33945 3.64697 6.39158 3.6165 6.40498 3.56562L6.58648 2.87269L5.78985 2.59577C5.74017 2.57852 5.68589 2.60477 5.66858 2.65442C5.65131 2.70416 5.67759 2.75841 5.72723 2.77569L6.26511 2.96274L6.08953 3.0674C5.43227 3.45972 4.82264 3.62069 4.26553 3.6187C3.61637 3.61637 3.02964 3.39358 2.51356 3.04493C1.47812 2.34537 0.737102 1.14545 0.373441 0.250199C0.356118 0.207551 0.311279 0.184105 0.267678 0.192184L0.249154 0.19762Z" fill="#2450BE"/>
</g>
</svg>
