<svg width="11" height="4" viewBox="0 0 11 4" fill="none" xmlns="http://www.w3.org/2000/svg">
<g id="Group 8">
<path id="Vector (Stroke)" d="M0.225898 2.93501C0.114718 3.04521 0.113833 3.22476 0.22396 3.33601C0.334175 3.44729 0.513968 3.44817 0.625243 3.33795C1.63532 2.33751 3.32699 1.15005 5.11524 0.806462C6.00362 0.63579 6.90714 0.674861 7.76554 1.03854C8.50201 1.35058 9.22224 1.90954 9.87858 2.81288L9.33689 2.77494C9.18066 2.76398 9.04515 2.8818 9.03419 3.03803C9.02329 3.19422 9.14108 3.32976 9.29728 3.34072L10.68 3.43765L10.8564 2.25374C10.8795 2.09883 10.7726 1.95446 10.6177 1.93138C10.4629 1.90836 10.3187 2.01524 10.2956 2.17011L10.2644 2.37947C9.5747 1.46143 8.80243 0.861805 7.98681 0.516231C7.00443 0.100031 5.98296 0.0622288 5.00807 0.24954C3.06962 0.622003 1.28131 1.88965 0.225898 2.93501Z" fill="#D2F4E5"/>
<path id="Vector (Stroke) (Stroke)" d="M0.125989 2.83421C-0.0407471 2.99948 -0.0422143 3.26881 0.122943 3.43572C0.288216 3.60258 0.557795 3.60399 0.724729 3.43877C1.72347 2.44955 3.39118 1.28214 5.14189 0.945771C6.00856 0.779277 6.88256 0.818487 7.70994 1.16898C8.35099 1.44059 8.9842 1.90885 9.57484 2.64922L9.34664 2.63343C9.11225 2.617 8.90891 2.79378 8.89246 3.02807C8.87612 3.26232 9.05284 3.46576 9.2871 3.48225L10.8008 3.58831L10.9966 2.27452C11.0312 2.04227 10.8709 1.82564 10.6386 1.79099C10.4419 1.76181 10.2567 1.87249 10.1835 2.04798C9.5302 1.24952 8.80703 0.709672 8.04199 0.385525C7.02866 -0.0437794 5.97773 -0.0811879 4.98127 0.110249C3.00529 0.489923 1.19274 1.77763 0.125989 2.83421ZM0.324553 3.23633C0.269513 3.18072 0.270066 3.09094 0.325661 3.03582L0.325384 3.03555C1.36947 2.00141 3.13383 0.754094 5.03472 0.388849C5.98794 0.205708 6.97988 0.243669 7.93121 0.646678C8.72106 0.981332 9.47434 1.56394 10.1509 2.4645L10.3544 2.73562L10.4358 2.19116C10.4474 2.11372 10.5194 2.06003 10.5967 2.07152C10.6741 2.08307 10.7276 2.15527 10.7161 2.2327L10.5588 3.28673L9.30704 3.19922C9.22899 3.19373 9.17012 3.12605 9.17549 3.04801C9.18098 2.96987 9.24868 2.91104 9.3267 2.91646L10.1719 2.97545L9.99302 2.72953C9.3236 1.80821 8.58393 1.2312 7.82071 0.907831C6.93139 0.531062 5.99842 0.492367 5.08844 0.667171C3.26266 1.01797 1.54676 2.22549 0.525334 3.23716C0.476677 3.28535 0.40162 3.29117 0.346709 3.2546L0.324553 3.23633Z" fill="#D2F4E5"/>
</g>
</svg>
