<svg width="17" height="7" viewBox="0 0 17 7" fill="none" xmlns="http://www.w3.org/2000/svg">
<g id="Group 5">
<path id="Vector (Stroke)" d="M0.315058 0.942831C0.164845 0.746987 0.201715 0.466299 0.397459 0.315953C0.593347 0.165595 0.874412 0.202524 1.02477 0.398412C2.38962 2.17653 4.77942 4.392 7.49989 5.30973C8.85139 5.76562 10.2712 5.89706 11.6897 5.51179C12.9067 5.1812 14.151 4.46141 15.3688 3.19001L14.5144 3.13388C14.268 3.11771 14.0815 2.90478 14.0976 2.65838C14.1139 2.41206 14.3268 2.2254 14.5731 2.24155L16.7539 2.38471L16.7773 4.27183C16.7804 4.51875 16.5826 4.72153 16.3357 4.72457C16.0889 4.72754 15.8865 4.52987 15.8834 4.28302L15.8791 3.94927C14.6061 5.23654 13.2719 6.00878 11.9241 6.37489C10.3008 6.81581 8.69692 6.65725 7.21382 6.15694C4.26486 5.1621 1.74116 2.80077 0.315058 0.942831Z" fill="#ECD9F3"/>
<path id="Vector (Stroke) (Stroke)" d="M0.137063 1.07904C-0.08821 0.785334 -0.0331233 0.364255 0.260448 0.138692C0.55419 -0.0867764 0.975636 -0.0315395 1.20123 0.262136C2.55076 2.02029 4.90741 4.19934 7.57077 5.0978C8.88924 5.54253 10.263 5.66747 11.6302 5.29618C12.6895 5.00843 13.7785 4.4118 14.859 3.381L14.4991 3.35705C14.1294 3.33279 13.8494 3.01329 13.8736 2.64378C13.898 2.27434 14.2174 1.99416 14.5869 2.01831L16.9743 2.1751L17.0003 4.26926C17.0048 4.63945 16.7082 4.94373 16.3379 4.94837C16.0244 4.95204 15.7587 4.73969 15.6818 4.44994C14.491 5.55814 13.2463 6.24745 11.982 6.59086C10.3075 7.04566 8.65776 6.88021 7.14184 6.36886C4.13579 5.35476 1.57849 2.95693 0.137063 1.07904ZM0.532932 0.493145C0.435101 0.568287 0.416837 0.708662 0.491948 0.806613L0.491457 0.806987C1.90225 2.64497 4.39287 4.96945 7.28469 5.94501C8.73483 6.43419 10.2926 6.58621 11.8646 6.15928C13.1698 5.80474 14.4708 5.05504 15.7195 3.79229L16.0953 3.4121L16.1065 4.28002C16.1081 4.40347 16.2091 4.50268 16.3323 4.50119C16.4556 4.49963 16.5546 4.39823 16.5531 4.27483L16.532 2.59468L14.5578 2.46472C14.4347 2.45666 14.3283 2.54986 14.3201 2.67292C14.312 2.79616 14.4052 2.90248 14.5282 2.91064L15.8612 2.99855L15.5294 3.34462C14.2873 4.64133 13.0088 5.38517 11.7476 5.72776C10.278 6.1269 8.81228 5.98859 7.42791 5.52165C4.65035 4.58466 2.22695 2.33268 0.846775 0.53462C0.781028 0.448965 0.665013 0.423876 0.571437 0.46931L0.532932 0.493145Z" fill="#B068CD"/>
</g>
</svg>
