<svg width="6" height="11" viewBox="0 0 6 11" fill="none" xmlns="http://www.w3.org/2000/svg">
<g id="Group 9">
<path id="Vector (Stroke)" d="M3.62826 10.7061C3.5525 10.8455 3.37806 10.8971 3.23866 10.8215C3.0992 10.7457 3.04747 10.571 3.12321 10.4316C3.81073 9.16569 4.48732 7.18371 4.31556 5.34657C4.23021 4.43391 3.93651 3.56587 3.33977 2.8336C2.82777 2.20534 2.08013 1.66278 1.01552 1.27982L1.20572 1.79613C1.26059 1.94504 1.18431 2.11022 1.03541 2.1651C0.886535 2.2199 0.721327 2.14365 0.666461 1.99478L0.180859 0.676841L1.28279 0.170158C1.42698 0.103871 1.59769 0.167006 1.66397 0.311199C1.7302 0.455367 1.667 0.625842 1.52286 0.692128L1.32802 0.781825C2.41636 1.19303 3.21829 1.77473 3.78532 2.4705C4.46825 3.30854 4.79409 4.29169 4.88773 5.29324C5.0739 7.28468 4.34665 9.38338 3.62826 10.7061Z" fill="#F7D6E5"/>
<path id="Vector (Stroke) (Stroke)" d="M3.75391 10.7746C3.6403 10.9836 3.37867 11.0613 3.16955 10.9478C2.96043 10.8342 2.88278 10.5723 2.99629 10.3631C3.67609 9.11146 4.33995 7.15846 4.17179 5.35989C4.08852 4.46953 3.80305 3.63026 3.2279 2.92444C2.78224 2.37759 2.14747 1.89401 1.26001 1.52886L1.33995 1.74642C1.42226 1.96983 1.30781 2.2177 1.08452 2.3C0.861241 2.3822 0.613296 2.26783 0.530963 2.04456L-0.000598127 0.601763L1.22221 0.0394611C1.43841 -0.0598681 1.69453 0.0347795 1.79399 0.251022C1.87804 0.434157 1.82276 0.645645 1.67271 0.76646C2.63444 1.17618 3.36432 1.72702 3.89618 2.37965C4.60062 3.24409 4.93441 4.25602 5.03014 5.27972C5.21992 7.30972 4.48001 9.43768 3.75391 10.7746ZM3.30649 10.6952C3.37617 10.733 3.46336 10.7071 3.50125 10.6374L3.5016 10.6376C4.21227 9.32907 4.92653 7.25942 4.74396 5.30656C4.6524 4.32728 4.33476 3.3729 3.67345 2.56134C3.12434 1.88755 2.34434 1.31951 1.27672 0.916128L0.955337 0.794808L1.46201 0.561509C1.53408 0.5283 1.56594 0.44308 1.53288 0.371102C1.49976 0.299123 1.41438 0.26752 1.34229 0.300581L0.361316 0.751915L0.800688 1.94507C0.828107 2.01945 0.910621 2.05758 0.985027 2.03026C1.0595 2.00282 1.09757 1.92029 1.07022 1.84592L0.773648 1.04025L1.06354 1.14472C2.14935 1.5353 2.92004 2.09169 3.45064 2.74275C4.06887 3.50141 4.37053 4.3982 4.45797 5.33305C4.63334 7.20874 3.94409 9.21998 3.24887 10.5001C3.21575 10.5611 3.23132 10.6357 3.28244 10.6788L3.30649 10.6952Z" fill="#F7D6E5"/>
</g>
</svg>
