<svg width="17" height="7" viewBox="0 0 17 7" fill="none" xmlns="http://www.w3.org/2000/svg">
<g id="Group 4">
<path id="Vector (Stroke)" d="M16.6849 5.91363C16.8352 6.10947 16.7983 6.39016 16.6025 6.54051C16.4067 6.69087 16.1256 6.65394 15.9752 6.45805C14.6104 4.67994 12.2206 2.46446 9.50011 1.54673C8.14861 1.09085 6.72878 0.9594 5.31028 1.34467C4.09326 1.67526 2.84903 2.39505 1.63122 3.66645L2.48555 3.72258C2.73195 3.73875 2.91854 3.95168 2.90238 4.19808C2.88614 4.4444 2.67324 4.63106 2.42689 4.61491L0.246058 4.47175L0.222681 2.58463C0.219641 2.33771 0.417371 2.13493 0.664293 2.13189C0.91114 2.12892 1.11353 2.32659 1.1166 2.57344L1.12089 2.90719C2.39386 1.61992 3.72807 0.847682 5.07587 0.481573C6.69925 0.0406543 8.30308 0.19921 9.78618 0.699522C12.7351 1.69436 15.2588 4.05569 16.6849 5.91363Z" fill="#ECD9F3"/>
<path id="Vector (Stroke) (Stroke)" d="M16.8629 5.77742C17.0882 6.07113 17.0331 6.49221 16.7396 6.71777C16.4458 6.94324 16.0244 6.888 15.7988 6.59433C14.4492 4.83617 12.0926 2.65712 9.42923 1.75866C8.11076 1.31393 6.73702 1.18899 5.36979 1.56028C4.31046 1.84803 3.22148 2.44466 2.14104 3.47546L2.5009 3.49941C2.87057 3.52368 3.15058 3.84317 3.12636 4.21269C3.10199 4.58212 2.78257 4.8623 2.41308 4.83815L0.0256681 4.68136L-0.000322949 2.5872C-0.00479684 2.21701 0.291756 1.91273 0.662093 1.90809C0.975614 1.90442 1.24132 2.11677 1.31817 2.40652C2.50896 1.29832 3.75373 0.60901 5.01796 0.265601C6.69247 -0.189197 8.34224 -0.0237511 9.85816 0.487602C12.8642 1.5017 15.4215 3.89953 16.8629 5.77742ZM16.4671 6.36332C16.5649 6.28817 16.5832 6.1478 16.5081 6.04985L16.5085 6.04947C15.0978 4.21149 12.6071 1.88701 9.71531 0.911453C8.26517 0.422273 6.70744 0.270256 5.13538 0.697181C3.83017 1.05172 2.52924 1.80142 1.28049 3.06417L0.904742 3.44436L0.893535 2.57645C0.891901 2.45299 0.790901 2.35378 0.667658 2.35527C0.544379 2.35683 0.445447 2.45823 0.446852 2.58164L0.468046 4.26178L2.44223 4.39174C2.56532 4.3998 2.67172 4.3066 2.67995 4.18354C2.68803 4.0603 2.59479 3.95398 2.47175 3.94582L1.13876 3.85791L1.47064 3.51184C2.7127 2.21513 3.99116 1.47129 5.25237 1.1287C6.72196 0.72956 8.18772 0.867867 9.57209 1.33481C12.3496 2.2718 14.773 4.52378 16.1532 6.32184C16.219 6.4075 16.335 6.43259 16.4286 6.38715L16.4671 6.36332Z" fill="#B068CD"/>
</g>
</svg>
