<svg width="7" height="4" viewBox="0 0 7 4" fill="none" xmlns="http://www.w3.org/2000/svg">
<g id="Group 10">
<path id="Vector (Stroke)" d="M0.107814 0.357729C0.0682509 0.260231 0.115181 0.149043 0.212649 0.109412C0.310178 0.0697931 0.421509 0.116792 0.461127 0.214325C0.82075 1.09965 1.55209 2.28077 2.56626 2.96596C3.07009 3.30634 3.63873 3.52112 4.26532 3.52337C4.80292 3.52529 5.39577 3.37032 6.0402 2.98565L5.69544 2.86586C5.59601 2.83132 5.54343 2.72268 5.57796 2.62324C5.61253 2.52384 5.72116 2.47123 5.82057 2.50576L6.70065 2.8115L6.49661 3.58975C6.4699 3.69158 6.36568 3.75253 6.26386 3.72583C6.16207 3.6991 6.10127 3.59495 6.12796 3.49314L6.16398 3.35549C5.49508 3.74043 4.85932 3.90676 4.26395 3.90464C3.54685 3.90206 2.90566 3.65532 2.35277 3.28178C1.25343 2.53903 0.483573 1.2828 0.107814 0.357729Z" fill="#DFE6F5"/>
<path id="Vector (Stroke) (Stroke)" d="M0.0201312 0.393588C-0.0392007 0.247371 0.0311102 0.0805446 0.177299 0.0210759C0.323547 -0.0383346 0.4905 0.0320823 0.549966 0.178323C0.905553 1.05371 1.6274 2.21611 2.62027 2.88691C3.11179 3.21897 3.66223 3.42585 4.26617 3.42805C4.73411 3.42971 5.2492 3.30779 5.80995 3.00646L5.66476 2.95587C5.51558 2.90405 5.43667 2.74103 5.48846 2.59191C5.5403 2.44283 5.7033 2.36384 5.85241 2.4156L6.81584 2.75033L6.58944 3.61397C6.54937 3.76663 6.39304 3.85811 6.24032 3.81809C6.11105 3.7841 6.02589 3.66674 6.02711 3.53896C5.41226 3.85961 4.82264 4.00198 4.26419 3.99999C3.52451 3.99733 2.86522 3.74255 2.30009 3.36076C1.17947 2.60363 0.399931 1.32859 0.0201312 0.393588ZM0.249156 0.197605C0.200443 0.217412 0.177045 0.273039 0.196824 0.3218L0.19658 0.321898C0.568307 1.23703 1.32875 2.47437 2.40678 3.20273C2.94738 3.56796 3.57037 3.8068 4.26479 3.80932C4.84135 3.81137 5.46088 3.65054 6.11705 3.27293L6.31452 3.15921L6.22087 3.51719C6.20756 3.56812 6.23784 3.62033 6.28866 3.63367C6.3395 3.64698 6.39164 3.61651 6.40503 3.56563L6.58653 2.87269L5.78989 2.59577C5.74022 2.57852 5.68594 2.60478 5.66863 2.65443C5.65135 2.70416 5.67764 2.75842 5.72728 2.7757L6.26516 2.96275L6.08959 3.06741C5.43232 3.45973 4.82268 3.62071 4.26556 3.61872C3.6164 3.61638 3.02966 3.39359 2.51358 3.04494C1.47813 2.34538 0.737108 1.14544 0.373444 0.250184C0.356121 0.207536 0.311281 0.18409 0.26768 0.192169L0.249156 0.197605Z" fill="#2450BE"/>
</g>
</svg>
