<svg width="31" height="13" viewBox="0 0 31 13" fill="none" xmlns="http://www.w3.org/2000/svg">
<path id="Vector (Stroke)" d="M30.3252 10.6011C30.6005 10.9522 30.5393 11.4602 30.1884 11.7358C29.8372 12.0114 29.3285 11.9501 29.0529 11.5989C26.5514 8.4113 22.1889 4.45301 17.2537 2.84686C14.802 2.049 12.233 1.8389 9.6765 2.56277C7.48308 3.18389 5.24801 4.50904 3.0714 6.83075L4.61672 6.91565C5.06241 6.94011 5.4038 7.32137 5.37937 7.76706C5.35478 8.21262 4.97357 8.55413 4.52796 8.52971L0.583239 8.31319L0.504441 4.90257C0.494159 4.45631 0.847641 4.08595 1.29391 4.07567C1.74004 4.06552 2.10969 4.4189 2.12002 4.86504L2.13423 5.46822C4.41025 3.11677 6.80695 1.69508 9.23608 1.00721C12.1619 0.178795 15.0639 0.434331 17.7544 1.30995C23.104 3.05105 27.7115 7.27039 30.3252 10.6011Z" fill="#FFFBEB" stroke="#F59E0B" stroke-linecap="round"/>
</svg>
