<svg width="31" height="13" viewBox="0 0 31 13" fill="none" xmlns="http://www.w3.org/2000/svg">
<path id="Vector (Stroke)" d="M0.6748 1.80981C0.399491 1.45872 0.460698 0.950653 0.811603 0.675104C1.16277 0.399532 1.67152 0.460841 1.94709 0.812005C4.44856 3.9996 8.81113 7.95789 13.7463 9.56404C16.198 10.3619 18.767 10.572 21.3235 9.84813C23.5169 9.22701 25.752 7.90185 27.9286 5.58015L26.3833 5.49524C25.9376 5.47078 25.5962 5.08953 25.6206 4.64383C25.6452 4.19828 26.0264 3.85676 26.472 3.88119L30.4168 4.09771L30.4956 7.50832C30.5058 7.95459 30.1524 8.32494 29.7061 8.33522C29.26 8.34537 28.8903 7.992 28.88 7.54586L28.8658 6.94268C26.5897 9.29413 24.193 10.7158 21.7639 11.4037C18.8381 12.2321 15.9361 11.9766 13.2456 11.1009C7.89595 9.35985 3.28853 5.14051 0.6748 1.80981Z" fill="#FFFBEB" stroke="#F59E0B" stroke-linecap="round"/>
</svg>
