<svg width="6" height="11" viewBox="0 0 6 11" fill="none" xmlns="http://www.w3.org/2000/svg">
<g id="Group 9">
<path id="Vector (Stroke)" d="M3.62826 10.7061C3.55251 10.8455 3.37807 10.8972 3.23866 10.8215C3.09921 10.7458 3.04748 10.5711 3.12322 10.4316C3.81074 9.16571 4.48733 7.18374 4.31556 5.34659C4.23021 4.43393 3.93652 3.56589 3.33978 2.83362C2.82777 2.20536 2.08013 1.66279 1.01552 1.27984L1.20572 1.79615C1.26059 1.94505 1.18431 2.11024 1.03541 2.16511C0.886536 2.21992 0.721328 2.14367 0.666462 1.9948L0.180859 0.676858L1.28279 0.170174C1.42698 0.103887 1.59769 0.167021 1.66398 0.311215C1.7302 0.455383 1.667 0.625858 1.52286 0.692144L1.32802 0.781842C2.41636 1.19304 3.2183 1.77475 3.78532 2.47052C4.46825 3.30856 4.79409 4.29172 4.88773 5.29326C5.07391 7.28471 4.34665 9.38341 3.62826 10.7061Z" fill="#F7D6E5"/>
<path id="Vector (Stroke) (Stroke)" d="M3.75391 10.7746C3.64031 10.9836 3.37868 11.0612 3.16955 10.9478C2.96044 10.8342 2.88278 10.5723 2.99629 10.3631C3.67609 9.11144 4.33996 7.15844 4.1718 5.35987C4.08853 4.46951 3.80305 3.63024 3.22791 2.92441C2.78225 2.37756 2.14748 1.89398 1.26001 1.52883L1.33995 1.74639C1.42227 1.9698 1.30781 2.21767 1.08452 2.29997C0.861242 2.38217 0.613297 2.2678 0.530964 2.04454L-0.000598128 0.601733L1.22222 0.0394303C1.43841 -0.059899 1.69453 0.0347488 1.79399 0.250992C1.87804 0.434127 1.82276 0.645616 1.67271 0.76643C2.63444 1.17615 3.36432 1.727 3.89619 2.37963C4.60063 3.24407 4.93442 4.256 5.03015 5.2797C5.21993 7.3097 4.48001 9.43767 3.75391 10.7746ZM3.3065 10.6952C3.37617 10.733 3.46336 10.7071 3.50126 10.6374L3.5016 10.6376C4.21228 9.32905 4.92653 7.25939 4.74397 5.30654C4.6524 4.32726 4.33476 3.37287 3.67345 2.56131C3.12435 1.88753 2.34434 1.31948 1.27672 0.916098L0.955338 0.794779L1.46202 0.561479C1.53408 0.52827 1.56595 0.44305 1.53288 0.371071C1.49976 0.299093 1.41438 0.267489 1.34229 0.300551L0.361317 0.751886L0.800689 1.94504C0.828109 2.01942 0.910622 2.05755 0.985029 2.03024C1.0595 2.00279 1.09757 1.92027 1.07022 1.84589L0.773649 1.04022L1.06354 1.14469C2.14935 1.53528 2.92005 2.09166 3.45064 2.74273C4.06887 3.50138 4.37054 4.39818 4.45798 5.33303C4.63335 7.20872 3.9441 9.21997 3.24887 10.5001C3.21575 10.5611 3.23132 10.6357 3.28244 10.6788L3.3065 10.6952Z" fill="#F7D6E5"/>
</g>
</svg>
