<svg width="6" height="13" viewBox="0 0 6 13" fill="none" xmlns="http://www.w3.org/2000/svg">
<g id="Group 1">
<path id="Vector (Stroke)" d="M4.01863 12.6602C3.92596 12.8223 3.71929 12.8788 3.55705 12.7862C3.39476 12.6936 3.33822 12.4866 3.43088 12.3243C4.27202 10.8512 5.11821 8.53473 4.96195 6.36754C4.8843 5.29092 4.56024 4.26163 3.87598 3.38458C3.28889 2.63212 2.42223 1.97464 1.17837 1.49714L1.38939 2.10976C1.45026 2.28644 1.35632 2.479 1.17964 2.53988C1.00299 2.60068 0.810393 2.50677 0.749521 2.33013L0.210772 0.766357L1.52082 0.197408C1.69224 0.122976 1.89165 0.201578 1.96608 0.372997C2.04044 0.544384 1.96177 0.743505 1.79041 0.817936L1.55877 0.918662C2.82985 1.43001 3.75945 2.13492 4.40964 2.96825C5.19272 3.97197 5.55175 5.1376 5.63694 6.31908C5.8063 8.66828 4.89754 11.1209 4.01863 12.6602Z" fill="#F8D7DA"/>
<path id="Vector (Stroke) (Stroke)" d="M4.16541 12.744C4.02642 12.9872 3.71645 13.0721 3.47307 12.9333C3.22971 12.7943 3.14484 12.4841 3.28371 12.2406C4.11541 10.784 4.94588 8.50136 4.7929 6.37968C4.71715 5.32937 4.40204 4.33414 3.74255 3.48878C3.23153 2.83381 2.49628 2.2486 1.46056 1.7965L1.54922 2.05464C1.64055 2.31972 1.4996 2.60867 1.23464 2.69998C0.969706 2.79117 0.680647 2.65031 0.589299 2.3854L-0.000437043 0.673472L1.45333 0.04207C1.71035 -0.0694612 2.00953 0.0483773 2.12122 0.305451C2.21559 0.523161 2.14521 0.770765 1.96553 0.909246C3.08758 1.41569 3.93313 2.08246 4.54299 2.86412C5.35074 3.89946 5.71841 5.09917 5.8055 6.30677C5.97814 8.70146 5.05375 11.1882 4.16541 12.744ZM3.64063 12.6393C3.72171 12.6856 3.82502 12.6572 3.87138 12.5762L3.87178 12.5764C4.74124 11.0536 5.63397 8.6349 5.46789 6.33121C5.38459 5.176 5.0345 4.04445 4.27621 3.07244C3.64657 2.26545 2.74244 1.57717 1.49556 1.07554L1.12021 0.924669L1.72259 0.662683C1.80827 0.625389 1.84792 0.525855 1.81079 0.440287C1.7736 0.354717 1.67387 0.315374 1.58816 0.352493L0.42191 0.859305L0.909352 2.27501C0.939773 2.36327 1.03597 2.41023 1.12425 2.37993C1.21262 2.34948 1.25951 2.25328 1.22917 2.16503L0.900158 1.20908L1.23885 1.33933C2.50746 1.82634 3.40093 2.50067 4.00934 3.28045C4.71823 4.18909 5.05096 5.25245 5.13052 6.35524C5.29005 8.5679 4.42823 10.9185 3.57766 12.4082C3.53714 12.4792 3.55361 12.5675 3.61272 12.6195L3.64063 12.6393Z" fill="#F8D7DA"/>
</g>
</svg>
