<svg width="15" height="10" viewBox="0 0 15 10" fill="none" xmlns="http://www.w3.org/2000/svg">
<g id="Group 10" filter="url(#filter0_d_0_851)">
<path id="Vector (Stroke)" d="M2.17057 2.54111C2.11134 2.39513 2.1816 2.22866 2.32753 2.16932C2.47356 2.11 2.64024 2.18037 2.69956 2.3264C3.238 3.65193 4.33298 5.42033 5.85141 6.44621C6.60575 6.95584 7.45714 7.2774 8.39529 7.28077C9.20019 7.28364 10.0878 7.05162 11.0527 6.47569L10.5365 6.29633C10.3876 6.24461 10.3089 6.08196 10.3606 5.93307C10.4123 5.78425 10.575 5.70548 10.7238 5.75718L12.0415 6.21494L11.736 7.38016C11.696 7.53262 11.54 7.62388 11.3875 7.5839C11.2351 7.54388 11.1441 7.38794 11.1841 7.23551L11.238 7.02942C10.2365 7.60576 9.28463 7.8548 8.39323 7.85162C7.31958 7.84776 6.35957 7.47833 5.53177 6.91905C3.88582 5.80699 2.73317 3.92614 2.17057 2.54111Z" fill="#F7D6E5"/>
<path id="Vector (Stroke) (Stroke)" d="M2.03769 2.59485C1.94885 2.37593 2.05412 2.12615 2.273 2.03712C2.49197 1.94816 2.74193 2.05359 2.83097 2.27255C3.36336 3.5832 4.44412 5.32357 5.93067 6.32791C6.66658 6.82508 7.49071 7.13482 8.39494 7.1381C9.09555 7.1406 9.86677 6.95806 10.7063 6.5069L10.4889 6.43116C10.2656 6.35356 10.1474 6.1095 10.225 5.88622C10.3026 5.66301 10.5466 5.54475 10.7699 5.62224L12.2124 6.12341L11.8734 7.41648C11.8134 7.64504 11.5793 7.78201 11.3507 7.72208C11.1571 7.6712 11.0296 7.49548 11.0315 7.30416C10.1109 7.78425 9.22811 7.99742 8.39198 7.99443C7.28451 7.99045 6.29741 7.60899 5.45129 7.03736C3.77347 5.90377 2.60633 3.99476 2.03769 2.59485ZM2.38059 2.30142C2.30765 2.33107 2.27262 2.41436 2.30223 2.48737L2.30187 2.48751C2.85843 3.85767 3.99697 5.71024 5.61103 6.80075C6.42043 7.34759 7.35318 7.70518 8.39288 7.70895C9.25612 7.71203 10.1837 7.47122 11.1661 6.90586L11.4618 6.7356L11.3216 7.27158C11.3016 7.34782 11.347 7.42599 11.4231 7.44597C11.4992 7.4659 11.5772 7.42028 11.5973 7.3441L11.869 6.30662L10.6763 5.892C10.6019 5.86618 10.5207 5.90549 10.4947 5.97982C10.4689 6.05429 10.5082 6.13552 10.5826 6.1614L11.3879 6.44145L11.125 6.59815C10.1409 7.18555 9.22817 7.42656 8.39404 7.42358C7.4221 7.42009 6.54362 7.08652 5.77093 6.56451C4.22063 5.51711 3.11116 3.72055 2.56667 2.38014C2.54074 2.31629 2.4736 2.28118 2.40832 2.29328L2.38059 2.30142Z" fill="#F7D6E5"/>
</g>
<defs>
<filter id="filter0_d_0_851" x="0" y="0" width="14.2189" height="10" filterUnits="userSpaceOnUse" color-interpolation-filters="sRGB">
<feFlood flood-opacity="0" result="BackgroundImageFix"/>
<feColorMatrix in="SourceAlpha" type="matrix" values="0 0 0 0 0 0 0 0 0 0 0 0 0 0 0 0 0 0 127 0" result="hardAlpha"/>
<feOffset/>
<feGaussianBlur stdDeviation="1"/>
<feComposite in2="hardAlpha" operator="out"/>
<feColorMatrix type="matrix" values="0 0 0 0 0 0 0 0 0 0 0 0 0 0 0 0 0 0 0.44 0"/>
<feBlend mode="normal" in2="BackgroundImageFix" result="effect1_dropShadow_0_851"/>
<feBlend mode="normal" in="SourceGraphic" in2="effect1_dropShadow_0_851" result="shape"/>
</filter>
</defs>
</svg>
