<svg width="6" height="12" viewBox="0 0 6 12" fill="none" xmlns="http://www.w3.org/2000/svg">
<path id="Vector (Stroke)" d="M5.13206 0.0452127C5.29011 -0.0469726 5.49309 0.00634549 5.58539 0.164334C5.67767 0.32243 5.62428 0.525681 5.46618 0.617969C4.03112 1.4557 2.17872 3.00636 1.24984 4.92136C0.788406 5.87271 0.559189 6.9046 0.7101 7.98375C0.8396 8.90962 1.25279 9.89185 2.07411 10.9061L2.19514 10.2831C2.23004 10.1034 2.40404 9.98605 2.58374 10.0209C2.76337 10.0559 2.88077 10.2299 2.84589 10.4095L2.53702 12L1.14702 11.841C0.965147 11.8202 0.834483 11.6558 0.855298 11.474C0.876157 11.2921 1.04042 11.1618 1.22225 11.1825L1.46809 11.2106C0.640252 10.1542 0.196896 9.10093 0.0534795 8.07556C-0.119226 6.84055 0.147105 5.67587 0.653499 4.63188C1.66042 2.55605 3.63257 0.920537 5.13206 0.0452127Z" fill="#F8D7DA"/>
</svg>
