<svg width="17" height="7" viewBox="0 0 17 7" fill="none" xmlns="http://www.w3.org/2000/svg">
<g id="Group 5">
<path id="Vector (Stroke)" d="M0.315058 0.942831C0.164845 0.746987 0.201715 0.466299 0.397459 0.315953C0.593347 0.165595 0.874412 0.202524 1.02477 0.398412C2.38962 2.17653 4.77942 4.392 7.49989 5.30973C8.85139 5.76562 10.2712 5.89706 11.6897 5.51179C12.9067 5.1812 14.151 4.46141 15.3688 3.19001L14.5144 3.13388C14.268 3.11771 14.0815 2.90478 14.0976 2.65838C14.1139 2.41206 14.3268 2.2254 14.5731 2.24155L16.7539 2.38471L16.7773 4.27183C16.7804 4.51875 16.5826 4.72153 16.3357 4.72457C16.0889 4.72754 15.8865 4.52987 15.8834 4.28302L15.8791 3.94927C14.6061 5.23654 13.2719 6.00878 11.9241 6.37489C10.3008 6.81581 8.69692 6.65725 7.21382 6.15694C4.26486 5.1621 1.74116 2.80077 0.315058 0.942831Z" fill="#ECD9F3"/>
<path id="Vector (Stroke) (Stroke)" d="M0.137063 1.07905C-0.08821 0.78535 -0.0331233 0.364271 0.260448 0.138708C0.55419 -0.0867605 0.975636 -0.0315236 1.20123 0.262152C2.55076 2.02031 4.90741 4.19936 7.57077 5.09781C8.88924 5.54255 10.263 5.66749 11.6302 5.29619C12.6895 5.00844 13.7785 4.41182 14.859 3.38102L14.4991 3.35706C14.1294 3.3328 13.8494 3.01331 13.8736 2.64379C13.898 2.27436 14.2174 1.99418 14.5869 2.01833L16.9743 2.17511L17.0003 4.26928C17.0048 4.63947 16.7082 4.94375 16.3379 4.94839C16.0244 4.95206 15.7587 4.7397 15.6818 4.44996C14.491 5.55816 13.2463 6.24747 11.982 6.59088C10.3075 7.04567 8.65776 6.88023 7.14184 6.36888C4.13579 5.35478 1.57849 2.95694 0.137063 1.07905ZM0.532932 0.49316C0.435101 0.568302 0.416837 0.708678 0.491948 0.806629L0.491457 0.807003C1.90225 2.64499 4.39287 4.96947 7.28469 5.94502C8.73483 6.4342 10.2926 6.58622 11.8646 6.1593C13.1698 5.80475 14.4708 5.05506 15.7195 3.7923L16.0953 3.41211L16.1065 4.28003C16.1081 4.40349 16.2091 4.50269 16.3323 4.50121C16.4556 4.49965 16.5546 4.39825 16.5531 4.27484L16.532 2.5947L14.5578 2.46474C14.4347 2.45668 14.3283 2.54987 14.3201 2.67294C14.312 2.79617 14.4052 2.9025 14.5282 2.91065L15.8612 2.99856L15.5294 3.34464C14.2873 4.64135 13.0088 5.38519 11.7476 5.72777C10.278 6.12692 8.81228 5.98861 7.42791 5.52166C4.65035 4.58468 2.22695 2.3327 0.846775 0.534636C0.781028 0.448981 0.665013 0.423892 0.571437 0.469326L0.532932 0.49316Z" fill="#B068CD"/>
</g>
</svg>
