<svg width="15" height="10" viewBox="0 0 15 10" fill="none" xmlns="http://www.w3.org/2000/svg">
<g id="Group 10" filter="url(#filter0_d_0_537)">
<path id="Vector (Stroke)" d="M2.17057 2.54107C2.11134 2.39509 2.1816 2.22862 2.32753 2.16929C2.47355 2.10997 2.64024 2.18034 2.69956 2.32636C3.23799 3.65189 4.33297 5.42029 5.8514 6.44617C6.60574 6.9558 7.45713 7.27736 8.39527 7.28073C9.20018 7.2836 10.0878 7.05158 11.0527 6.47565L10.5365 6.29629C10.3876 6.24457 10.3089 6.08192 10.3606 5.93303C10.4123 5.78421 10.575 5.70544 10.7238 5.75714L12.0415 6.2149L11.736 7.38012C11.696 7.53258 11.54 7.62384 11.3875 7.58385C11.2351 7.54384 11.1441 7.3879 11.184 7.23547L11.238 7.02937C10.2365 7.60572 9.28461 7.85476 8.39321 7.85158C7.31957 7.84772 6.35956 7.47828 5.53177 6.91901C3.88581 5.80696 2.73316 3.92611 2.17057 2.54107Z" fill="#F7D6E5"/>
<path id="Vector (Stroke) (Stroke)" d="M2.03768 2.59483C1.94885 2.37591 2.05412 2.12614 2.273 2.0371C2.49196 1.94815 2.74193 2.05358 2.83096 2.27253C3.36335 3.58318 4.44411 5.32355 5.93066 6.32789C6.66657 6.82505 7.4907 7.1348 8.39493 7.13808C9.09554 7.14058 9.86675 6.95803 10.7063 6.50687L10.4889 6.43113C10.2656 6.35354 10.1474 6.10947 10.225 5.88619C10.3026 5.66299 10.5466 5.54473 10.7699 5.62222L12.2124 6.12339L11.8734 7.41645C11.8134 7.64501 11.5793 7.78198 11.3507 7.72206C11.1571 7.67117 11.0296 7.49546 11.0314 7.30414C10.1109 7.78422 9.2281 7.99739 8.39197 7.99441C7.2845 7.99042 6.2974 7.60896 5.45128 7.03733C3.77346 5.90375 2.60633 3.99473 2.03768 2.59483ZM2.38058 2.3014C2.30765 2.33106 2.27262 2.41434 2.30223 2.48735L2.30187 2.48749C2.85842 3.85765 3.99697 5.71022 5.61103 6.80073C6.42042 7.34756 7.35317 7.70516 8.39287 7.70893C9.2561 7.71201 10.1837 7.4712 11.1661 6.90583L11.4618 6.73557L11.3215 7.27155C11.3016 7.3478 11.347 7.42596 11.423 7.44594C11.4992 7.46588 11.5772 7.42025 11.5973 7.34407L11.869 6.30659L10.6763 5.89198C10.6019 5.86615 10.5206 5.90547 10.4947 5.9798C10.4689 6.05426 10.5082 6.1355 10.5825 6.16137L11.3879 6.44142L11.125 6.59813C10.1409 7.18552 9.22815 7.42653 8.39403 7.42356C7.42209 7.42006 6.54361 7.08649 5.77092 6.56449C4.22062 5.51708 3.11115 3.72052 2.56667 2.38012C2.54073 2.31627 2.4736 2.28116 2.40832 2.29326L2.38058 2.3014Z" fill="#F7D6E5"/>
</g>
<defs>
<filter id="filter0_d_0_537" x="0" y="0" width="14.2189" height="10" filterUnits="userSpaceOnUse" color-interpolation-filters="sRGB">
<feFlood flood-opacity="0" result="BackgroundImageFix"/>
<feColorMatrix in="SourceAlpha" type="matrix" values="0 0 0 0 0 0 0 0 0 0 0 0 0 0 0 0 0 0 127 0" result="hardAlpha"/>
<feOffset/>
<feGaussianBlur stdDeviation="1"/>
<feComposite in2="hardAlpha" operator="out"/>
<feColorMatrix type="matrix" values="0 0 0 0 0 0 0 0 0 0 0 0 0 0 0 0 0 0 0.44 0"/>
<feBlend mode="normal" in2="BackgroundImageFix" result="effect1_dropShadow_0_537"/>
<feBlend mode="normal" in="SourceGraphic" in2="effect1_dropShadow_0_537" result="shape"/>
</filter>
</defs>
</svg>
