<svg width="45" height="50" viewBox="0 0 45 50" fill="none" xmlns="http://www.w3.org/2000/svg">
<g id="Group">
<g id="Union" filter="url(#filter0_d_0_580)">
<path d="M5.19249 4.46627C14.1145 4.6749 31.6975 9.42637 39.8494 13.0706L39.8464 13.0805C41.2643 13.7136 40.4638 15.7571 38.8954 15.5078C36.0842 15.0628 29.3875 12.587 26.9591 13.3702C26.5832 13.4953 25.7068 14.0695 25.606 14.4493L23.9553 21.8898L23.9622 21.8918C24.0473 26.5429 24.1883 36.34 23.9494 40.3018C23.8218 42.4623 20.1744 42.4889 19.9936 40.2594C19.6868 36.4399 19.876 24.9555 19.8773 24.8739H19.3994C19.3836 25.1543 19.4679 39.8474 19.3885 40.1313C18.9479 42.5734 15.5186 42.4571 15.3007 39.9037C15.0459 33.1505 15.5702 26.8723 15.4268 20.0873L15.4387 20.0893L17.2963 12.5552C17.4042 12.1225 17.0161 11.2437 16.7238 10.9025C15.6533 9.64487 12.2345 8.87271 10.6107 8.42894C8.84915 7.94533 6.70617 7.62931 5.03086 7.04137C3.62758 6.54844 3.73519 4.43087 5.19249 4.46627Z" fill="url(#paint0_linear_0_580)"/>
</g>
<g id="Vector" filter="url(#filter1_d_0_580)">
<path d="M24.3525 6.9329C28.9236 6.57189 28.3768 -0.717461 23.3969 0.057663C19.4151 0.678824 19.9194 7.2833 24.3525 6.9329Z" fill="#ECD9F3"/>
</g>
</g>
<defs>
<filter id="filter0_d_0_580" x="0" y="4.46583" width="44.6193" height="45.5342" filterUnits="userSpaceOnUse" color-interpolation-filters="sRGB">
<feFlood flood-opacity="0" result="BackgroundImageFix"/>
<feColorMatrix in="SourceAlpha" type="matrix" values="0 0 0 0 0 0 0 0 0 0 0 0 0 0 0 0 0 0 127 0" result="hardAlpha"/>
<feOffset dy="4"/>
<feGaussianBlur stdDeviation="2"/>
<feComposite in2="hardAlpha" operator="out"/>
<feColorMatrix type="matrix" values="0 0 0 0 0 0 0 0 0 0 0 0 0 0 0 0 0 0 0.25 0"/>
<feBlend mode="normal" in2="BackgroundImageFix" result="effect1_dropShadow_0_580"/>
<feBlend mode="normal" in="SourceGraphic" in2="effect1_dropShadow_0_580" result="shape"/>
</filter>
<filter id="filter1_d_0_580" x="16.6588" y="0" width="14.8573" height="15.0196" filterUnits="userSpaceOnUse" color-interpolation-filters="sRGB">
<feFlood flood-opacity="0" result="BackgroundImageFix"/>
<feColorMatrix in="SourceAlpha" type="matrix" values="0 0 0 0 0 0 0 0 0 0 0 0 0 0 0 0 0 0 127 0" result="hardAlpha"/>
<feOffset dy="4"/>
<feGaussianBlur stdDeviation="2"/>
<feComposite in2="hardAlpha" operator="out"/>
<feColorMatrix type="matrix" values="0 0 0 0 0 0 0 0 0 0 0 0 0 0 0 0 0 0 0.18 0"/>
<feBlend mode="normal" in2="BackgroundImageFix" result="effect1_dropShadow_0_580"/>
<feBlend mode="normal" in="SourceGraphic" in2="effect1_dropShadow_0_580" result="shape"/>
</filter>
<linearGradient id="paint0_linear_0_580" x1="22.3098" y1="-2.82714" x2="22.3098" y2="41.9269" gradientUnits="userSpaceOnUse">
<stop stop-color="white"/>
<stop offset="1" stop-color="#D8B3E6"/>
</linearGradient>
</defs>
</svg>
