<svg width="39" height="28" viewBox="0 0 39 28" fill="none" xmlns="http://www.w3.org/2000/svg">
<g id="Group">
<path id="Vector" d="M17.8621 0.0521848C26.3253 -0.539941 33.9691 3.96381 38.748 10.6686C39.0889 11.1471 39.0829 11.805 38.736 12.2775C33.4488 19.4966 24.9258 24.1978 15.7448 22.529C9.5843 21.4106 3.86042 17.2777 0.247855 12.2117C-0.0990474 11.7213 -0.0751231 11.0633 0.27776 10.5789C4.33891 4.96863 10.8463 0.542633 17.8621 0.0521848ZM18.3645 2.37284C14.9673 2.71974 11.9408 5.33347 10.8762 8.53334C8.0053 17.1999 18.3167 24.2994 25.3026 18.4141C32.2346 12.5765 27.384 1.45774 18.3585 2.37284H18.3645Z" fill="url(#paint0_linear_0_873)"/>
<path id="Vector_2" d="M18.3637 2.37296C27.3891 1.45786 32.2398 12.5767 25.3077 18.4142C18.3158 24.2996 8.00447 17.2 10.8814 8.53346C11.94 5.33359 14.9724 2.71986 18.3697 2.37296H18.3637ZM18.3637 3.79048C17.9689 3.83234 15.8397 4.40653 15.7679 4.73548L16.3062 5.79413C17.2333 5.92572 17.945 6.0274 18.4056 6.93054C19.7633 9.60408 15.744 11.0336 14.799 8.6172C14.6255 8.16862 14.7451 7.37314 14.7033 7.30734C14.6674 7.24753 13.6087 6.50588 13.531 6.54177C8.83584 12.481 14.3803 21.016 21.7729 18.8329C30.3498 16.2969 28.1607 2.68996 18.3637 3.79646V3.79048Z" fill="#2450BE"/>
<g id="Vector_3" filter="url(#filter0_d_0_873)">
<path d="M18.363 3.79043C28.16 2.68393 30.3491 16.2909 21.7723 18.8268C14.3797 21.0099 8.8352 12.4809 13.5303 6.53574C13.6021 6.49986 14.6608 7.24151 14.7026 7.30132C14.7445 7.36711 14.6249 8.16857 14.7983 8.61117C15.7433 11.0275 19.7626 9.59805 18.4049 6.92451C17.9444 6.02137 17.2326 5.92567 16.3056 5.78811L15.7673 4.72946C15.845 4.4005 17.9743 3.8323 18.363 3.78445V3.79043Z" fill="url(#paint1_linear_0_873)"/>
</g>
</g>
<defs>
<filter id="filter0_d_0_873" x="7.79688" y="3.72658" width="23.3203" height="23.4495" filterUnits="userSpaceOnUse" color-interpolation-filters="sRGB">
<feFlood flood-opacity="0" result="BackgroundImageFix"/>
<feColorMatrix in="SourceAlpha" type="matrix" values="0 0 0 0 0 0 0 0 0 0 0 0 0 0 0 0 0 0 127 0" result="hardAlpha"/>
<feOffset dy="4"/>
<feGaussianBlur stdDeviation="2"/>
<feComposite in2="hardAlpha" operator="out"/>
<feColorMatrix type="matrix" values="0 0 0 0 0 0 0 0 0 0 0 0 0 0 0 0 0 0 0.25 0"/>
<feBlend mode="normal" in2="BackgroundImageFix" result="effect1_dropShadow_0_873"/>
<feBlend mode="normal" in="SourceGraphic" in2="effect1_dropShadow_0_873" result="shape"/>
</filter>
<linearGradient id="paint0_linear_0_873" x1="19.5" y1="-9.11215" x2="19.5" y2="22.8661" gradientUnits="userSpaceOnUse">
<stop stop-color="white"/>
<stop offset="1" stop-color="#B6C5E9"/>
</linearGradient>
<linearGradient id="paint1_linear_0_873" x1="19.4566" y1="3.72658" x2="19.4566" y2="19.1761" gradientUnits="userSpaceOnUse">
<stop stop-color="white"/>
<stop offset="1" stop-color="#DFE6F5"/>
</linearGradient>
</defs>
</svg>
