<svg width="24" height="24" viewBox="0 0 24 24" fill="none" xmlns="http://www.w3.org/2000/svg">
<path d="M10.3819 2.71215C10.8603 2.67447 11.3278 2.8685 11.6397 3.23363C11.9187 3.56038 11.9645 3.95277 11.9815 4.14379C12.0013 4.36757 12 4.64875 12 4.93187V19.0686C12 19.3515 12.0012 19.632 11.9815 19.8557C11.9645 20.0465 11.92 20.4408 11.6406 20.7678L11.6397 20.7668C11.3278 21.1318 10.8609 21.3257 10.3828 21.2883H10.3819C9.95347 21.2544 9.64399 21.008 9.49708 20.885C9.32485 20.7408 9.12694 20.5412 8.92677 20.3411L5.76173 17.176C5.6691 17.0834 5.62201 17.0371 5.58693 17.0051C5.58566 17.004 5.58416 17.0032 5.58302 17.0022H5.58107C5.53365 17 5.46795 17.0002 5.33693 17.0002H3.59962C3.33624 17.0002 3.07816 17.0013 2.86134 16.9836C2.63283 16.9649 2.36308 16.9207 2.09181 16.7825C1.71541 16.5907 1.40946 16.2846 1.21779 15.9084C1.07949 15.637 1.03529 15.3665 1.01662 15.1379C0.998934 14.9211 1.00001 14.663 1.00001 14.3996V9.59984C1.00001 9.33642 0.9989 9.07839 1.01662 8.86156C1.03531 8.63304 1.07956 8.36332 1.21779 8.09203C1.40951 7.71577 1.71554 7.40975 2.09181 7.21801C2.36307 7.0798 2.63284 7.03553 2.86134 7.01683C3.07815 6.99912 3.33623 7.00023 3.59962 7.00023H5.33693C5.46788 7.00023 5.53358 6.99947 5.58107 6.9973L5.58693 6.99535C5.62204 6.96331 5.6691 6.91708 5.76173 6.82445L8.92677 3.65844C9.12689 3.45832 9.32486 3.25967 9.49708 3.11547C9.64398 2.9925 9.95349 2.74604 10.3819 2.71215ZM21.293 8.2932C21.6835 7.90268 22.3165 7.90268 22.707 8.2932C23.0975 8.68373 23.0976 9.31675 22.707 9.70726L20.4141 12.0002L22.707 14.2932L22.7754 14.3694C23.0957 14.7621 23.0731 15.3412 22.707 15.7073C22.3409 16.0733 21.7619 16.0959 21.3692 15.7756L21.293 15.7073L19 13.4143L16.707 15.7073C16.3165 16.0977 15.6835 16.0977 15.293 15.7073C14.9025 15.3168 14.9025 14.6837 15.293 14.2932L17.586 12.0002L15.293 9.70726L15.2246 9.63109C14.9042 9.23833 14.9269 8.65933 15.293 8.2932C15.6591 7.92707 16.2381 7.90446 16.6309 8.22484L16.707 8.2932L19 10.5862L21.293 8.2932ZM3.00001 14.3996C3.00001 14.6962 3.00123 14.8592 3.01076 14.9758C3.01109 14.9799 3.01139 14.9838 3.01173 14.9875C3.01576 14.9879 3.01994 14.9891 3.02443 14.9895C3.14096 14.999 3.30334 15.0002 3.59962 15.0002H5.33693C5.53381 15.0002 5.79645 14.994 6.05372 15.0559H6.05275C6.20562 15.0926 6.35345 15.1469 6.49318 15.218L6.63087 15.2952L6.79103 15.4065C6.94355 15.5247 7.07134 15.6575 7.1758 15.762L10 18.5852V5.4143L7.1758 8.23851C7.03654 8.37777 6.85614 8.56725 6.63087 8.70531C6.45194 8.81497 6.25675 8.89557 6.05275 8.94457C5.7958 9.00625 5.53392 9.00023 5.33693 9.00023H3.59962C3.30335 9.00023 3.14096 9.00048 3.02443 9.01C3.01997 9.01036 3.01573 9.01061 3.01173 9.01097C3.01133 9.01526 3.01115 9.01983 3.01076 9.02465C3.00123 9.14119 3.00001 9.30351 3.00001 9.59984V14.3996Z" fill="black"/>
</svg>
