<svg width="53" height="54" viewBox="0 0 53 54" fill="none" xmlns="http://www.w3.org/2000/svg">
<g filter="url(#filter0_i_40002059_81440)">
<rect x="0.0976562" width="52" height="52" rx="8" fill="#FFC107"/>
</g>
<g filter="url(#filter1_d_40002059_81440)">
<path d="M27.7922 6.81134V19.5254C27.7922 20.0037 28.9575 21.6734 29.5576 21.8038C29.5228 19.6645 28.9054 16.7338 30.4446 14.9772C33.01 12.0465 37.506 16.3338 39.254 18.3601C42.4542 22.0647 44.7501 27.6477 45.411 32.4829C45.7414 34.9352 46.1241 41.1531 45.2545 43.3098C43.7674 46.9796 39.0279 44.0751 36.6538 43.1533C33.497 41.9271 30.062 41.6314 29.7054 37.4572C29.6359 36.6397 29.8446 35.9701 29.8533 35.257C29.8881 32.1611 29.7402 29.1 29.5228 26.0215L26.0965 23.1256L22.6701 26.0302C22.7484 27.5955 22.3918 29.1522 22.3396 30.7001C22.2527 33.1699 22.9136 37.2398 22.0179 39.3443C20.983 41.7705 18.4176 42.0314 16.287 42.8663C14.6695 43.5011 11.3562 45.1621 9.77346 45.1882C7.00803 45.2317 6.58191 42.2315 6.46886 40.1182C6.06883 32.9699 7.5559 25.6824 11.791 19.8558C13.4346 17.5948 17.9306 12.577 21.0439 14.3684C23.4789 15.7685 22.6092 19.5167 22.644 21.8125C22.931 22.143 24.4094 19.9167 24.4094 19.5341V6.81134H27.7922Z" fill="url(#paint0_linear_40002059_81440)"/>
</g>
<defs>
<filter id="filter0_i_40002059_81440" x="0.0976562" y="0" width="52" height="76" filterUnits="userSpaceOnUse" color-interpolation-filters="sRGB">
<feFlood flood-opacity="0" result="BackgroundImageFix"/>
<feBlend mode="normal" in="SourceGraphic" in2="BackgroundImageFix" result="shape"/>
<feColorMatrix in="SourceAlpha" type="matrix" values="0 0 0 0 0 0 0 0 0 0 0 0 0 0 0 0 0 0 127 0" result="hardAlpha"/>
<feOffset dy="24"/>
<feGaussianBlur stdDeviation="12"/>
<feComposite in2="hardAlpha" operator="arithmetic" k2="-1" k3="1"/>
<feColorMatrix type="matrix" values="0 0 0 0 1 0 0 0 0 1 0 0 0 0 1 0 0 0 0.46 0"/>
<feBlend mode="normal" in2="shape" result="effect1_innerShadow_40002059_81440"/>
</filter>
<filter id="filter1_d_40002059_81440" x="2.40625" y="6.81134" width="47.3789" height="46.3773" filterUnits="userSpaceOnUse" color-interpolation-filters="sRGB">
<feFlood flood-opacity="0" result="BackgroundImageFix"/>
<feColorMatrix in="SourceAlpha" type="matrix" values="0 0 0 0 0 0 0 0 0 0 0 0 0 0 0 0 0 0 127 0" result="hardAlpha"/>
<feOffset dy="4"/>
<feGaussianBlur stdDeviation="2"/>
<feComposite in2="hardAlpha" operator="out"/>
<feColorMatrix type="matrix" values="0 0 0 0 0 0 0 0 0 0 0 0 0 0 0 0 0 0 0.25 0"/>
<feBlend mode="normal" in2="BackgroundImageFix" result="effect1_dropShadow_40002059_81440"/>
<feBlend mode="normal" in="SourceGraphic" in2="effect1_dropShadow_40002059_81440" result="shape"/>
</filter>
<linearGradient id="paint0_linear_40002059_81440" x1="26.0964" y1="6.81134" x2="26.0964" y2="45.1887" gradientUnits="userSpaceOnUse">
<stop stop-color="white"/>
<stop offset="1" stop-color="#FFE69C"/>
</linearGradient>
</defs>
</svg>
