<svg width="53" height="57" viewBox="0 0 53 57" fill="none" xmlns="http://www.w3.org/2000/svg">
<g filter="url(#filter0_i_40002059_81422)">
<rect x="0.0976562" width="52" height="52" rx="8" fill="#20C97D"/>
</g>
<g filter="url(#filter1_d_40002059_81422)">
<path d="M41.8778 9.08171C41.9879 9.19089 41.9888 9.36878 41.8797 9.47901C41.7705 9.58926 41.5923 9.59013 41.4821 9.48093C40.4813 8.48972 38.8053 7.31323 37.0336 6.97281C36.1534 6.80372 35.2582 6.84243 34.4077 7.20275C33.678 7.51191 32.9645 8.06571 32.3142 8.9607L32.8509 8.92311C33.0057 8.91226 33.1399 9.02899 33.1508 9.18378C33.1616 9.33852 33.0449 9.47281 32.8901 9.48367L31.5201 9.57971L31.3454 8.40673C31.3225 8.25325 31.4284 8.11021 31.5819 8.08735C31.7353 8.06454 31.8781 8.17043 31.901 8.32387L31.932 8.5313C32.6153 7.62174 33.3804 7.02765 34.1885 6.68526C35.1618 6.2729 36.1738 6.23545 37.1397 6.42103C39.0603 6.79006 40.8321 8.046 41.8778 9.08171Z" fill="#D2F4E5"/>
<path d="M41.9767 8.98184C42.1419 9.14558 42.1434 9.41243 41.9798 9.5778C41.816 9.74312 41.5489 9.74451 41.3835 9.58082C40.394 8.60073 38.7417 7.4441 37.0071 7.11084C36.1485 6.94588 35.2825 6.98473 34.4628 7.33199C33.8277 7.60109 33.2003 8.06502 32.6151 8.79855L32.8412 8.78291C33.0734 8.76663 33.2749 8.94178 33.2912 9.17391C33.3074 9.40599 33.1323 9.60756 32.9002 9.62389L31.4004 9.72898L31.2065 8.42732C31.1722 8.19721 31.331 7.98258 31.5612 7.94825C31.7561 7.91934 31.9396 8.029 32.012 8.20287C32.6594 7.41178 33.3758 6.87692 34.1338 6.55576C35.1378 6.13042 36.179 6.09336 37.1663 6.28303C39.124 6.6592 40.9198 7.93501 41.9767 8.98184ZM41.78 9.38024C41.8345 9.32515 41.834 9.2362 41.7789 9.18159L41.7792 9.18132C40.7447 8.15673 38.9967 6.92093 37.1133 6.55906C36.1689 6.37761 35.1861 6.41522 34.2436 6.8145C33.461 7.14607 32.7147 7.7233 32.0444 8.61554L31.8427 8.88416L31.7621 8.34473C31.7506 8.268 31.6793 8.21481 31.6027 8.2262C31.526 8.23764 31.4731 8.30917 31.4844 8.38589L31.6403 9.43018L32.8805 9.34348C32.9578 9.33804 33.0161 9.27098 33.0108 9.19366C33.0054 9.11625 32.9383 9.05796 32.861 9.06333L32.0236 9.12178L32.2008 8.87812C32.864 7.96531 33.5969 7.39363 34.3531 7.07325C35.2342 6.69996 36.1585 6.66162 37.0601 6.83481C38.869 7.18237 40.5691 8.37874 41.5811 9.38107C41.6293 9.42881 41.7037 9.43459 41.7581 9.39835L41.78 9.38024Z" fill="#D2F4E5"/>
<path d="M10.173 8.94117C10.0629 9.05036 10.062 9.22825 10.1711 9.33848C10.2803 9.44873 10.4584 9.4496 10.5687 9.3404C11.5694 8.34919 13.2455 7.17269 15.0172 6.83228C15.8974 6.66318 16.7926 6.70189 17.6431 7.06221C18.3727 7.37137 19.0863 7.92517 19.7366 8.82017L19.1999 8.78258C19.0451 8.77173 18.9109 8.88846 18.9 9.04324C18.8892 9.19799 19.0059 9.33228 19.1607 9.34314L20.5306 9.43917L20.7054 8.2662C20.7283 8.11272 20.6224 7.96967 20.4689 7.94682C20.3155 7.92401 20.1727 8.0299 20.1498 8.18333L20.1188 8.39076C19.4355 7.4812 18.6704 6.88711 17.8623 6.54473C16.889 6.13237 15.8769 6.09492 14.911 6.2805C12.9905 6.64952 11.2187 7.90546 10.173 8.94117Z" fill="#D2F4E5"/>
<path d="M10.074 8.84131C9.90885 9.00505 9.90739 9.2719 10.071 9.43726C10.2348 9.60259 10.5019 9.60398 10.6673 9.44028C11.6568 8.4602 13.3091 7.30357 15.0436 6.9703C15.9023 6.80535 16.7682 6.84419 17.588 7.19145C18.2231 7.46056 18.8505 7.92449 19.4357 8.65802L19.2096 8.64238C18.9773 8.6261 18.7759 8.80125 18.7596 9.03337C18.7434 9.26546 18.9185 9.46703 19.1506 9.48336L20.6503 9.58845L20.8443 8.28678C20.8785 8.05667 20.7197 7.84204 20.4896 7.80771C20.2947 7.77881 20.1112 7.88847 20.0387 8.06234C19.3914 7.27125 18.6749 6.73638 17.917 6.41523C16.913 5.98989 15.8718 5.95283 14.8845 6.1425C12.9268 6.51866 11.1309 7.79448 10.074 8.84131ZM10.2708 9.23971C10.2162 9.18462 10.2168 9.09567 10.2719 9.04106L10.2716 9.04078C11.306 8.0162 13.0541 6.7804 14.9374 6.41852C15.8819 6.23707 16.8647 6.27468 17.8072 6.67397C18.5898 7.00554 19.3361 7.58277 20.0064 8.47501L20.208 8.74363L20.2887 8.20419C20.3002 8.12747 20.3715 8.07427 20.4481 8.08566C20.5247 8.0971 20.5777 8.16863 20.5664 8.24535L20.4105 9.28965L19.1703 9.20294C19.093 9.19751 19.0347 9.13045 19.04 9.05313C19.0454 8.97571 19.1125 8.91743 19.1898 8.9228L20.0272 8.98124L19.85 8.73759C19.1867 7.82478 18.4539 7.2531 17.6977 6.93271C16.8166 6.55942 15.8923 6.52109 14.9907 6.69428C13.1818 7.04183 11.4817 8.2382 10.4697 9.24053C10.4215 9.28828 10.3471 9.29405 10.2927 9.25782L10.2708 9.23971Z" fill="#D2F4E5"/>
<path d="M32.3135 11.0341C32.9317 11.0341 34.5062 11.5493 35.1875 11.744C36.447 12.1047 39.8482 13.1465 40.5352 14.2343C40.9928 14.9669 40.4486 15.6595 39.8418 16.0487C38.6339 16.8272 36.854 17.2401 35.4629 17.5721C34.5126 17.7954 32.9088 17.9385 32.1016 18.2762C31.4494 18.5511 31.4607 19.1008 31.3291 19.7303C30.917 21.6711 30.665 24.5108 30.9111 26.4686C31.1574 28.426 32.2628 28.2085 33.7168 28.9813C36.4416 30.4296 36.636 31.6953 36.5215 34.6893C36.447 36.6814 36.1781 38.9825 35.9434 40.9803C35.8861 41.4555 35.5311 44.4327 35.3594 44.5643C35.2971 44.6153 35.1619 44.6039 35.0703 44.6093C35.0137 44.7016 35.4005 45.465 35.4795 45.6005C35.8173 46.1844 37.4146 47.6616 36.5215 48.2284C35.9946 48.5603 33.6137 48.5713 33.0469 48.3309C32.3942 48.0504 32.6172 47.6615 32.4111 47.2264C32.1478 46.6769 31.7925 47.0544 31.8955 45.9266C31.93 45.5544 32.3021 44.6558 32.2734 44.4784C32.2617 44.4156 32.0963 44.4268 32.0791 44.3524C32.0333 44.1746 31.9928 43.2931 31.9756 43.0184C31.8325 40.1962 32.1245 37.2761 31.9355 34.4481L26.6807 32.9315L25.3584 32.9139L20.1201 34.4481L19.9824 44.2782L19.6904 44.5643C19.9652 45.0909 20.3202 46.1041 20.1543 46.6766C20.0741 46.9457 19.6563 47.0835 19.6162 47.1522C19.5247 47.3126 19.616 47.9245 19.376 48.1708C19.313 48.2337 18.843 48.4175 18.7285 48.4462C18.0072 48.6007 16.9026 48.5891 16.1699 48.4803C13.8574 48.1426 16.9474 45.7386 16.9883 44.6678L16.5986 44.4442C16.4097 43.3566 16.2614 42.2631 16.124 41.1698C15.8206 38.6852 15.2313 34.5914 15.5576 32.2098C15.9413 29.3881 18.5796 29.2561 20.3428 27.9969C20.606 27.8081 20.7323 27.516 20.8125 27.2069C21.2533 25.501 20.8465 20.91 20.3428 19.1522C20.1252 18.4023 19.9881 18.3907 19.2725 18.1903C17.5093 17.698 12.1863 17.0336 11.2354 15.4882C10.285 13.9424 13.1189 12.9118 14.2295 12.4882C15.3404 12.0644 18.3508 11.0513 19.3584 11.0341C20.0797 11.0169 21.8435 12.1103 22.29 12.6542C22.5647 12.9862 22.7021 13.3985 22.9482 13.7362C24.5797 13.6446 26.234 13.6045 27.8711 13.6503C28.1287 13.656 28.444 13.7816 28.6387 13.7587C28.9075 13.7299 28.8958 13.3922 29.0332 13.1747C29.2164 12.8828 29.3998 12.5853 29.6631 12.3563C30.0866 11.9843 31.7807 11.0402 32.3135 11.0341ZM17.0801 14.0282C18.1047 14.1427 19.1521 14.3252 20.1768 14.1249C20.1879 13.8677 19.9197 13.8558 19.748 13.6327C19.5764 13.4096 19.399 13.1294 19.2959 12.8719L17.0801 14.0282ZM32.5996 12.8719C32.3309 12.8724 32.2392 13.2554 32.1133 13.4442L31.4893 14.1249C32.5255 14.2909 33.5507 14.1541 34.5869 14.0282C34.3465 13.7763 32.8229 12.8662 32.5996 12.8719ZM25.374 3.99207C27.2001 3.77466 29.2094 4.83396 29.3584 6.82019C29.3813 7.135 29.358 7.45017 29.3809 7.66199C29.398 7.83946 29.5125 7.70835 29.5469 7.97742C29.6783 8.96156 29.2379 9.16761 28.8945 9.84851C28.7686 10.1004 28.7285 10.7707 28.6025 10.994C27.2686 13.404 24.5952 13.3812 23.2441 10.994C23.0896 10.7193 23.0553 10.0496 22.918 9.79187C22.5459 9.07065 22.0533 8.9673 22.3164 7.89148C22.4366 7.40489 22.4485 8.07992 22.5 6.92371C22.5687 5.38372 23.8511 4.17038 25.3682 3.98718L25.374 3.99207Z" fill="url(#paint0_linear_40002059_81422)"/>
<path d="M26.6502 36.9561V45.7094L26.7934 45.8526H29.5527V47.112H22.4883V45.8526H25.2935V37.0993C25.6312 36.8016 26.2209 37.0134 26.6502 36.9561Z" fill="#D2F4E5"/>
<path d="M20.8477 36.1832L20.9393 34.9696L25.5363 33.6643C27.4599 33.6815 29.2632 34.6604 31.1467 35.0096L31.2039 36.1832H20.8534H20.8477Z" fill="#D2F4E5"/>
</g>
<defs>
<filter id="filter0_i_40002059_81422" x="0.0976562" y="0" width="52" height="76" filterUnits="userSpaceOnUse" color-interpolation-filters="sRGB">
<feFlood flood-opacity="0" result="BackgroundImageFix"/>
<feBlend mode="normal" in="SourceGraphic" in2="BackgroundImageFix" result="shape"/>
<feColorMatrix in="SourceAlpha" type="matrix" values="0 0 0 0 0 0 0 0 0 0 0 0 0 0 0 0 0 0 127 0" result="hardAlpha"/>
<feOffset dy="24"/>
<feGaussianBlur stdDeviation="12"/>
<feComposite in2="hardAlpha" operator="arithmetic" k2="-1" k3="1"/>
<feColorMatrix type="matrix" values="0 0 0 0 1 0 0 0 0 1 0 0 0 0 1 0 0 0 0.46 0"/>
<feBlend mode="normal" in2="shape" result="effect1_innerShadow_40002059_81422"/>
</filter>
<filter id="filter1_d_40002059_81422" x="5.94922" y="3.96408" width="40.1523" height="52.5981" filterUnits="userSpaceOnUse" color-interpolation-filters="sRGB">
<feFlood flood-opacity="0" result="BackgroundImageFix"/>
<feColorMatrix in="SourceAlpha" type="matrix" values="0 0 0 0 0 0 0 0 0 0 0 0 0 0 0 0 0 0 127 0" result="hardAlpha"/>
<feOffset dy="4"/>
<feGaussianBlur stdDeviation="2"/>
<feComposite in2="hardAlpha" operator="out"/>
<feColorMatrix type="matrix" values="0 0 0 0 0 0 0 0 0 0 0 0 0 0 0 0 0 0 0.25 0"/>
<feBlend mode="normal" in2="BackgroundImageFix" result="effect1_dropShadow_40002059_81422"/>
<feBlend mode="normal" in="SourceGraphic" in2="effect1_dropShadow_40002059_81422" result="shape"/>
</filter>
<linearGradient id="paint0_linear_40002059_81422" x1="25.874" y1="3.96472" x2="25.874" y2="48.5618" gradientUnits="userSpaceOnUse">
<stop stop-color="white"/>
<stop offset="1" stop-color="#A6E9CB"/>
</linearGradient>
</defs>
</svg>
