<svg width="52" height="54" viewBox="0 0 52 54" fill="none" xmlns="http://www.w3.org/2000/svg">
<g filter="url(#filter0_i_40003150_951)">
<rect width="52" height="52" rx="8" fill="#0A99C0"/>
</g>
<g filter="url(#filter1_d_40003150_951)">
<path d="M33.1473 19.9456C33.3392 20.0742 33.3907 20.334 33.2623 20.526C33.1337 20.7181 32.8735 20.7697 32.6815 20.6411C30.9382 19.4743 28.1551 18.2273 25.4682 18.2299C24.1334 18.2312 22.8353 18.5406 21.6934 19.3077C20.7138 19.9658 19.8267 20.9771 19.1286 22.4695L19.9028 22.263C20.126 22.2034 20.3553 22.3362 20.4149 22.5594C20.4744 22.7827 20.3417 23.012 20.1185 23.0716L18.1423 23.5989L17.5554 21.933C17.4787 21.7151 17.5931 21.476 17.8111 21.3992C18.029 21.3225 18.2677 21.4371 18.3445 21.655L18.4484 21.9495C19.1907 20.4265 20.1418 19.3417 21.2267 18.6129C22.5335 17.735 24.0028 17.3944 25.4676 17.393C28.3802 17.3903 31.3257 18.7264 33.1473 19.9456Z" fill="#CFF2FC"/>
<path d="M33.2636 19.7717C33.5514 19.9645 33.6289 20.3543 33.4363 20.6423C33.2435 20.9303 32.8534 21.0077 32.5653 20.8151C30.8416 19.6614 28.0988 18.4367 25.4683 18.4392C24.1661 18.4405 22.9109 18.7418 21.8103 19.4811C20.9575 20.054 20.1712 20.9096 19.5226 22.1474L19.8488 22.0607C20.1838 21.9713 20.5279 22.1706 20.6172 22.5054C20.7065 22.8402 20.5073 23.1844 20.1726 23.2738L18.0092 23.851L17.3579 22.0024C17.2429 21.6756 17.4145 21.3169 17.7414 21.2017C18.0182 21.1044 18.3175 21.2129 18.4725 21.4467C19.1957 20.1071 20.0923 19.1227 21.11 18.439C22.4579 17.5335 23.97 17.1853 25.4672 17.1838C28.4362 17.181 31.4225 18.5394 33.2636 19.7717ZM33.0884 20.4098C33.1526 20.3139 33.1267 20.1839 33.0307 20.1196L33.031 20.1192C31.2291 18.9131 28.3239 17.5997 25.4678 17.6024C24.0355 17.6038 22.609 17.9363 21.3435 18.7863C20.2929 19.4922 19.3646 20.547 18.6364 22.041L18.4174 22.4908L18.1471 21.7247C18.1086 21.6158 17.9893 21.5581 17.8805 21.5964C17.7717 21.6348 17.7144 21.7544 17.7527 21.8633L18.2755 23.3464L20.0645 22.8693C20.176 22.8396 20.2424 22.725 20.2128 22.6135C20.183 22.5018 20.0684 22.4355 19.9569 22.4652L18.7489 22.7871L18.9392 22.3808C19.6513 20.8587 20.5615 19.8158 21.5767 19.1338C22.7597 18.3391 24.1005 18.022 25.4678 18.0206C28.2111 18.018 31.0349 19.2873 32.7978 20.4672C32.8818 20.5234 32.9921 20.5108 33.0614 20.4425L33.0884 20.4098Z" fill="#0A99C0"/>
<path d="M26.8298 36.0513V44.5883L26.9694 44.7279H29.6605V45.9562H22.7707V44.7279H25.5065V36.1909C25.8359 35.9005 26.411 36.1071 26.8298 36.0513Z" fill="#CFF2FC"/>
<path d="M21.1682 35.2974L21.2576 34.1138L25.741 32.8408C27.617 32.8575 29.3758 33.8123 31.2127 34.1529L31.2686 35.2974H21.1738H21.1682Z" fill="#CFF2FC"/>
<path d="M32.2808 11.1468C32.8841 11.147 34.4193 11.6494 35.0835 11.8391C36.312 12.1909 39.6282 13.2071 40.2984 14.2679C40.745 14.9825 40.2144 15.6587 39.6226 16.0384C38.4445 16.7977 36.7079 17.1999 35.3511 17.5237C34.4242 17.7414 32.861 17.8808 32.0738 18.2102C31.4373 18.4782 31.4483 19.0141 31.3199 19.6282C30.9179 21.5208 30.6726 24.29 30.9126 26.1995C31.1527 28.1089 32.23 27.8971 33.648 28.6507C36.3057 30.0633 36.496 31.2979 36.3843 34.218C36.3117 36.161 36.0488 38.4053 35.8199 40.3538C35.764 40.8174 35.418 43.7205 35.2505 43.8489C35.1896 43.8986 35.0576 43.8876 34.9683 43.8929C34.914 43.9843 35.291 44.7281 35.3677 44.8596C35.6971 45.4291 37.2548 46.8693 36.3843 47.4221C35.8706 47.746 33.5474 47.7572 32.9947 47.5227C32.3587 47.2492 32.5762 46.8697 32.3755 46.4456C32.1187 45.9096 31.7722 46.2777 31.8726 45.178C31.9061 44.8151 32.2687 43.938 32.2408 43.7649C32.229 43.704 32.0686 43.7148 32.0513 43.6429C32.0066 43.4698 31.9675 42.6091 31.9507 42.3411C31.8112 39.5886 32.0959 36.7408 31.9117 33.9827L26.7867 32.5032L25.4966 32.4866L20.3872 33.9827L20.2534 43.5696L19.9693 43.8489C20.2373 44.3626 20.5833 45.3511 20.4214 45.9095C20.3432 46.1717 19.9353 46.3053 19.896 46.3723C19.8067 46.5287 19.8962 47.1264 19.6617 47.3665C19.5998 47.428 19.1424 47.6062 19.0308 47.6341C18.3273 47.7848 17.2493 47.7743 16.5347 47.6682C14.2799 47.3386 17.2944 44.9935 17.3335 43.9495L16.9536 43.7317C16.7694 42.671 16.6247 41.6046 16.4908 40.5384C16.1948 38.1152 15.6198 34.1228 15.938 31.8001C16.3121 29.0476 18.8853 28.9188 20.605 27.6907C20.8618 27.5065 20.9849 27.2217 21.063 26.9202C21.4929 25.2564 21.0963 20.779 20.605 19.0647C20.3928 18.3333 20.259 18.3217 19.5611 18.1263C17.8411 17.6461 12.649 16.9979 11.7222 15.4905C10.7962 13.9834 13.5588 12.9789 14.6421 12.5657C15.7253 12.1525 18.6623 11.1636 19.6451 11.1468C20.3484 11.13 22.0674 12.1963 22.5034 12.7268C22.7715 13.0507 22.9059 13.4531 23.146 13.7825C24.7372 13.6932 26.351 13.6539 27.9478 13.6985C28.199 13.7042 28.506 13.8273 28.6958 13.805C28.958 13.777 28.9469 13.4478 29.0806 13.2356C29.2592 12.9509 29.4381 12.6601 29.6949 12.4368C30.108 12.0739 31.7615 11.1523 32.2808 11.1468ZM17.4234 14.0677C18.4226 14.1793 19.4446 14.3578 20.4439 14.1624C20.455 13.9111 20.1924 13.8996 20.0249 13.6819C19.8575 13.4642 19.684 13.1909 19.5835 12.9397L17.4234 14.0677ZM32.5591 12.9397C32.297 12.9401 32.2073 13.3132 32.0845 13.4973L31.4761 14.1624C32.4866 14.3243 33.4861 14.1905 34.4966 14.0677C34.2621 13.822 32.7769 12.9341 32.5591 12.9397ZM25.5122 4.27957C27.2931 4.06764 29.2526 5.10037 29.398 7.03738C29.4203 7.34447 29.3981 7.65209 29.4204 7.85867C29.4372 8.0315 29.549 7.90332 29.5826 8.16531C29.711 9.12563 29.2808 9.3271 28.9458 9.99149C28.823 10.2371 28.7834 10.8897 28.6607 11.1077C27.3597 13.4583 24.7528 13.436 23.4351 11.1077C23.2845 10.8397 23.2506 10.1872 23.1167 9.93582C22.7539 9.23243 22.2733 9.13152 22.5298 8.08231C22.6471 7.60772 22.6583 8.26581 22.7085 7.13797C22.7757 5.63619 24.0269 4.45237 25.5064 4.27371L25.5122 4.27957Z" fill="url(#paint0_linear_40003150_951)"/>
<path d="M18.852 26.6326C18.6601 26.504 18.6086 26.2442 18.737 26.0522C18.8656 25.8601 19.1258 25.8085 19.3178 25.9371C21.0611 27.1039 23.8442 28.3509 26.5311 28.3483C27.8659 28.347 29.164 28.0376 30.3059 27.2705C31.2855 26.6124 32.1726 25.6011 32.8707 24.1087L32.0965 24.3152C31.8733 24.3748 31.644 24.242 31.5844 24.0188C31.5249 23.7955 31.6576 23.5662 31.8808 23.5066L33.857 22.9793L34.4438 24.6452C34.5206 24.8631 34.4062 25.1022 34.1882 25.179C33.9703 25.2557 33.7316 25.1411 33.6548 24.9232L33.5509 24.6287C32.8086 26.1517 31.8575 27.2365 30.7726 27.9653C29.4658 28.8432 27.9965 29.1838 26.5317 29.1852C23.6191 29.1879 20.6736 27.8518 18.852 26.6326Z" fill="#CFF2FC"/>
<path d="M18.7357 26.8065C18.4479 26.6138 18.3704 26.224 18.563 25.9359C18.7557 25.648 19.1459 25.5705 19.434 25.7631C21.1577 26.9168 23.9005 28.1415 26.531 28.139C27.8332 28.1377 29.0884 27.8364 30.189 27.0971C31.0418 26.5242 31.8281 25.6687 32.4767 24.4308L32.1505 24.5175C31.8155 24.6069 31.4714 24.4077 31.3821 24.0728C31.2928 23.738 31.492 23.3938 31.8267 23.3044L33.9901 22.7272L34.6414 24.5758C34.7564 24.9026 34.5848 25.2613 34.2579 25.3765C33.9811 25.4738 33.6818 25.3653 33.5268 25.1315C32.8036 26.4711 31.907 27.4556 30.8893 28.1392C29.5413 29.0447 28.0293 29.393 26.5321 29.3944C23.5631 29.3972 20.5768 28.0388 18.7357 26.8065ZM18.9109 26.1684C18.8467 26.2644 18.8726 26.3943 18.9686 26.4586L18.9683 26.4591C20.7702 27.6651 23.6754 28.9786 26.5315 28.9758C27.9638 28.9745 29.3903 28.6419 30.6557 27.7919C31.7064 27.086 32.6347 26.0312 33.3629 24.5372L33.5819 24.0875L33.8522 24.8535C33.8907 24.9624 34.01 25.0201 34.1188 24.9818C34.2276 24.9434 34.2849 24.8239 34.2466 24.7149L33.7238 23.2318L31.9348 23.7089C31.8233 23.7387 31.7569 23.8532 31.7865 23.9647C31.8163 24.0764 31.9309 24.1427 32.0424 24.113L33.2504 23.7911L33.06 24.1974C32.348 25.7195 31.4378 26.7624 30.4226 27.4444C29.2396 28.2391 27.8988 28.5562 26.5315 28.5576C23.7882 28.5602 20.9644 27.2909 19.2015 26.111C19.1175 26.0548 19.0072 26.0674 18.9379 26.1357L18.9109 26.1684Z" fill="#0A99C0"/>
</g>
<defs>
<filter id="filter0_i_40003150_951" x="0" y="0" width="52" height="76" filterUnits="userSpaceOnUse" color-interpolation-filters="sRGB">
<feFlood flood-opacity="0" result="BackgroundImageFix"/>
<feBlend mode="normal" in="SourceGraphic" in2="BackgroundImageFix" result="shape"/>
<feColorMatrix in="SourceAlpha" type="matrix" values="0 0 0 0 0 0 0 0 0 0 0 0 0 0 0 0 0 0 127 0" result="hardAlpha"/>
<feOffset dy="24"/>
<feGaussianBlur stdDeviation="12"/>
<feComposite in2="hardAlpha" operator="arithmetic" k2="-1" k3="1"/>
<feColorMatrix type="matrix" values="0 0 0 0 1 0 0 0 0 1 0 0 0 0 1 0 0 0 0.46 0"/>
<feBlend mode="normal" in2="shape" result="effect1_innerShadow_40003150_951"/>
</filter>
<filter id="filter1_d_40003150_951" x="7.53543" y="2.25229" width="36.9293" height="51.4954" filterUnits="userSpaceOnUse" color-interpolation-filters="sRGB">
<feFlood flood-opacity="0" result="BackgroundImageFix"/>
<feColorMatrix in="SourceAlpha" type="matrix" values="0 0 0 0 0 0 0 0 0 0 0 0 0 0 0 0 0 0 127 0" result="hardAlpha"/>
<feOffset dy="2"/>
<feGaussianBlur stdDeviation="2"/>
<feComposite in2="hardAlpha" operator="out"/>
<feColorMatrix type="matrix" values="0 0 0 0 0 0 0 0 0 0 0 0 0 0 0 0 0 0 0.25 0"/>
<feBlend mode="normal" in2="BackgroundImageFix" result="effect1_dropShadow_40003150_951"/>
<feBlend mode="normal" in="SourceGraphic" in2="effect1_dropShadow_40003150_951" result="shape"/>
</filter>
<linearGradient id="paint0_linear_40003150_951" x1="26.0003" y1="4.25223" x2="26.0003" y2="47.7476" gradientUnits="userSpaceOnUse">
<stop stop-color="white"/>
<stop offset="1" stop-color="#9EE5F9"/>
</linearGradient>
</defs>
</svg>
