<svg width="53" height="58" viewBox="0 0 53 58" fill="none" xmlns="http://www.w3.org/2000/svg">
<g filter="url(#filter0_i_40002059_81439)">
<rect x="0.0976562" width="52" height="52" rx="8" fill="#D6337C"/>
</g>
<g filter="url(#filter1_d_40002059_81439)">
<path d="M36.3006 36.1984C36.2255 36.3364 36.0528 36.3876 35.9147 36.3126C35.7766 36.2376 35.7253 36.0646 35.8004 35.9265C36.4813 34.6727 37.1514 32.7097 36.9813 30.8901C36.8968 29.9862 36.6059 29.1265 36.0148 28.4012C35.5077 27.779 34.7673 27.2416 33.7128 26.8623L33.9012 27.3737C33.9556 27.5211 33.88 27.6847 33.7325 27.7391C33.5851 27.7934 33.4215 27.7178 33.3671 27.5704L32.8862 26.2651L33.9775 25.7632C34.1204 25.6976 34.2894 25.7601 34.3551 25.9029C34.4207 26.0457 34.3581 26.2146 34.2153 26.2802L34.0223 26.3691C35.1003 26.7763 35.8945 27.3525 36.4561 28.0416C37.1325 28.8716 37.4552 29.8453 37.548 30.8373C37.7324 32.8097 37.0121 34.8883 36.3006 36.1984Z" fill="#F7D6E5"/>
<path d="M36.425 36.2662C36.3125 36.4732 36.0534 36.5501 35.8462 36.4377C35.6391 36.3252 35.5622 36.0658 35.6746 35.8587C36.3479 34.619 37.0054 32.6846 36.8389 30.9033C36.7564 30.0215 36.4737 29.1902 35.904 28.4911C35.4626 27.9495 34.834 27.4706 33.955 27.1089L34.0342 27.3244C34.1157 27.5457 34.0023 27.7912 33.7812 27.8727C33.56 27.9541 33.3145 27.8408 33.2329 27.6197L32.7064 26.1907L33.9175 25.6338C34.1317 25.5354 34.3853 25.6291 34.4839 25.8433C34.5671 26.0247 34.5123 26.2342 34.3637 26.3538C35.3163 26.7596 36.0392 27.3052 36.5659 27.9516C37.2636 28.8077 37.5942 29.81 37.689 30.8239C37.877 32.8345 37.1442 34.9421 36.425 36.2662ZM35.9819 36.1875C36.0509 36.225 36.1372 36.1993 36.1748 36.1303L36.1751 36.1305C36.879 34.8345 37.5864 32.7846 37.4056 30.8505C37.3149 29.8806 37.0003 28.9353 36.3453 28.1315C35.8015 27.4642 35.0289 26.9016 33.9715 26.5021L33.6532 26.3819L34.1551 26.1508C34.2264 26.1179 34.258 26.0335 34.2252 25.9622C34.1924 25.891 34.1079 25.8597 34.0365 25.8924L33.0649 26.3394L33.5001 27.5211C33.5272 27.5948 33.6089 27.6326 33.6826 27.6055C33.7564 27.5783 33.7941 27.4966 33.767 27.4229L33.4733 26.625L33.7604 26.7285C34.8358 27.1153 35.5991 27.6664 36.1246 28.3112C36.737 29.0626 37.0357 29.9508 37.1223 30.8767C37.296 32.7345 36.6134 34.7264 35.9248 35.9943C35.892 36.0547 35.9074 36.1287 35.9581 36.1713L35.9819 36.1875Z" fill="#F7D6E5"/>
<path d="M24.8461 31.8471L24.3964 37.6817C23.2532 40.8676 22.4849 44.7595 21.1231 47.8204C20.2548 49.7695 17.7874 49.2135 17.6562 47.2145L19.7739 37.713L19.3553 30.1667C21.1044 30.9351 22.9596 31.5598 24.8461 31.8534V31.8471Z" fill="url(#paint0_linear_40002059_81439)"/>
<path d="M21.2285 12.0257C23.2649 10.9138 25.1331 10.845 26.6885 12.7503C27.844 14.1683 28.7682 16.0673 29.9736 17.4915C30.236 17.554 33.2725 14.2117 34.0283 13.8431C35.3337 13.2063 36.5455 14.6435 35.5586 16.0052C34.2156 17.848 32.2793 19.5287 30.9238 21.4027C29.1061 22.9831 28.2499 20.7088 27.0693 19.7093H27.0635L25.8076 25.6068L32.7539 28.849C34.0529 29.9109 33.9657 31.1039 33.416 32.5531C32.2105 35.7076 30.1868 38.8933 28.8438 42.0228C27.5819 43.4471 25.4388 42.473 25.7012 40.5677L28.7432 32.3216C28.6869 32.2032 28.5809 32.2028 28.4873 32.1654C25.5888 31.0285 19.0922 30.7349 18.0615 27.3929C17.4495 25.4127 18.9675 21.6463 19.4111 19.4974C19.4798 19.1663 19.8667 17.1917 19.7793 17.0667L17.2686 18.5101C16.925 20.5091 16.8315 22.6082 16.4941 24.6009C16.4192 25.0443 16.3815 25.5563 16.1318 25.931C15.4634 26.9492 13.7578 26.4868 13.7578 25.2562C14.0014 22.6328 13.802 19.8283 14.083 17.2298C14.1517 16.5864 14.5012 16.1921 15.001 15.8236C16.5751 14.6555 19.467 12.9877 21.2285 12.0257ZM25.5645 3.89877C30.4181 3.2366 30.9806 10.3205 26.583 10.8265C21.767 11.3824 21.2859 4.48635 25.5645 3.89877Z" fill="url(#paint1_linear_40002059_81439)"/>
<g filter="url(#filter2_d_40002059_81439)">
<path d="M16.8365 29.8003C16.7774 29.6548 16.8475 29.4887 16.993 29.4296C17.1386 29.3704 17.3048 29.4406 17.364 29.5862C17.9009 30.9081 18.9929 32.6716 20.5071 33.6947C21.2594 34.2029 22.1084 34.5235 23.044 34.5269C23.8467 34.5298 24.7318 34.2984 25.694 33.724L25.1793 33.5452C25.0308 33.4936 24.9523 33.3314 25.0039 33.1829C25.0555 33.0345 25.2177 32.956 25.3661 33.0075L26.6801 33.464L26.3755 34.626C26.3356 34.7781 26.18 34.8691 26.028 34.8292C25.876 34.7893 25.7852 34.6338 25.8251 34.4818L25.8789 34.2762C24.8801 34.851 23.9309 35.0994 23.0419 35.0962C21.9712 35.0923 21.0139 34.7239 20.1884 34.1662C18.547 33.0572 17.3975 31.1815 16.8365 29.8003Z" fill="#F7D6E5"/>
<path d="M16.7039 29.8539C16.6153 29.6356 16.7203 29.3865 16.9386 29.2977C17.157 29.209 17.4062 29.3141 17.495 29.5325C18.0259 30.8395 19.1037 32.5751 20.5862 33.5767C21.3201 34.0725 22.1419 34.3813 23.0436 34.3846C23.7423 34.3871 24.5114 34.2051 25.3486 33.7552L25.1319 33.6796C24.9091 33.6022 24.7913 33.3589 24.8686 33.1362C24.946 32.9136 25.1894 32.7957 25.412 32.8729L26.8505 33.3727L26.5125 34.6622C26.4527 34.8902 26.2193 35.0267 25.9912 34.967C25.7982 34.9162 25.6711 34.741 25.6729 34.5502C24.7549 35.029 23.8745 35.2416 23.0407 35.2386C21.9363 35.2346 20.9519 34.8542 20.1081 34.2842C18.4349 33.1537 17.271 31.2499 16.7039 29.8539ZM17.0459 29.5613C16.9732 29.5909 16.9382 29.6739 16.9678 29.7467L16.9674 29.7469C17.5224 31.1132 18.6578 32.9607 20.2674 34.0482C21.0746 34.5935 22.0048 34.9501 23.0416 34.9539C23.9024 34.957 24.8275 34.7168 25.8072 34.153L26.102 33.9832L25.9622 34.5177C25.9423 34.5938 25.9875 34.6717 26.0634 34.6916C26.1393 34.7115 26.2172 34.666 26.2372 34.59L26.5082 33.5554L25.3187 33.142C25.2445 33.1162 25.1635 33.1554 25.1376 33.2295C25.1119 33.3038 25.1511 33.3848 25.2252 33.4106L26.0283 33.6899L25.7662 33.8462C24.7848 34.4319 23.8746 34.6723 23.0427 34.6693C22.0735 34.6658 21.1974 34.3332 20.4269 33.8126C18.8809 32.7681 17.7744 30.9765 17.2315 29.6398C17.2056 29.5761 17.1386 29.5411 17.0735 29.5532L17.0459 29.5613Z" fill="#F7D6E5"/>
</g>
</g>
<defs>
<filter id="filter0_i_40002059_81439" x="0.0976562" y="0" width="52" height="76" filterUnits="userSpaceOnUse" color-interpolation-filters="sRGB">
<feFlood flood-opacity="0" result="BackgroundImageFix"/>
<feBlend mode="normal" in="SourceGraphic" in2="BackgroundImageFix" result="shape"/>
<feColorMatrix in="SourceAlpha" type="matrix" values="0 0 0 0 0 0 0 0 0 0 0 0 0 0 0 0 0 0 127 0" result="hardAlpha"/>
<feOffset dy="24"/>
<feGaussianBlur stdDeviation="12"/>
<feComposite in2="hardAlpha" operator="arithmetic" k2="-1" k3="1"/>
<feColorMatrix type="matrix" values="0 0 0 0 1 0 0 0 0 1 0 0 0 0 1 0 0 0 0.46 0"/>
<feBlend mode="normal" in2="shape" result="effect1_innerShadow_40002059_81439"/>
</filter>
<filter id="filter1_d_40002059_81439" x="9.75781" y="3.85513" width="31.9609" height="53.1745" filterUnits="userSpaceOnUse" color-interpolation-filters="sRGB">
<feFlood flood-opacity="0" result="BackgroundImageFix"/>
<feColorMatrix in="SourceAlpha" type="matrix" values="0 0 0 0 0 0 0 0 0 0 0 0 0 0 0 0 0 0 127 0" result="hardAlpha"/>
<feOffset dy="4"/>
<feGaussianBlur stdDeviation="2"/>
<feComposite in2="hardAlpha" operator="out"/>
<feColorMatrix type="matrix" values="0 0 0 0 0 0 0 0 0 0 0 0 0 0 0 0 0 0 0.25 0"/>
<feBlend mode="normal" in2="BackgroundImageFix" result="effect1_dropShadow_40002059_81439"/>
<feBlend mode="normal" in="SourceGraphic" in2="effect1_dropShadow_40002059_81439" result="shape"/>
</filter>
<filter id="filter2_d_40002059_81439" x="14.6719" y="27.2662" width="14.1797" height="9.97238" filterUnits="userSpaceOnUse" color-interpolation-filters="sRGB">
<feFlood flood-opacity="0" result="BackgroundImageFix"/>
<feColorMatrix in="SourceAlpha" type="matrix" values="0 0 0 0 0 0 0 0 0 0 0 0 0 0 0 0 0 0 127 0" result="hardAlpha"/>
<feOffset/>
<feGaussianBlur stdDeviation="1"/>
<feComposite in2="hardAlpha" operator="out"/>
<feColorMatrix type="matrix" values="0 0 0 0 0 0 0 0 0 0 0 0 0 0 0 0 0 0 0.44 0"/>
<feBlend mode="normal" in2="BackgroundImageFix" result="effect1_dropShadow_40002059_81439"/>
<feBlend mode="normal" in="SourceGraphic" in2="effect1_dropShadow_40002059_81439" result="shape"/>
</filter>
<linearGradient id="paint0_linear_40002059_81439" x1="21.2512" y1="18.717" x2="21.2512" y2="49.0296" gradientUnits="userSpaceOnUse">
<stop stop-color="white"/>
<stop offset="1" stop-color="#EFADCB"/>
</linearGradient>
<linearGradient id="paint1_linear_40002059_81439" x1="24.8386" y1="-0.323653" x2="24.8386" y2="42.7026" gradientUnits="userSpaceOnUse">
<stop stop-color="white"/>
<stop offset="1" stop-color="#EFADCB"/>
</linearGradient>
</defs>
</svg>
